<svg xmlns="http://www.w3.org/2000/svg" viewBox="0 0 70.87 74.19"><defs><style>.cls-1{fill:#dbeccf;}.cls-2{fill:#71706f;}</style></defs><g id="Layer_2" data-name="Layer 2"><g id="AW"><circle class="cls-1" cx="35.43" cy="38.76" r="35.43" transform="translate(-10.52 64.17) rotate(-76.51)"/><path class="cls-2" d="M11.71,59.62c0-15.69,15-20.52,20.24-6.41,6.22-8.73,11.52,0,11.52,0,0-3.9,15.69-14.3,15.69,6.41Z"/><path class="cls-2" d="M57.77,13.28c-7.41,2.32-26.56,1.77-26.65,23.81h0V53.21h1.67v-16C58,36.26,56.13,14.92,57.77,13.28ZM45.12,22.15c-.6.4-1.2.85-1.83,1.31s-1.24,1-1.89,1.46S40.15,26,39.54,26.53s-1.21,1.1-1.73,1.71A22.88,22.88,0,0,0,36.25,30a20,20,0,0,0-1.33,1.77,18.54,18.54,0,0,0-1.07,1.68c-.29.55-.58,1-.84,1.49l-.54,1.22-.44.93H32c0-.17,0-.52.08-1s.07-.85.16-1.38.28-1.1.48-1.74a11,11,0,0,1,.8-2,13.33,13.33,0,0,1,1.18-2.09,16.47,16.47,0,0,1,1.54-2.06A23.64,23.64,0,0,1,38,24.88c.66-.58,1.34-1.15,2-1.67s1.41-1,2.13-1.38a18.44,18.44,0,0,1,2.08-1.12c.67-.34,1.34-.59,1.94-.83a18.21,18.21,0,0,1,4.2-1.12s-1.5.89-3.62,2.26C46.29,21.38,45.71,21.74,45.12,22.15Z"/><path class="cls-2" d="M12.2,19.12c3.68.65,14.43.65,17.21,18.06C17.44,38,12.2,19.12,12.2,19.12Z"/><path class="cls-2" d="M30.3,21.92c-.1-.5-.21-1-.3-1.6s-.29-1.15-.42-1.76-.33-1.23-.46-1.87a11.75,11.75,0,0,0-.52-1.91L28,12.91c-.11-.31-.17-.63-.29-.92s-.25-.58-.37-.86c-.25-.56-.45-1.12-.68-1.65s-.52-1-.75-1.4a9.64,9.64,0,0,0-.71-1.15,7.2,7.2,0,0,0-.62-.86c-.19-.21-.32-.42-.44-.53L24,5.36a5,5,0,0,1,.83.46,6.35,6.35,0,0,1,.87.68,6.51,6.51,0,0,1,1,1c.33.41.7.85,1.06,1.34s.62,1.06.93,1.65a8.71,8.71,0,0,1,.84,1.83l.69,2a11.78,11.78,0,0,1,.49,2c.13.66.22,1.33.33,2a11.09,11.09,0,0,1,.22,1.85c0,.59,0,1.15,0,1.67,0,.69,0,1.29,0,1.8C38.4,7,25.15,2.22,21,0c0,0-5.18,18.86,9.72,23.73C30.58,23.22,30.44,22.61,30.3,21.92Z"/></g></g></svg>