<svg xmlns="http://www.w3.org/2000/svg" viewBox="0 0 42.28 37"><defs><style>.cls-1{fill:#5e5e5e;}</style></defs><g id="Layer_2" data-name="Layer 2"><g id="AW"><path class="cls-1" d="M12.4,29.07l-.47,2.32c-.45,1.8-1.5,3-2.68,3S7,33.19,6.58,31.45l-1.32-6.6A1.32,1.32,0,0,0,4,23.79c-1.32,0-1.32,0-1.32-2.54.41-5,1.59-6.82,3.47-8.33a1.25,1.25,0,0,0,.23-.23l.1-.13a5.81,5.81,0,0,0,.82.32l1.11,1.66-1.76,4.4,2.64,3.52,2.64-3.52-1.76-4.4,1.11-1.66a5.81,5.81,0,0,0,.82-.32l.1.13a1.67,1.67,0,0,0,.23.23A8.32,8.32,0,0,1,15.5,18.5h2.68c-.59-3.49-1.81-5.72-4-7.53A6.6,6.6,0,1,0,2.64,6.61,6.55,6.55,0,0,0,4.32,11C1.64,13.18.42,16,0,21.14c0,2.23,0,4.72,2.86,5.2L4,32c.76,3,2.82,5,5.25,5h0c2.43,0,4.49-2,5.26-5l.58-2.9ZM9.25,2.64a4,4,0,1,1-4,4A4,4,0,0,1,9.25,2.64Z"/><path class="cls-1" d="M27.2,29.07l.59,3c.75,3,2.81,5,5.24,5h0c2.43,0,4.49-2,5.26-5l1.12-5.63c2.87-.49,2.87-3,2.86-5.31C41.86,16,40.65,13.18,38,11a6.52,6.52,0,0,0,1.68-4.36A6.61,6.61,0,1,0,28.11,11c-2.18,1.79-3.39,4-4,7.53h2.67a8.35,8.35,0,0,1,3.11-5.58,2.5,2.5,0,0,0,.23-.23l.09-.13a6.45,6.45,0,0,0,.83.32l1.1,1.66-1.76,4.4L33,22.46l2.64-3.52-1.76-4.4L35,12.88a5.93,5.93,0,0,0,.83-.32l.09.13a1.75,1.75,0,0,0,.24.23c1.88,1.51,3,3.36,3.46,8.22,0,2.65,0,2.65-1.32,2.65A1.31,1.31,0,0,0,37,24.85l-1.31,6.54c-.45,1.8-1.5,3-2.68,3s-2.24-1.17-2.67-2.91l-.48-2.38ZM33,10.57a4,4,0,1,1,4-4A4,4,0,0,1,33,10.57Z"/><path class="cls-1" d="M30,24.73l.07-.08a1.24,1.24,0,0,0,.31-.7h0a1,1,0,0,0,0-.25h0a1.32,1.32,0,0,0-.37-.84h0l-2.65-2.64a1.32,1.32,0,0,0-1.87,0,1.33,1.33,0,0,0,0,1.87l.39.38H16.4l.39-.38a1.32,1.32,0,1,0-1.87-1.87l-2.64,2.64h0a1.32,1.32,0,0,0-.37.84h0a1,1,0,0,0,0,.25h0a1.33,1.33,0,0,0,.32.7l.07.08,2.63,2.63a1.33,1.33,0,0,0,.94.39,1.3,1.3,0,0,0,.93-.39,1.32,1.32,0,0,0,0-1.87l-.39-.38h9.48l-.39.38a1.33,1.33,0,0,0,.94,2.26,1.3,1.3,0,0,0,.93-.39Z"/></g></g></svg>