<svg xmlns="http://www.w3.org/2000/svg" viewBox="0 0 44.9 39.29"><defs><style>.cls-1{fill:#5e5e5e;}</style></defs><g id="Layer_2" data-name="Layer 2"><g id="AW"><path class="cls-1" d="M9.82,16.84h-5l.41-.41a1.4,1.4,0,1,0-2-2L.41,17.25h0a1.43,1.43,0,0,0-.4.89H0a2.44,2.44,0,0,0,0,.27H0a1.4,1.4,0,0,0,.34.74.27.27,0,0,0,.07.08L3.22,22a1.4,1.4,0,0,0,2,0,1.39,1.39,0,0,0,0-2l-.41-.41h6.44V16.84Z"/><path class="cls-1" d="M14.51,9.72,14,9.25,12.56,7.77,9,4.21h.82a1.41,1.41,0,1,0,0-2.81H5.6a1.38,1.38,0,0,0-.91.34h0A1.8,1.8,0,0,0,4.5,2h0a1.45,1.45,0,0,0-.29.76V7A1.41,1.41,0,0,0,7,7V6.2l3.55,3.55,2.06,2.06Z"/><path class="cls-1" d="M11.23,26.08l-.66.65L7,30.29v-.82a1.4,1.4,0,0,0-1.41-1.4,1.37,1.37,0,0,0-1,.41,1.4,1.4,0,0,0-.41,1v4.3a1.48,1.48,0,0,0,.29.77h0a1.7,1.7,0,0,0,.19.19h0a1.34,1.34,0,0,0,.91.35H9.82a1.41,1.41,0,1,0,0-2.81H9l3.56-3.55.07-.07.38-.39Z"/><path class="cls-1" d="M44.9,18.15a1.41,1.41,0,0,0-.39-.89h0l-2.8-2.81a1.42,1.42,0,0,0-2,0,1.41,1.41,0,0,0,0,2l.41.41H33.68v2.81h6.43l-.41.41a1.4,1.4,0,0,0,2,2l2.8-2.8.07-.08a1.31,1.31,0,0,0,.33-.74h0a1.22,1.22,0,0,0,0-.27Z"/><path class="cls-1" d="M32.28,11.81l2-2.06L37.89,6.2V7a1.4,1.4,0,0,0,2.39,1,1.37,1.37,0,0,0,.41-1V2.82a.41.41,0,0,0,0-.11A1.37,1.37,0,0,0,40.4,2h0a1.71,1.71,0,0,0-.18-.2h0a1.35,1.35,0,0,0-.9-.34H35.08a1.41,1.41,0,0,0,0,2.81h.82L32.35,7.77l-2,2,0,.1Z"/><path class="cls-1" d="M32.28,28.65l.07.07,3.55,3.55h-.82a1.41,1.41,0,0,0,0,2.81h4.23a1.31,1.31,0,0,0,.9-.35h0a1.62,1.62,0,0,0,.18-.19h0a1.4,1.4,0,0,0,.29-.77.34.34,0,0,0,0-.1v-4.2a1.4,1.4,0,0,0-1.4-1.4,1.4,1.4,0,0,0-1.4,1.4v.82l-3.56-3.56-.06-.06Z"/><path class="cls-1" d="M27.68,11.65a7,7,0,1,0-10.46,0C14.37,14,13.08,17,12.63,22.45c0,2.36,0,5,3,5.53l1.21,6c.8,3.2,3,5.27,5.57,5.27h0C25,39.29,27.22,37.22,28,34l1.19-6c3.05-.52,3.05-3.18,3-5.64C31.83,17,30.54,14,27.68,11.65ZM22.45,2.81A4.21,4.21,0,1,1,18.24,7,4.22,4.22,0,0,1,22.45,2.81Zm4.24,23.58-1.39,7c-.48,1.91-1.59,3.15-2.85,3.15s-2.37-1.24-2.83-3.09l-1.4-7a1.41,1.41,0,0,0-1.38-1.13c-1.4,0-1.4,0-1.41-2.69.44-5.28,1.69-7.24,3.69-8.84a2.06,2.06,0,0,0,.25-.26l.1-.13a5.37,5.37,0,0,0,.87.33l1.18,1.77-1.87,4.67,2.8,3.75,2.81-3.75-1.87-4.67,1.17-1.77a5.48,5.48,0,0,0,.88-.33,1.47,1.47,0,0,0,.1.13,1.23,1.23,0,0,0,.25.26c2,1.6,3.24,3.56,3.68,8.72,0,2.81,0,2.81-1.4,2.81A1.4,1.4,0,0,0,26.69,26.39Z"/></g></g></svg>