<svg xmlns="http://www.w3.org/2000/svg" viewBox="0 0 70.87 74.36"><defs><style>.cls-1{isolation:isolate;}.cls-2{fill:#dbeccf;}.cls-3{fill:#71706f;}.cls-4,.cls-7{mix-blend-mode:multiply;}.cls-5{fill:#d1dde4;}.cls-6{fill:#0c1415;}.cls-7{fill:#bac7ce;}</style></defs><g class="cls-1"><g id="Layer_2" data-name="Layer 2"><g id="AW"><circle class="cls-2" cx="35.43" cy="38.93" r="35.43" transform="translate(-8.72 67.59) rotate(-80.68)"/><polygon class="cls-3" points="46.68 48.68 25.19 48.68 21.17 4.03 49.7 4.03 46.68 48.68"/><rect class="cls-3" x="21.17" width="28.53" height="4.03"/><g class="cls-4"><path class="cls-5" d="M32,40.12c-5.74-6.49-6.4-17.46-5.87-25.68A29.3,29.3,0,0,1,28.71,4H21.17l4,44.65H46.68L47.06,43C41.71,44.46,36.1,44.75,32,40.12Z"/><path class="cls-5" d="M30.87,0h-9.7V4h7.54A36.62,36.62,0,0,1,30.87,0Z"/></g><path class="cls-6" d="M44.08,62.11H27.8c-1.85,0-2.61-1.1-2.61-2.27V48.68H46.34V59.92A2,2,0,0,1,44.08,62.11Z"/><path class="cls-6" d="M35.47,59.34c-1.84,0-2.6-1.09-2.6-2.27V48.68H25.19V59.84c0,1.17.76,2.27,2.61,2.27H44.08a2,2,0,0,0,2.26-2.19v-.58Z"/><path class="cls-6" d="M25.19,59.34v.5c0,1.17.76,2.27,2.61,2.27H44.08a2,2,0,0,0,2.26-2.19v-.58Z"/><path class="cls-6" d="M35,59.34a2.84,2.84,0,1,1,5.67,0Z"/><polygon class="cls-7" points="22.72 4.03 21.77 4.03 22.25 0.63 22.72 4.03"/><polygon class="cls-7" points="25.31 4.03 24.36 4.03 24.84 0.63 25.31 4.03"/><polygon class="cls-7" points="27.9 4.03 26.95 4.03 27.43 0.63 27.9 4.03"/><polygon class="cls-7" points="30.5 4.03 29.55 4.03 30.02 0.63 30.5 4.03"/><polygon class="cls-7" points="33.09 4.03 32.14 4.03 32.61 0.63 33.09 4.03"/><polygon class="cls-7" points="35.68 4.03 34.73 4.03 35.2 0.63 35.68 4.03"/><polygon class="cls-7" points="38.27 4.03 37.32 4.03 37.79 0.63 38.27 4.03"/><polygon class="cls-7" points="40.86 4.03 39.91 4.03 40.38 0.63 40.86 4.03"/><polygon class="cls-7" points="43.45 4.03 42.5 4.03 42.97 0.63 43.45 4.03"/><polygon class="cls-7" points="46.04 4.03 45.09 4.03 45.56 0.63 46.04 4.03"/><polygon class="cls-7" points="48.63 4.03 47.68 4.03 48.15 0.63 48.63 4.03"/></g></g></g></svg>