<svg xmlns="http://www.w3.org/2000/svg" viewBox="0 0 17.49 19.5"><defs><style>.cls-1{fill:#6eb151;}</style></defs><g id="Layer_2" data-name="Layer 2"><g id="AW"><path class="cls-1" d="M8.74.64a.47.47,0,0,1,.48.46V2.29l.58.08A4.92,4.92,0,0,1,12,3.11a3.47,3.47,0,0,1,1.14,1.31,6.86,6.86,0,0,1,.57,1.85c.12.7.19,1.46.26,2.2.21,2.41.46,5.12,2.89,6.37v.74H.68v-.74c2.43-1.25,2.67-4,2.89-6.37.07-.74.13-1.5.26-2.2A6.52,6.52,0,0,1,4.4,4.42,3.39,3.39,0,0,1,5.54,3.11a4.92,4.92,0,0,1,2.14-.74l.58-.08V1.1A.48.48,0,0,1,8.74.64m0-.64A1.12,1.12,0,0,0,7.59,1.1v.63C.26,2.72,5,11.61.51,14.19a1.06,1.06,0,0,0-.51.93H0a1.11,1.11,0,0,0,1.11,1.11H16.38a1.11,1.11,0,0,0,1.11-1.11h0a1.07,1.07,0,0,0-.52-.93c-4.51-2.58.26-11.47-7.07-12.46V1.1A1.13,1.13,0,0,0,8.74,0Z"/><path class="cls-1" d="M11.15,16.87a2.39,2.39,0,0,1-2.41,2,2.4,2.4,0,0,1-2.41-2H5.65A3.06,3.06,0,0,0,8.74,19.5a3.06,3.06,0,0,0,3.09-2.63Z"/></g></g></svg>