<svg xmlns="http://www.w3.org/2000/svg" xmlns:xlink="http://www.w3.org/1999/xlink" viewBox="0 0 79.59 70.87"><defs><style>.cls-1{fill:#71706f;}.cls-2{fill:#dbeccf;}.cls-3{isolation:isolate;}.cls-4{clip-path:url(#clip-path);}.cls-5{fill:#515050;}</style><clipPath id="clip-path"><path class="cls-1" d="M40.5,57.89,1.29,28.76a1.68,1.68,0,0,0,1.64.07L42.15,58A1.7,1.7,0,0,1,40.5,57.89Z"/></clipPath></defs><g id="Layer_2" data-name="Layer 2"><g id="AW"><circle class="cls-2" cx="44.16" cy="35.43" r="35.43" transform="translate(-0.6 70.1) rotate(-76.51)"/><g class="cls-3"><polygon class="cls-1" points="42.15 57.96 2.93 28.83 34.34 16.63 73.55 45.77 42.15 57.96"/><g class="cls-3"><path class="cls-1" d="M40.5,57.89,1.29,28.76a1.68,1.68,0,0,0,1.64.07L42.15,58A1.7,1.7,0,0,1,40.5,57.89Z"/><g class="cls-4"><path class="cls-1" d="M40.5,57.89,1.29,28.76a1.68,1.68,0,0,0,1.64.07L42.15,58a1.7,1.7,0,0,1-1.65-.07Z"/></g></g><polygon class="cls-5" points="42.15 57.96 73.55 45.77 73.45 46.56 42.05 58.75 42.15 57.96"/></g><g class="cls-3"><polygon class="cls-1" points="71.42 38.2 71.1 40.53 71.05 40.89 70.67 43.62 70.63 43.98 70.4 45.64 39.55 57.75 40.56 50.3 71.42 38.2"/><polygon class="cls-1" points="71.1 40.53 71.05 40.89 42.53 51.97 42.58 51.6 71.1 40.53"/><polygon class="cls-1" points="62.43 45.66 44.81 52.49 44.76 52.86 62.38 46.02 62.43 45.66"/><polygon class="cls-1" points="69.61 44.03 55.54 49.5 55.49 49.86 69.57 44.4 69.61 44.03"/><polygon class="cls-1" points="69.05 45.29 41.24 56.09 41.19 56.45 69 45.65 69.05 45.29"/><polygon class="cls-1" points="40.56 50.3 39.54 57.75 6.13 33.07 7.15 25.63 40.56 50.3"/><polygon class="cls-1" points="71.42 38.2 40.56 50.3 7.15 25.63 38 13.52 71.42 38.2"/></g><path class="cls-5" d="M40,56.41l.3-2.28a4.81,4.81,0,0,1,2.78-3.47L74.51,38.47l.1-.79L43.21,49.87a6.34,6.34,0,0,0-3.67,4.56l-.29,2.28c-.24,1.82,1,2.73,2.8,2l.1-.79C40.8,58.49,39.84,57.79,40,56.41Z"/><polygon class="cls-1" points="43.21 49.87 3.99 20.74 35.39 8.55 74.61 37.68 43.21 49.87"/><path class="cls-1" d="M43.54,47.43l-.16-.11-35-26L35.06,11l.16.11,35,26ZM9.73,21.52,43.64,46.7l25.23-9.8L35,11.72Z"/><path class="cls-5" d="M39.54,54.43l-.29,2.28a2,2,0,0,0,.63,1.95L7.21,34.39,6,33.47l-.17-.13-1.1-.81-.8-.6-.67-.49L.66,29.53a2,2,0,0,1-.63-2l.3-2.28A6.31,6.31,0,0,1,4,20.74l3.37,2.51.75.55.39.29.81.6.74.55,1.14.85,32,23.78A6.34,6.34,0,0,0,39.54,54.43Z"/><path class="cls-5" d="M.33,25.3A6.31,6.31,0,0,1,4,20.74l3.37,2.5,1.14.85,1.55,1.15,1.14.85,32,23.78a6.34,6.34,0,0,0-3.67,4.56Z"/><path class="cls-5" d="M9.31,24.69l-.18.07a6.23,6.23,0,0,0-3.59,4.46L5.25,31.5a1.89,1.89,0,0,0,.58,1.84.53.53,0,0,1,.13.13l-.17-.13-1.1-.81-.8-.6a4.22,4.22,0,0,1,0-.61l.3-2.27A7.41,7.41,0,0,1,8.11,23.8l.39.29Z"/><path class="cls-5" d="M14.36,28.44l-.18.07A6.2,6.2,0,0,0,10.59,33l-.29,2.28a1.89,1.89,0,0,0,.58,1.84l.13.13-.17-.13-1.1-.81-.8-.6a4.22,4.22,0,0,1,0-.61l.3-2.27a7.41,7.41,0,0,1,3.89-5.25l.39.29Z"/><path class="cls-5" d="M37.51,45.65l-.18.07a6.16,6.16,0,0,0-3.58,4.45l-.3,2.28A1.88,1.88,0,0,0,34,54.29l.14.13L34,54.3l-1.1-.82-.81-.6a4.22,4.22,0,0,1,0-.6l.3-2.28a7.35,7.35,0,0,1,3.89-5.24l.38.28Z"/></g></g></svg>