<svg xmlns="http://www.w3.org/2000/svg" viewBox="0 0 44.35 44.34"><defs><style>.cls-1{fill:#5e5e5e;}</style></defs><g id="Layer_2" data-name="Layer 2"><g id="AW"><path class="cls-1" d="M13.86,17.15a2.71,2.71,0,0,0,1.57,2.37c1.45.84,4.1,1.26,6.75,1.26s5.29-.42,6.74-1.26A2.74,2.74,0,0,0,30.49,17c-.41-4.72-1.65-5.9-3.81-7.58l-.35-.27A5.52,5.52,0,0,0,22.18,0,5.52,5.52,0,0,0,18,9.18l-.35.27C15.51,11.13,14.27,12.31,13.86,17.15Zm5.51-5.51.87-.68,1.17,1.74-1.94,5.14A6.78,6.78,0,0,1,16.65,17C17,13.49,17.74,12.9,19.37,11.64ZM27.71,17a6.74,6.74,0,0,1-2.83.83L23,12.7,24.11,11l.87.68C26.62,12.91,27.39,13.51,27.71,17ZM22.18,2.77A2.78,2.78,0,1,1,19.4,5.54,2.78,2.78,0,0,1,22.18,2.77Z"/><path class="cls-1" d="M12.82,33l-.35-.27a5.48,5.48,0,0,0,1.39-3.63,5.55,5.55,0,1,0-9.7,3.63L3.81,33C1.65,34.69.41,35.87,0,40.71a2.71,2.71,0,0,0,1.57,2.37c1.45.84,4.1,1.26,6.75,1.26s5.29-.42,6.74-1.26a2.74,2.74,0,0,0,1.57-2.48C16.22,35.87,15,34.69,12.82,33Zm-4.5-6.68a2.78,2.78,0,1,1-2.78,2.78A2.78,2.78,0,0,1,8.32,26.33ZM5.51,35.2l.87-.68,1.17,1.75L5.61,41.4a6.78,6.78,0,0,1-2.82-.82C3.12,37.06,3.88,36.46,5.51,35.2ZM11,41.4,9.09,36.27l1.16-1.75.87.68c1.64,1.28,2.41,1.87,2.73,5.37A6.74,6.74,0,0,1,11,41.4Z"/><path class="cls-1" d="M40.54,33l-.35-.27a5.48,5.48,0,0,0,1.39-3.63,5.55,5.55,0,1,0-9.7,3.63l-.35.27c-2.16,1.68-3.4,2.86-3.81,7.7a2.71,2.71,0,0,0,1.57,2.37c1.45.84,4.1,1.26,6.75,1.26s5.29-.42,6.74-1.26a2.74,2.74,0,0,0,1.57-2.48C43.94,35.87,42.7,34.69,40.54,33ZM36,26.33a2.78,2.78,0,1,1-2.78,2.78A2.78,2.78,0,0,1,36,26.33ZM33.23,35.2l.87-.68,1.17,1.75L33.33,41.4a6.78,6.78,0,0,1-2.82-.82C30.84,37.06,31.6,36.46,33.23,35.2Zm5.51,6.2-1.93-5.13L38,34.52l.87.68c1.64,1.28,2.4,1.87,2.73,5.37A6.74,6.74,0,0,1,38.74,41.4Z"/><path class="cls-1" d="M34.65,18a12.16,12.16,0,0,1-.25,2.49,1.39,1.39,0,0,0,1.08,1.64l.28,0a1.41,1.41,0,0,0,1.36-1.11,15.61,15.61,0,0,0,.3-3.05,15.11,15.11,0,0,0-6.1-12.2A1.39,1.39,0,0,0,29.65,8,12.37,12.37,0,0,1,34.65,18Z"/><path class="cls-1" d="M29,30.17a1.39,1.39,0,0,0-1.82-.72,11.82,11.82,0,0,1-1.25.47,12.57,12.57,0,0,1-8.73-.47,1.4,1.4,0,0,0-1.83.72A1.39,1.39,0,0,0,16.08,32a15,15,0,0,0,6.1,1.27,15.29,15.29,0,0,0,4.57-.69c.52-.17,1-.36,1.52-.57A1.39,1.39,0,0,0,29,30.17Z"/><path class="cls-1" d="M8.59,22.18a1.33,1.33,0,0,0,.28,0A1.39,1.39,0,0,0,10,20.51,12.9,12.9,0,0,1,9.7,18a12.38,12.38,0,0,1,5-10A1.39,1.39,0,1,0,13,5.82,15.12,15.12,0,0,0,6.93,18a14.89,14.89,0,0,0,.31,3.05A1.39,1.39,0,0,0,8.59,22.18Z"/></g></g></svg>