<svg xmlns="http://www.w3.org/2000/svg" viewBox="0 0 12.04 11.14"><defs><style>.cls-1{fill:#71ad42;}</style></defs><g id="Layer_2" data-name="Layer 2"><g id="AW"><path class="cls-1" d="M11.31,1.91h-9c-.09,0-.12,0-.14-.12,0-.24-.1-.49-.14-.73a.65.65,0,0,0-.4-.5L.44,0a.28.28,0,0,0-.2,0A.3.3,0,0,0,0,.26.32.32,0,0,0,.2.58l1.16.5a.19.19,0,0,1,.14.17C2,3.49,2.43,5.73,2.89,8a.61.61,0,0,0,.7.57h7a.3.3,0,0,0,.22-.38c0-.15-.16-.21-.36-.21H3.59c-.09,0-.12,0-.13-.1l-.12-.6c0-.14,0-.14.11-.14h7.09a.6.6,0,0,0,.67-.51l.69-3.36A3,3,0,0,1,12,2.65V2.4A.63.63,0,0,0,11.31,1.91Zm.12.72c-.27,1.26-.52,2.51-.78,3.77,0,.1-.06.12-.15.12H3.31c-.09,0-.13,0-.15-.12-.25-1.26-.52-2.53-.78-3.79,0-.11,0-.11.1-.11h8.84C11.43,2.5,11.45,2.53,11.43,2.63Z"/><path class="cls-1" d="M8.75,9a1.06,1.06,0,0,0,0,2.11A1.06,1.06,0,1,0,8.75,9Zm0,1.52a.46.46,0,0,1-.46-.48.45.45,0,0,1,.47-.45.46.46,0,0,1,.46.47A.48.48,0,0,1,8.76,10.55Z"/><path class="cls-1" d="M5,9a1.05,1.05,0,0,0-1,1.06A1.06,1.06,0,1,0,5,9Zm0,1.52a.47.47,0,0,1-.47-.47.45.45,0,0,1,.47-.46.48.48,0,0,1,.47.47A.48.48,0,0,1,5.05,10.55Z"/><path class="cls-1" d="M6.9,3.45H9a.3.3,0,0,1,.33.23A.29.29,0,0,1,9,4H4.8a.3.3,0,0,1-.31-.3.3.3,0,0,1,.31-.29Z"/><path class="cls-1" d="M6.91,5.57h-2a.28.28,0,0,1-.21-.31A.28.28,0,0,1,5,5H8.75a.32.32,0,0,1,.33.21.29.29,0,0,1-.29.38H6.91Z"/></g></g></svg>