<svg xmlns="http://www.w3.org/2000/svg" viewBox="0 0 19.87 17.92"><defs><style>.cls-1{fill:#6eb151;}</style></defs><g id="Layer_2" data-name="Layer 2"><g id="AW"><path class="cls-1" d="M0,.62c0,.54.34.65.75.65.69,0,1.38,0,2.07,0S3.89,1.59,4,2.36Q4.39,8.2,4.86,14a.65.65,0,0,1-.35.66,1.76,1.76,0,0,0-.69,2.07,1.67,1.67,0,0,0,1.7,1.13,1.65,1.65,0,0,0,1.4-1.7c0-.44.13-.51.49-.51,1.85,0,3.7,0,5.56,0,.35,0,.49.07.51.51a1.63,1.63,0,0,0,1.63,1.71,1.73,1.73,0,0,0,1.55-1.75A1.67,1.67,0,0,0,15,14.42c-2.7,0-5.4,0-8.1,0a1,1,0,0,1-1-1.41c.13-.39.46-.2.68-.2,3.15,0,6.3,0,9.45,0a1.15,1.15,0,0,0,1.31-1c.77-2.73,1.6-5.43,2.4-8.15.26-.89.09-1.13-.79-1.13H7.38c-.42,0-.87,0-.89.58s.47.64.9.64c3.47,0,6.94,0,10.4,0,.67,0,.73.13.52.79C17.65,6.6,17,8.7,16.45,10.8c-.14.51-.32.73-.86.73-3,0-6.09,0-9.13,0-.5,0-.68-.13-.71-.69C5.55,8,5.31,5.08,5.1,2.21A2.12,2.12,0,0,0,3,0C2.27,0,1.53,0,.79,0,.38,0,0,.1,0,.62ZM14.59,16.16a.44.44,0,0,1,.47-.46.43.43,0,0,1,.45.46.42.42,0,0,1-.46.46A.43.43,0,0,1,14.59,16.16Zm-9.71,0c0-.29.2-.46.48-.45a.39.39,0,0,1,.41.41c0,.31-.13.49-.42.5S4.92,16.46,4.88,16.16Z"/></g></g></svg>