<svg xmlns="http://www.w3.org/2000/svg" viewBox="0 0 25.3 34.88"><defs><style>.cls-1{fill:#5e5e5e;}.cls-2{fill:#71ad42;}</style></defs><g id="Layer_2" data-name="Layer 2"><g id="AW"><path class="cls-1" d="M25.29,30.82c-.12-3-.28-6.09-.42-9.14h0q-.22-4.87-.46-9.75a3.82,3.82,0,0,0-2.66-3.61,5.33,5.33,0,0,0-1.86-.18c-.21,0-.26-.06-.26-.26a11.19,11.19,0,0,0-.13-2.24A7,7,0,0,0,5.88,5.27a9.2,9.2,0,0,0-.2,2.56c0,.26-.07.33-.32.31a7.85,7.85,0,0,0-.84,0A3.78,3.78,0,0,0,.94,11.48c-.07.79-.1,1.59-.13,2.39C.67,16.68.53,19.48.4,22.29S.1,28,0,30.85a3.77,3.77,0,0,0,3.94,4h17.4a4.54,4.54,0,0,0,1-.11A3.76,3.76,0,0,0,25.29,30.82ZM8.34,5.22a4.65,4.65,0,0,1,9,1.7c0,.32,0,.63,0,1s-.06.27-.28.27H8.3c-.25,0-.31-.06-.31-.31A6.6,6.6,0,0,1,8.34,5.22Zm13,27.33H4a1.49,1.49,0,0,1-1.68-1.73c.15-3.39.32-6.77.48-10.16.14-2.76.26-5.51.39-8.27,0-.22,0-.44,0-.65a1.46,1.46,0,0,1,1.48-1.28H20.45A1.48,1.48,0,0,1,22.07,12q.24,4.78.46,9.57h0q.22,4.64.44,9.25A1.49,1.49,0,0,1,21.29,32.55Z"/><path class="cls-1" d="M7.25,14.17A1.16,1.16,0,0,1,6.1,13a1.14,1.14,0,0,1,1.16-1.17,1.16,1.16,0,1,1,0,2.32Z"/><path class="cls-1" d="M19.2,13a1.16,1.16,0,0,1-1.15,1.15A1.18,1.18,0,0,1,16.88,13a1.16,1.16,0,0,1,2.32,0Z"/><path class="cls-2" d="M19.32,19.82a2.44,2.44,0,0,0-.82-1.57,3.19,3.19,0,0,0-2.86-.68,3.7,3.7,0,0,0-2,1.16,6.23,6.23,0,0,0-.56.71l0,0L13,19.31a4.73,4.73,0,0,0-3-1.93,3.14,3.14,0,0,0-1.89.2,3.08,3.08,0,0,0-1.8,2.21A3.48,3.48,0,0,0,7,22.88a6.7,6.7,0,0,0,1.64,1.5c.62.43,1.27.81,1.92,1.21a9.4,9.4,0,0,1,1.69,1.26c.07.06.08.1,0,.18a4,4,0,0,0-.7,1.1,1.78,1.78,0,0,0-.1,1.07.73.73,0,0,0,1.09.49,2.15,2.15,0,0,0,.68-.63,1.73,1.73,0,0,0,.28-1.89.13.13,0,0,1,0-.18c.73-.65,1.51-1.23,2.28-1.83A15.52,15.52,0,0,0,18.14,23a5.25,5.25,0,0,0,1.12-2.11,1.92,1.92,0,0,1,.09-.4v-.59S19.32,19.84,19.32,19.82Zm-6.94,8.84a1.64,1.64,0,0,1,.36-.89A1.11,1.11,0,0,1,12.38,28.66Zm6.06-7.95a4.06,4.06,0,0,1-.87,1.59,12.18,12.18,0,0,1-2,1.93c-.85.69-1.74,1.34-2.58,2.06,0,0-.07.06-.12,0a11.09,11.09,0,0,0-2.41-1.79,16.83,16.83,0,0,1-1.87-1.24A4.4,4.4,0,0,1,7.44,22a2.72,2.72,0,0,1,.23-3,2.29,2.29,0,0,1,1.78-.74A3.68,3.68,0,0,1,12,19.45c.28.3.46.68.71,1a.76.76,0,0,0,.2.2.35.35,0,0,0,.58-.1c.13-.23.24-.47.39-.69a3.34,3.34,0,0,1,1.7-1.35,2.3,2.3,0,0,1,1.95.14A1.83,1.83,0,0,1,18.44,20.71Z"/></g></g></svg>