<svg width="26" height="26" viewBox="0 0 26 26" fill="none" xmlns="http://www.w3.org/2000/svg">
<path d="M20.0446 19.9401V25.0507C20.0446 25.6259 19.3429 25.8964 18.9529 25.4895L12.9294 19.9401H7.85074C6.26739 19.9401 4.97455 18.6473 4.97455 17.0639V5.9943C4.97455 4.41126 6.26739 3.11841 7.85074 3.11841H22.283C23.8664 3.11841 25.1592 4.41095 25.1592 5.9943V17.0639C25.1592 18.6473 23.8664 19.9401 22.283 19.9401H20.0446ZM9.77742 10.0224C10.3772 10.0224 10.8633 10.5085 10.8633 11.1083C10.8633 11.708 10.3772 12.1941 9.77742 12.1941C9.17767 12.1941 8.69155 11.708 8.69155 11.1083C8.69155 10.5085 9.17767 10.0224 9.77742 10.0224ZM20.3563 10.0224C20.9561 10.0224 21.4422 10.5085 21.4422 11.1083C21.4422 11.708 20.9561 12.1941 20.3563 12.1941C19.7566 12.1941 19.2705 11.708 19.2705 11.1083C19.2705 10.5085 19.7566 10.0224 20.3563 10.0224ZM16.83 10.0224C17.4298 10.0224 17.9159 10.5085 17.9159 11.1083C17.9159 11.708 17.4298 12.1941 16.83 12.1941C16.2303 12.1941 15.7442 11.708 15.7442 11.1083C15.7442 10.5085 16.2303 10.0224 16.83 10.0224ZM13.3037 10.0224C13.9035 10.0224 14.3896 10.5085 14.3896 11.1083C14.3896 11.708 13.9035 12.1941 13.3037 12.1941C12.704 12.1941 12.2179 11.708 12.2179 11.1083C12.2179 10.5085 12.704 10.0224 13.3037 10.0224ZM3.71702 15.8691C4.55107 15.8691 4.55107 17.1376 3.71702 17.1376C2.13367 17.1376 0.84082 15.8448 0.84082 14.2614V3.19181C0.84082 1.60876 2.13367 0.315918 3.71702 0.315918H18.1496C18.9836 0.315918 18.9836 1.5842 18.1496 1.5842H3.71702C2.83414 1.5842 2.10941 2.30893 2.10941 3.19181V14.2614C2.10941 15.1443 2.83414 15.8691 3.71702 15.8691ZM18.7764 23.6059V19.3057C18.7764 18.9556 19.0604 18.6716 19.4105 18.6716H22.283C23.1659 18.6716 23.8909 17.9468 23.8909 17.0639V5.9943C23.8909 5.11142 23.1659 4.38669 22.283 4.38669H7.85074C6.96755 4.38669 6.24282 5.11142 6.24282 5.9943V17.0639C6.24282 17.9468 6.96755 18.6716 7.85074 18.6716L13.1751 18.6731C13.3283 18.6731 13.4821 18.7281 13.6037 18.8401L18.7764 23.6059Z" fill="#71AD42"/>
</svg>
