<svg width="18" height="17" viewBox="0 0 18 17" fill="none" xmlns="http://www.w3.org/2000/svg">
<path d="M15.2092 14.2129L18 16.4054V4.81638C18 4.65024 17.934 4.4909 17.8165 4.37342C17.699 4.25594 17.5397 4.18994 17.3736 4.18994H6.09772C5.93157 4.18994 5.77224 4.25594 5.65476 4.37342C5.53728 4.4909 5.47128 4.65024 5.47128 4.81638V13.5865C5.47128 13.7526 5.53728 13.912 5.65476 14.0294C5.77224 14.1469 5.93157 14.2129 6.09772 14.2129H15.2092ZM12.3621 8.57499H14.2414V9.82787H12.3621V11.7072H11.1092V9.82787H9.2299V8.57499H11.1092V6.69569H12.3621V8.57499Z" fill="#33CCB7"/>
<rect width="7.95942" height="7.07504" transform="matrix(-1 0 0 1 15.7168 5.84882)" fill="#33CCB7"/>
<rect width="5.30628" height="0.88438" transform="matrix(-1 0 0 1 14.4631 7.61725)" fill="white"/>
<rect width="3.53752" height="0.88438" transform="matrix(-1 0 0 1 13.5781 9.38574)" fill="white"/>
<path d="M3.34125 11.7H3.2375L3.15591 11.7641L0.3 14.0078V0.75C0.3 0.630653 0.347411 0.516193 0.431802 0.431802C0.516193 0.347411 0.630652 0.3 0.75 0.3H14.25C14.3693 0.3 14.4838 0.347411 14.5682 0.431802C14.6526 0.516192 14.7 0.630652 14.7 0.75V11.25C14.7 11.3693 14.6526 11.4838 14.5682 11.5682C14.4838 11.6526 14.3693 11.7 14.25 11.7H3.34125ZM6.45 3V4.95H4.5H4.2V5.25V6.75V7.05H4.5H6.45V9V9.3H6.75H8.25H8.55V9V7.05H10.5H10.8V6.75V5.25V4.95H10.5H8.55V3V2.7H8.25H6.75H6.45V3Z" fill="#33CCB7" stroke="white" stroke-width="0.6"/>
<rect x="2.73438" y="1.98535" width="9.52941" height="8.47059" fill="#33CCB7"/>
<rect x="4.23535" y="4.10309" width="6.35294" height="1.05882" fill="white"/>
<rect x="5.2937" y="6.22083" width="4.23529" height="1.05882" fill="white"/>
</svg>
