<svg xmlns="http://www.w3.org/2000/svg" viewBox="0 0 72.81 25.89"><defs><style>.cls-1{fill:#781214;}.cls-2{fill:#eb2026;fill-rule:evenodd;}.cls-3{fill:none;stroke:#fff;stroke-miterlimit:10;}</style></defs><g id="Layer_2" data-name="Layer 2"><g id="AW"><g id="surface1"><path class="cls-1" d="M12,11.47a2,2,0,0,0-1.87-1.88c-1.69,0-2.32,1.8-2.32,3.67s.63,3.58,2.32,3.58c1.15,0,1.8-1,1.95-2.39h1.82c-.19,2.66-1.67,4.37-3.77,4.37C7.51,18.82,6,16.35,6,13.26s1.56-5.64,4.21-5.64c1.89,0,3.47,1.37,3.7,3.85"/><path class="cls-1" d="M15.42,18.56H17.3V7.87H15.42Z"/><path class="cls-1" d="M19.22,7.87h2.65l2,7.35h0l1.89-7.35h2.65V18.56H26.68V11h0l-2.1,7.57H23.11L21,11.06h0v7.5H19.22"/><path class="cls-1" d="M32.25,16.74h2a1.24,1.24,0,0,0,1.4-1.41c0-1.09-.56-1.53-1.36-1.53h-2Zm0-4.54h1.91c.66,0,1.15-.37,1.15-1.27S34.68,9.7,34,9.7H32.25ZM30.37,7.87h4c1.63,0,2.73.66,2.73,2.65A2.43,2.43,0,0,1,36,12.75a2.62,2.62,0,0,1,1.57,2.71,2.86,2.86,0,0,1-3,3.1H30.37"/><path class="cls-2" d="M49.07,12.55A43.2,43.2,0,0,1,50.9,8.42a5.19,5.19,0,0,1,1-1.46.66.66,0,0,1,.61-.2.72.72,0,0,1,.32.2c.29.29-.05.83-.19,1.12-.22.45-.47.87-.7,1.32-.56,1.13-1.1,2.28-1.58,3.48-.27.66-.51,1.33-.73,2-.08.27-.61,1.7-.43,1.84s.56-.38.7-.53.37-.41.54-.33c.38.18-.08,1-.19,1.25-.33.66-.78,1.27-1.41,1.29s-1-.49-1-1.21a5.4,5.4,0,0,1,.11-1.33,14.69,14.69,0,0,1,1.2-3.33"/><path class="cls-2" d="M47.32,15.73a.93.93,0,0,1,0,.27c-.16.43-.64.63-.94.88A13.94,13.94,0,0,1,44.78,18c-.93.56-1.77,1.18-3.22.36-1.11-.63-1.31-2.34-.78-4.13a10.8,10.8,0,0,1,2.36-4c1-1.17,2.19-2.28,3-2.39a.94.94,0,0,1,.86.29,2.38,2.38,0,0,1,.16,2.21c-.16.4-.33.67-.68.73s-.65-.06-.58-.57c0-.28.28-.82.13-1.09s-1,.49-1.15.65A10.11,10.11,0,0,0,44,11a9.56,9.56,0,0,0-1.31,2.23,7.87,7.87,0,0,0-.81,3.12,2.42,2.42,0,0,0,.15,1c.4.84,1.41.24,1.94,0a9.57,9.57,0,0,0,1.48-.85c.5-.34,1-.74,1.44-1.1.28-.21.47,0,.47.26"/><path class="cls-2" d="M53.37,8.6c.24.82.5,1.59,1.25,1.84,0-.75-.42-2.22-1.25-1.84"/><path class="cls-2" d="M53.31,13.18a.91.91,0,0,0-.28-.56c-.21-.23-.52-.33-.72,0a3.83,3.83,0,0,0-.3.82c-.15.42-.25.86-.38,1.3A21,21,0,0,0,51,17.56c.15.24.27.52.67.48.37-.93.75-1.86,1.08-2.81.17-.49.33-1,.47-1.5a1.66,1.66,0,0,0,.08-.55"/><path class="cls-2" d="M57.22,15.2l0,.09a2.56,2.56,0,0,1-.33.46c-.42.48-.78,1.05-1.22,1.51a1,1,0,0,1-1.13.35,2.24,2.24,0,0,1-.81-2.31,10.15,10.15,0,0,1,1.78-4.36A1,1,0,0,1,57,11a2.43,2.43,0,0,1,.67,1.39.44.44,0,0,1,0,.25c-.11.12-.34-.08-.47-.22s-.35-.39-.58-.33-.33.29-.44.42a5,5,0,0,0-.47.64,7.06,7.06,0,0,0-.68,1.59c-.09.28-.59,1.54-.08,1.58a.88.88,0,0,0,.46-.16c.17-.07.33-.15.5-.24a6.68,6.68,0,0,0,.76-.46,2.48,2.48,0,0,1,.72-.44s0,.13-.07.21"/><path class="cls-2" d="M62.86,11.63a1,1,0,0,0-.39-.36c-.25-.08-.64.16-.85.31a4.57,4.57,0,0,0-.66.66c-.51.57-1.24,1.24-1.74,1.85a13.22,13.22,0,0,1,.54-1.78c.14-.32.21-.63.36-.93s.35-.71.53-1.05a4.94,4.94,0,0,0,.74-1.71c0-.45-.45-1-.89-.87A38.81,38.81,0,0,0,58.7,12a20.31,20.31,0,0,0-1,3.79l-.06.66a5.09,5.09,0,0,0,0,1.17,1.19,1.19,0,0,0,.39.77c.39.3.42-.49.45-.8a9,9,0,0,1,.22-1.3l-.16.85c.32.28.44.68.82.81.71.23,1.36-.31,1.89-.78.19-.16.83-.56,1-1a.42.42,0,0,0-.09-.54c-.21-.2-.55.23-.74.37a11.79,11.79,0,0,1-1,.71c-.12.06-1.15.43-1.16.46a7.41,7.41,0,0,1,.43-1.43A7.22,7.22,0,0,1,61,13.58c.28-.29.58-.57.87-.84l.45-.41c.14-.12.45-.1.56-.24s0-.33,0-.46"/><path class="cls-2" d="M63.37,13.45a4.28,4.28,0,0,1,.13-.73,5.45,5.45,0,0,1,.2-.69A3.58,3.58,0,0,1,64.34,11a3,3,0,0,1,.88-.69c.29-.14.82-.43,1.13-.29.15.07.66.57.46.84s-.36.19-.59.32c-.69.37-2.22,1.66-2,3a.8.8,0,0,0,.1.23c.48.62,2.38,1.26,1.5,2.58a4.31,4.31,0,0,1-1.57,1.18l-.84.52c-.31.19-.89.75-1.22.31s.25-.66.44-.81l.82-.64a5.45,5.45,0,0,0,1.38-1.65c0-.09-1.25-1.25-1.36-1.46a1.61,1.61,0,0,1-.15-1"/><path class="cls-3" d="M72.31,25.39H.5V.5H72.31Z"/></g></g></g></svg>