<svg width="100" height="100" viewBox="0 0 100 100" fill="none" xmlns="http://www.w3.org/2000/svg">
<circle cx="50" cy="50" r="50" fill="#FFF4F4"/>
<path d="M72.9797 52.0203L47.9797 27.0203C47.6875 26.7266 47.2906 26.5625 46.875 26.5625H28.125C27.2609 26.5625 26.5625 27.2609 26.5625 28.125V46.875C26.5625 47.2906 26.7266 47.6875 27.0203 47.9797L52.0203 72.9797C52.325 73.2844 52.725 73.4375 53.125 73.4375C53.525 73.4375 53.925 73.2844 54.2297 72.9797L72.9797 54.2297C73.5906 53.6188 73.5906 52.6312 72.9797 52.0203ZM53.125 69.6656L29.6875 46.2281V29.6875H46.2281L69.6656 53.125L53.125 69.6656Z" fill="#F05A3D"/>
<path d="M37.5 32.8125C34.9156 32.8125 32.8125 34.9156 32.8125 37.5C32.8125 40.0844 34.9156 42.1875 37.5 42.1875C40.0844 42.1875 42.1875 40.0844 42.1875 37.5C42.1875 34.9156 40.0844 32.8125 37.5 32.8125ZM37.5 39.0625C36.6375 39.0625 35.9375 38.3625 35.9375 37.5C35.9375 36.6375 36.6375 35.9375 37.5 35.9375C38.3625 35.9375 39.0625 36.6375 39.0625 37.5C39.0625 38.3625 38.3625 39.0625 37.5 39.0625Z" fill="#F05A3D"/>
</svg>
