<svg xmlns="http://www.w3.org/2000/svg" viewBox="0 0 35.19 40.69"><defs><style>.cls-1{fill:none;stroke:#5e5e5e;stroke-miterlimit:10;stroke-width:2px;}</style></defs><g id="Layer_2" data-name="Layer 2"><g id="AW"><path class="cls-1" d="M18.59,20.51c0,.8,0,1.6,0,2.4a.94.94,0,0,1-1,1.06.92.92,0,0,1-1-1.06c0-1.6,0-3.2,0-4.8a.84.84,0,0,0-.56-.87,18.58,18.58,0,0,0-7.28-1.79,8.8,8.8,0,0,0-4.08,1c-.34.15-.68.33-1,.5-.57.29-.63.54-.22,1.06l3.68,4.65c.25.32.51.63.75,1a.93.93,0,0,1-.14,1.42.92.92,0,0,1-1.38-.22c-1.65-2.07-3.28-4.14-4.93-6.2A1.85,1.85,0,0,1,1,17.3,16.68,16.68,0,0,1,10,3a15,15,0,0,1,8.19-2A16.49,16.49,0,0,1,29.09,5.86a16.58,16.58,0,0,1,5.1,11.53,1.67,1.67,0,0,1-.38,1.17c-1.63,2-3.25,4.08-4.86,6.13-.26.33-.54.63-1,.57a1,1,0,0,1-.63-1.63c1.23-1.58,2.48-3.15,3.73-4.72.27-.35.55-.68.81-1s.2-.63-.17-.82a11.5,11.5,0,0,0-4.49-1.58,14.93,14.93,0,0,0-4.26.45,18.83,18.83,0,0,0-3.78,1.32.81.81,0,0,0-.56.87c0,.8,0,1.6,0,2.4Z"/><path class="cls-1" d="M24.93,25.75H10.17a.89.89,0,0,0-1,1V38.66a.91.91,0,0,0,1,1H25c.75,0,1.07-.33,1.07-1.08,0-3.93,0-7.85,0-11.78C26,26,25.73,25.75,24.93,25.75ZM19.79,29.5H17.7c-.71,0-1.42,0-2.12,0s-.82-.27-.81-.94.24-.88.82-.88c1.41,0,2.81,0,4.21,0,.61,0,.87.29.87.9S20.43,29.49,19.79,29.5Z"/></g></g></svg>