<svg xmlns="http://www.w3.org/2000/svg" viewBox="0 0 70.87 70.87"><defs><style>.cls-1{fill:#dbeccf;}.cls-2,.cls-6{fill:#1a1a1a;}.cls-2,.cls-3,.cls-4,.cls-5{fill-rule:evenodd;}.cls-3{fill:#414140;}.cls-4{fill:#5b5959;}.cls-5{fill:#747172;}</style></defs><g id="Layer_2" data-name="Layer 2"><g id="AW"><circle class="cls-1" cx="35.43" cy="35.43" r="35.43" transform="translate(-7.29 61.62) rotate(-76.51)"/><path class="cls-2" d="M24.15,35.18H22.68V55.47h1.47a1.44,1.44,0,0,0,1.48-1.4V36.57A1.43,1.43,0,0,0,24.15,35.18Z"/><path class="cls-3" d="M21.73,34.28H20.67a.92.92,0,0,0-1,.9V55.47a.92.92,0,0,0,1,.89h1.06a.93.93,0,0,0,.95-.89V35.18A.93.93,0,0,0,21.73,34.28Z"/><path class="cls-4" d="M19.72,37.13H18a1.63,1.63,0,0,0-1.67,1.58v14.6A1.63,1.63,0,0,0,18,54.89h1.68Z"/><path class="cls-2" d="M19.78,19a18.9,18.9,0,0,1,29,0,1.09,1.09,0,0,0,1.43.23l2.51-1.61A1,1,0,0,0,53,16.19a23.79,23.79,0,0,0-18.7-8.84,23.81,23.81,0,0,0-18.71,8.84.92.92,0,0,0-.19.76.94.94,0,0,0,.45.66l2.51,1.61A1.09,1.09,0,0,0,19.78,19Z"/><path class="cls-3" d="M52.87,17.5c.91,2,1.81,4,2.72,6a.48.48,0,0,1,0,.42.51.51,0,0,1-.34.26l-1.36.34a.56.56,0,0,1-.59-.23c-1.06-1.66-2.11-3.33-3.17-5l2.76-1.78Zm-37.18,0c-.91,2-1.81,4-2.72,6a.48.48,0,0,0,0,.42.53.53,0,0,0,.35.26l1.36.34a.56.56,0,0,0,.59-.23l3.18-5Z"/><path class="cls-3" d="M16.34,38.36l-1.48-4.93a.51.51,0,0,0-.36-.34.54.54,0,0,0-.49.1l-1.22,1a.48.48,0,0,0-.18.45Q13.84,42,15.06,49.29a.52.52,0,0,0,.52.42h.24a.52.52,0,0,0,.53-.5c0-3.57,0-7.15,0-10.72a.27.27,0,0,0,0-.13Zm35.83,0c.5-1.64,1-3.29,1.49-4.93a.52.52,0,0,1,.35-.34.56.56,0,0,1,.5.1l1.22,1a.47.47,0,0,1,.17.45Q54.69,42,53.45,49.29a.52.52,0,0,1-.52.42h-.24a.51.51,0,0,1-.52-.5c0-3.57,0-7.15,0-10.72A.51.51,0,0,1,52.17,38.36Z"/><path class="cls-5" d="M14.34,33.14A18.56,18.56,0,0,1,14,29.39a18.34,18.34,0,0,1,.65-4.83l-1.24-.3a19.39,19.39,0,0,0-.15,9.67l.81-.67A.66.66,0,0,1,14.34,33.14Z"/><path class="cls-5" d="M54.19,33.07a17.87,17.87,0,0,0,.39-3.75,18.34,18.34,0,0,0-.65-4.83l1.24-.3a19.55,19.55,0,0,1,.16,9.67l-.82-.67A.6.6,0,0,0,54.19,33.07Z"/><path class="cls-2" d="M44.37,35.18h1.48V55.47H44.37a1.45,1.45,0,0,1-1.48-1.4V36.57A1.44,1.44,0,0,1,44.37,35.18Z"/><path class="cls-3" d="M46.8,34.28h1.06a.93.93,0,0,1,1,.9V55.47a.93.93,0,0,1-1,.89H46.8a.93.93,0,0,1-.95-.89V35.18A.93.93,0,0,1,46.8,34.28Z"/><path class="cls-4" d="M48.81,37.13h1.68a1.63,1.63,0,0,1,1.67,1.58v14.6a1.63,1.63,0,0,1-1.67,1.58H48.81Z"/><path class="cls-5" d="M52.16,50.34h.7a.68.68,0,0,1,.69.66v1.17a.67.67,0,0,1-.69.65h-.7Z"/><path class="cls-4" d="M53.53,52.31a17,17,0,0,1,1.74,3.22c.25.82,0,1.27-.8,1.81a13.84,13.84,0,0,1-4.53,1.73,68.44,68.44,0,0,1-8.48,1.26c-2.71.24-4.76.24-6.81.24v.84c2,0,4,0,5.86-.09a56.19,56.19,0,0,0,5.62-.59A42.7,42.7,0,0,0,52,59.5a9.42,9.42,0,0,0,3.52-1.81,2.14,2.14,0,0,0,.77-1.88,5.45,5.45,0,0,0-.86-2.12c-.49-.83-1.17-1.84-1.86-2.85Z"/><rect class="cls-6" x="33.94" y="60.19" width="0.71" height="1.59"/><path class="cls-3" d="M28.62,58H31.4a2.48,2.48,0,0,1,2.54,2.4v1.14A2.48,2.48,0,0,1,31.4,64H28.62a2.48,2.48,0,0,1-2.54-2.4V60.42A2.48,2.48,0,0,1,28.62,58Z"/></g></g></svg>