<svg width="81" height="24" viewBox="0 0 81 24" fill="none" xmlns="http://www.w3.org/2000/svg">
<path d="M7.64258 23.293C6.53906 23.293 5.53809 23.1074 4.63965 22.7363C3.75098 22.3555 2.98438 21.8232 2.33984 21.1396C1.70508 20.4561 1.2168 19.6455 0.875 18.708C0.533203 17.7705 0.362305 16.7451 0.362305 15.6318V15.0166C0.362305 13.7275 0.552734 12.5801 0.933594 11.5742C1.31445 10.5586 1.83203 9.69922 2.48633 8.99609C3.14062 8.29297 3.88281 7.76074 4.71289 7.39941C5.54297 7.03809 6.40234 6.85742 7.29102 6.85742C8.42383 6.85742 9.40039 7.05273 10.2207 7.44336C11.0508 7.83398 11.7295 8.38086 12.2568 9.08398C12.7842 9.77734 13.1748 10.5977 13.4287 11.5449C13.6826 12.4824 13.8096 13.5078 13.8096 14.6211V15.8369H1.97363V13.625H11.0996V13.4199C11.0605 12.7168 10.9141 12.0332 10.6602 11.3691C10.416 10.7051 10.0254 10.1582 9.48828 9.72852C8.95117 9.29883 8.21875 9.08398 7.29102 9.08398C6.67578 9.08398 6.10938 9.21582 5.5918 9.47949C5.07422 9.7334 4.62988 10.1143 4.25879 10.6221C3.8877 11.1299 3.59961 11.75 3.39453 12.4824C3.18945 13.2148 3.08691 14.0596 3.08691 15.0166V15.6318C3.08691 16.3838 3.18945 17.0918 3.39453 17.7559C3.60938 18.4102 3.91699 18.9863 4.31738 19.4844C4.72754 19.9824 5.2207 20.373 5.79688 20.6562C6.38281 20.9395 7.04688 21.0811 7.78906 21.0811C8.74609 21.0811 9.55664 20.8857 10.2207 20.4951C10.8848 20.1045 11.4658 19.582 11.9639 18.9277L13.6045 20.2314C13.2627 20.749 12.8281 21.2422 12.3008 21.7109C11.7734 22.1797 11.124 22.5605 10.3525 22.8535C9.59082 23.1465 8.6875 23.293 7.64258 23.293ZM41.0984 21.0664C41.743 21.0664 42.3387 20.9346 42.8855 20.6709C43.4324 20.4072 43.8816 20.0459 44.2332 19.5869C44.5848 19.1182 44.785 18.5859 44.8338 17.9902H47.4119C47.3631 18.9277 47.0457 19.8018 46.4598 20.6123C45.8836 21.4131 45.1268 22.0625 44.1893 22.5605C43.2518 23.0488 42.2215 23.293 41.0984 23.293C39.907 23.293 38.867 23.083 37.9783 22.6631C37.0994 22.2432 36.367 21.667 35.7811 20.9346C35.2049 20.2021 34.7703 19.3623 34.4773 18.415C34.1941 17.458 34.0525 16.4473 34.0525 15.3828V14.7676C34.0525 13.7031 34.1941 12.6973 34.4773 11.75C34.7703 10.793 35.2049 9.94824 35.7811 9.21582C36.367 8.4834 37.0994 7.90723 37.9783 7.4873C38.867 7.06738 39.907 6.85742 41.0984 6.85742C42.3387 6.85742 43.4227 7.11133 44.3504 7.61914C45.2781 8.11719 46.0057 8.80078 46.533 9.66992C47.0701 10.5293 47.3631 11.5059 47.4119 12.5996H44.8338C44.785 11.9453 44.5994 11.3545 44.2771 10.8271C43.9646 10.2998 43.535 9.87988 42.9881 9.56738C42.451 9.24512 41.8211 9.08398 41.0984 9.08398C40.2684 9.08398 39.5701 9.25 39.0037 9.58203C38.4471 9.9043 38.0027 10.3438 37.6707 10.9004C37.3484 11.4473 37.1141 12.0576 36.9676 12.7314C36.8309 13.3955 36.7625 14.0742 36.7625 14.7676V15.3828C36.7625 16.0762 36.8309 16.7598 36.9676 17.4336C37.1043 18.1074 37.3338 18.7178 37.6561 19.2646C37.9881 19.8115 38.4324 20.251 38.9891 20.583C39.5555 20.9053 40.2586 21.0664 41.0984 21.0664ZM53.7687 0.5V23H51.0588V0.5H53.7687ZM53.1242 14.4746L51.9963 14.4307C52.0061 13.3467 52.1672 12.3457 52.4797 11.4277C52.7922 10.5 53.2316 9.69434 53.798 9.01074C54.3645 8.32715 55.0383 7.7998 55.8195 7.42871C56.6105 7.04785 57.4846 6.85742 58.4416 6.85742C59.2229 6.85742 59.926 6.96484 60.551 7.17969C61.176 7.38477 61.7082 7.7168 62.1477 8.17578C62.5969 8.63477 62.9387 9.23047 63.173 9.96289C63.4074 10.6855 63.5246 11.5693 63.5246 12.6143V23H60.8V12.585C60.8 11.7549 60.6779 11.0908 60.4338 10.5928C60.1896 10.085 59.8332 9.71875 59.3645 9.49414C58.8957 9.25977 58.3195 9.14258 57.6359 9.14258C56.9621 9.14258 56.3469 9.28418 55.7902 9.56738C55.2434 9.85059 54.7697 10.2412 54.3693 10.7393C53.9787 11.2373 53.6711 11.8086 53.4465 12.4531C53.2316 13.0879 53.1242 13.7617 53.1242 14.4746ZM74.7594 23.293C73.6559 23.293 72.6549 23.1074 71.7564 22.7363C70.8678 22.3555 70.1012 21.8232 69.4566 21.1396C68.8219 20.4561 68.3336 19.6455 67.9918 18.708C67.65 17.7705 67.4791 16.7451 67.4791 15.6318V15.0166C67.4791 13.7275 67.6695 12.5801 68.0504 11.5742C68.4313 10.5586 68.9488 9.69922 69.6031 8.99609C70.2574 8.29297 70.9996 7.76074 71.8297 7.39941C72.6598 7.03809 73.5191 6.85742 74.4078 6.85742C75.5406 6.85742 76.5172 7.05273 77.3375 7.44336C78.1676 7.83398 78.8463 8.38086 79.3736 9.08398C79.901 9.77734 80.2916 10.5977 80.5455 11.5449C80.7994 12.4824 80.9264 13.5078 80.9264 14.6211V15.8369H69.0904V13.625H78.2164V13.4199C78.1773 12.7168 78.0309 12.0332 77.777 11.3691C77.5328 10.7051 77.1422 10.1582 76.6051 9.72852C76.068 9.29883 75.3355 9.08398 74.4078 9.08398C73.7926 9.08398 73.2262 9.21582 72.7086 9.47949C72.191 9.7334 71.7467 10.1143 71.3756 10.6221C71.0045 11.1299 70.7164 11.75 70.5113 12.4824C70.3063 13.2148 70.2037 14.0596 70.2037 15.0166V15.6318C70.2037 16.3838 70.3063 17.0918 70.5113 17.7559C70.7262 18.4102 71.0338 18.9863 71.4342 19.4844C71.8443 19.9824 72.3375 20.373 72.9137 20.6562C73.4996 20.9395 74.1637 21.0811 74.9059 21.0811C75.8629 21.0811 76.6734 20.8857 77.3375 20.4951C78.0016 20.1045 78.5826 19.582 79.0807 18.9277L80.7213 20.2314C80.3795 20.749 79.9449 21.2422 79.4176 21.7109C78.8902 22.1797 78.2408 22.5605 77.4693 22.8535C76.7076 23.1465 75.8043 23.293 74.7594 23.293Z" fill="#737786"/>
<path d="M20.2836 10.5342V23H17.5736V7.15039H20.1371L20.2836 10.5342ZM19.6391 14.4746L18.5111 14.4307C18.5209 13.3467 18.682 12.3457 18.9945 11.4277C19.307 10.5 19.7465 9.69434 20.3129 9.01074C20.8793 8.32715 21.5531 7.7998 22.3344 7.42871C23.1254 7.04785 23.9994 6.85742 24.9564 6.85742C25.7377 6.85742 26.4408 6.96484 27.0658 7.17969C27.6908 7.38477 28.223 7.7168 28.6625 8.17578C29.1117 8.63477 29.4535 9.23047 29.6879 9.96289C29.9223 10.6855 30.0395 11.5693 30.0395 12.6143V23H27.3148V12.585C27.3148 11.7549 27.1928 11.0908 26.9486 10.5928C26.7045 10.085 26.348 9.71875 25.8793 9.49414C25.4105 9.25977 24.8344 9.14258 24.1508 9.14258C23.477 9.14258 22.8617 9.28418 22.3051 9.56738C21.7582 9.85059 21.2846 10.2412 20.8842 10.7393C20.4936 11.2373 20.1859 11.8086 19.9613 12.4531C19.7465 13.0879 19.6391 13.7617 19.6391 14.4746Z" fill="#71AD42"/>
</svg>
