<svg xmlns="http://www.w3.org/2000/svg" viewBox="0 0 35.13 36.34"><defs><style>.cls-1{fill:#5e5e5e;}</style></defs><g id="Layer_2" data-name="Layer 2"><g id="AW"><path class="cls-1" d="M31.8,6.06l3.09-4.12A1.22,1.22,0,0,0,35,.67,1.23,1.23,0,0,0,33.92,0H20.59a1.21,1.21,0,0,0-1.21,1.21V12.12H13.29A6.06,6.06,0,1,0,4,12.48c-2.46,2-3.57,4.63-4,9.33,0,2,0,4.32,2.63,4.76l1,5.22c.69,2.77,2.58,4.55,4.81,4.55s4.12-1.78,4.82-4.6l1.19-6a20.12,20.12,0,0,0,1.2-5.39l3.69-.74V35.13a1.22,1.22,0,0,0,2.43,0V19.38a1.16,1.16,0,0,0,0-.18,3.53,3.53,0,0,0,2.46-3.45,3.54,3.54,0,0,0-2.42-3.44v-.2H33.92a1.2,1.2,0,0,0,1-1.93Zm-10,3.63V2.42H31.5L29.32,5.33a1.19,1.19,0,0,0,0,1.45L31.5,9.69ZM8.48,4.85A3.63,3.63,0,1,1,4.85,8.48,3.64,3.64,0,0,1,8.48,4.85ZM20.59,17l-.23,0-5.94,1.19a1.31,1.31,0,0,0-.27.06,1.2,1.2,0,0,0-.83,1.12A17.23,17.23,0,0,1,12.19,25a1.33,1.33,0,0,0,0,.19l-1.2,6c-.41,1.66-1.38,2.72-2.46,2.72S6.43,32.86,6,31.26L4.82,25.2a1.21,1.21,0,0,0-1.19-1c-1.21,0-1.21,0-1.21-2.32.38-4.56,1.45-6.26,3.18-7.64a1.1,1.1,0,0,0,.21-.22l.09-.11a5,5,0,0,0,.76.29l1,1.52-1.61,4L8.48,23l2.42-3.23-1.61-4,1-1.52a5,5,0,0,0,.76-.29l.09.11a1.1,1.1,0,0,0,.21.22c.37.3.37.3,9.24.27a1.21,1.21,0,1,1,0,2.42Z"/></g></g></svg>