<svg xmlns="http://www.w3.org/2000/svg" viewBox="0 0 44.76 44.75"><defs><style>.cls-1{fill:#5e5e5e;}</style></defs><g id="Layer_2" data-name="Layer 2"><g id="AW"><path class="cls-1" d="M15.58,19.7C17,20.55,19.71,21,22.38,21s5.34-.42,6.81-1.27a2.76,2.76,0,0,0,1.58-2.51c-.41-4.77-1.66-6-3.84-7.65l-.35-.28a5.59,5.59,0,1,0-8.4,0l-.35.28c-2.18,1.69-3.43,2.88-3.84,7.77A2.73,2.73,0,0,0,15.58,19.7ZM28,17.17a6.81,6.81,0,0,1-2.85.84l-1.95-5.19,1.17-1.76.88.69C26.87,13,27.64,13.63,28,17.17ZM22.38,2.8a2.8,2.8,0,1,1-2.8,2.8A2.8,2.8,0,0,1,22.38,2.8Zm-2.83,9,.88-.69,1.17,1.76-2,5.19a6.67,6.67,0,0,1-2.85-.84C17.14,13.62,17.91,13,19.55,11.75Z"/><path class="cls-1" d="M12.94,33.32,12.59,33A5.58,5.58,0,1,0,2.8,29.37,5.55,5.55,0,0,0,4.2,33l-.36.28C1.67,35,.41,36.2,0,41.09a2.76,2.76,0,0,0,1.59,2.39c1.46.85,4.13,1.27,6.8,1.27s5.35-.42,6.81-1.27A2.75,2.75,0,0,0,16.78,41C16.37,36.2,15.12,35,12.94,33.32ZM8.39,26.58A2.8,2.8,0,1,1,5.6,29.37,2.79,2.79,0,0,1,8.39,26.58Zm-2.83,9,.88-.69L7.62,36.6l-2,5.19A6.92,6.92,0,0,1,2.82,41C3.15,37.4,3.92,36.8,5.56,35.53Zm5.56,6.26L9.17,36.6l1.18-1.76.88.68C12.88,36.81,13.65,37.41,14,41A6.93,6.93,0,0,1,11.12,41.79Z"/><path class="cls-1" d="M40.92,33.32,40.56,33a5.6,5.6,0,1,0-8.39,0l-.35.28C29.64,35,28.39,36.2,28,41.09a2.74,2.74,0,0,0,1.58,2.39c1.47.85,4.14,1.27,6.81,1.27s5.34-.42,6.8-1.27A2.77,2.77,0,0,0,44.76,41C44.35,36.2,43.1,35,40.92,33.32Zm-4.55-6.74a2.8,2.8,0,1,1-2.8,2.79A2.8,2.8,0,0,1,36.37,26.58Zm-2.83,9,.88-.69,1.17,1.76-2,5.19A6.92,6.92,0,0,1,30.79,41C31.13,37.4,31.9,36.8,33.54,35.53Zm5.56,6.26-2-5.19,1.17-1.76.88.68C40.86,36.81,41.63,37.41,42,41A6.87,6.87,0,0,1,39.1,41.79Z"/><path class="cls-1" d="M29.37,29.37A1.39,1.39,0,0,0,28,28h-4.2v-4.2a1.4,1.4,0,1,0-2.8,0V28H16.79a1.4,1.4,0,1,0,0,2.79H28A1.39,1.39,0,0,0,29.37,29.37Z"/></g></g></svg>