<svg xmlns="http://www.w3.org/2000/svg" viewBox="0 0 70.87 70.87"><defs><style>.cls-1{fill:#dbeccf;}.cls-2{fill:#515050;}.cls-3{fill:#868683;}</style></defs><g id="Layer_2" data-name="Layer 2"><g id="AW"><circle class="cls-1" cx="35.43" cy="35.43" r="35.43" transform="translate(-7.29 61.62) rotate(-76.51)"/><polygon class="cls-2" points="60.34 38.52 58.82 39.45 58.82 50.28 60.34 51.21 70.76 57.55 70.76 32.17 60.34 38.52"/><path class="cls-3" d="M58.82,56.67A2.63,2.63,0,0,1,56,59.11H15.28a2.63,2.63,0,0,1-2.77-2.44V33.06a2.63,2.63,0,0,1,2.77-2.44H56a2.63,2.63,0,0,1,2.78,2.44Z"/><path class="cls-3" d="M56,18.83c0,4.48-4.13,8.1-9.22,8.1s-9.22-3.62-9.22-8.1,4.13-8.1,9.22-8.1S56,14.36,56,18.83Z"/><path class="cls-2" d="M46.75,7c-7.41,0-13.42,5.28-13.42,11.79s6,11.79,13.42,11.79,13.42-5.28,13.42-11.79S54.16,7,46.75,7Zm-7.43,15a3.47,3.47,0,0,1-3.67-3.23,3.46,3.46,0,0,1,3.67-3.22A3.47,3.47,0,0,1,43,18.85,3.48,3.48,0,0,1,39.32,22.08Zm7.41-13A3.48,3.48,0,0,1,50.4,12.3a3.7,3.7,0,0,1-7.34,0A3.47,3.47,0,0,1,46.73,9.07Zm0,19.52a3.47,3.47,0,0,1-3.66-3.23,3.7,3.7,0,0,1,7.33,0A3.47,3.47,0,0,1,46.77,28.59ZM54.18,22a3.47,3.47,0,0,1-3.67-3.22,3.7,3.7,0,0,1,7.34,0A3.46,3.46,0,0,1,54.18,22Z"/><ellipse class="cls-3" cx="22.24" cy="20.88" rx="7.05" ry="6.19"/><path class="cls-2" d="M22.24,11.13c-6.12,0-11.09,4.37-11.09,9.75s5,9.74,11.09,9.74,11.09-4.36,11.09-9.74S28.37,11.13,22.24,11.13ZM16.1,23.56a2.86,2.86,0,0,1-3-2.66,2.87,2.87,0,0,1,3-2.67,2.86,2.86,0,0,1,3,2.67A2.86,2.86,0,0,1,16.1,23.56Zm6.12-10.74a2.87,2.87,0,0,1,3,2.66,2.88,2.88,0,0,1-3,2.67,2.87,2.87,0,0,1-3-2.67A2.86,2.86,0,0,1,22.22,12.82Zm0,16.12a2.86,2.86,0,0,1-3-2.66,2.87,2.87,0,0,1,3-2.67,2.86,2.86,0,0,1,3,2.67A2.86,2.86,0,0,1,22.26,28.94Zm6.12-5.41a2.87,2.87,0,0,1-3-2.67,2.86,2.86,0,0,1,3-2.66,2.87,2.87,0,0,1,3,2.66A2.88,2.88,0,0,1,28.38,23.53Z"/><rect class="cls-2" x="18.05" y="36.59" width="15.28" height="17.6"/><rect class="cls-2" x="39.11" y="40.3" width="15.28" height="10.18"/></g></g></svg>