<svg xmlns="http://www.w3.org/2000/svg" viewBox="0 0 76.08 70.87"><defs><style>.cls-1{fill:#dbeccf;}.cls-2{fill:#71706f;}.cls-3{fill:#838586;}.cls-4{fill:#0c1415;}.cls-5{opacity:0.1;}.cls-6{fill:#fff;opacity:0.3;}</style></defs><g id="Layer_2" data-name="Layer 2"><g id="AW"><circle class="cls-1" cx="35.43" cy="35.43" r="35.43" transform="translate(-5.27 64.66) rotate(-80.68)"/><path class="cls-2" d="M17.93,38.43a.71.71,0,0,1,0,.14,2.43,2.43,0,0,1,0,.36,1.65,1.65,0,0,1,0,.21c0,.07,0,.15-.05.23a.59.59,0,0,1,0,.13.56.56,0,0,1,0,.12,1.12,1.12,0,0,1-.08.26A3.23,3.23,0,0,1,17.08,41a2.72,2.72,0,0,1-.24.24.67.67,0,0,1-.14.11l-.15.11-.24.13-.49.14h-.07a3.58,3.58,0,0,0,.67-1.12,2.47,2.47,0,0,0,.1-.29c0-.1.06-.19.08-.28l0-.17a.29.29,0,0,0,0-.09,2,2,0,0,0,0-.24,3.32,3.32,0,0,0,0-.41c0-.06,0-.12,0-.17v-.37h0a2.25,2.25,0,0,0,0-.25,1.89,1.89,0,0,0,0-.3,4,4,0,0,0-.08-.4c0-.08,0-.15-.05-.24s-.05-.16-.08-.25-.06-.18-.1-.27-.07-.19-.12-.28a3.91,3.91,0,0,0-.6-.94,2.2,2.2,0,0,0-.2-.23,2.61,2.61,0,0,0-.3-.27A1,1,0,0,0,15,35l-.18-.12-.18-.1-.2-.09-.17-.06.1,0h0l.51-.15.1,0h.28l.21,0h.09l.09,0a2.06,2.06,0,0,1,.35.12l.17.09.15.09.15.11a.69.69,0,0,1,.13.11,2.83,2.83,0,0,1,.25.24,3.55,3.55,0,0,1,.35.44,5.14,5.14,0,0,1,.32.61,2.77,2.77,0,0,1,.1.26,2.25,2.25,0,0,1,.08.24l.06.22c0,.08,0,.15,0,.21s0,.26.06.36,0,.2,0,.27,0,.18,0,.21a2.17,2.17,0,0,1,0,.24S17.93,38.38,17.93,38.43Z"/><path class="cls-2" d="M16.2,38.94v.15a2.24,2.24,0,0,1,0,.35c0,.05,0,.1,0,.15a.2.2,0,0,1,0,.07,2.23,2.23,0,0,1,0,.23c0,.08,0,.16-.06.25a1.53,1.53,0,0,1-.08.26,3.33,3.33,0,0,1-.61,1.09,1.89,1.89,0,0,1-.2.2l-.05,0a.49.49,0,0,1-.14.11l-.14.11,0,0-.27.13-.38.12-.2,0h-.19a1.49,1.49,0,0,1-.21,0l-.19,0a2.41,2.41,0,0,1-.78-.33,3.6,3.6,0,0,1-1.18-1.4,1.17,1.17,0,0,0-.05-.11l-.05-.11L11.2,40c0-.16-.1-.31-.14-.47a5.11,5.11,0,0,1-.07-2l0-.12,0-.12.06-.24a3.39,3.39,0,0,1,.15-.45,3.61,3.61,0,0,1,.48-.81,1.22,1.22,0,0,1,.15-.17l.16-.16a2.78,2.78,0,0,1,.34-.26,1.93,1.93,0,0,1,.38-.19l.07,0h0L13,35h0l.14,0,.1,0h.34l.15,0h.1l.09,0a2.3,2.3,0,0,1,.34.12l.16.09a.83.83,0,0,1,.16.09l.15.1.13.12a2.73,2.73,0,0,1,.25.23,3.85,3.85,0,0,1,.67,1.05c0,.09.06.18.09.26a.75.75,0,0,1,.08.24c0,.08.05.15.07.22s0,.15,0,.21a3.35,3.35,0,0,1,.06.36.77.77,0,0,1,0,.15s0,.08,0,.12l0,.22s0,.1,0,.22Z"/><path class="cls-3" d="M19.85,50.13l.14-.08.14-.09.27-.18.26-.2.13-.09.12-.11.25-.2.23-.22c.16-.14.29-.3.44-.45a11.45,11.45,0,0,0,1.41-1.93,13.42,13.42,0,0,0,.92-2c.06-.16.12-.32.17-.48l.15-.47c.08-.31.17-.61.23-.9s.12-.57.17-.84.09-.53.12-.78a18.12,18.12,0,0,0,.12-2.3c0-.13,0-.25,0-.36s0-.19,0-.26,0-.18,0-.2,0-.07,0-.21,0-.34,0-.61,0-.28-.05-.44-.05-.34-.07-.53c-.06-.38-.13-.82-.24-1.3-.05-.25-.12-.5-.18-.76s-.08-.27-.11-.41l-.06-.21a1.72,1.72,0,0,1-.07-.21,16.28,16.28,0,0,0-.69-1.79A13.41,13.41,0,0,0,21,27.76a8.35,8.35,0,0,0-.92-.86,10,10,0,0,0-1.05-.76,8.27,8.27,0,0,0-1.18-.62,7.31,7.31,0,0,0-1.3-.42L16.25,25l-.17,0-.17,0-.35,0-.36,0h-.09s-.06,0-.08,0h-.54l-.36,0-.36.05-.51.11-.16,0a5.56,5.56,0,0,0-.75.26,7.45,7.45,0,0,0-1.34.7,9.44,9.44,0,0,0-1.23,1,10.36,10.36,0,0,0-1.08,1.2,12.83,12.83,0,0,0-1.63,2.9,14.53,14.53,0,0,0-.55,1.61,16,16,0,0,0-.35,1.7A17.45,17.45,0,0,0,6,38a18.87,18.87,0,0,0,.48,3.44c.07.28.14.56.23.84s.17.54.27.81a14.56,14.56,0,0,0,.65,1.58l.1.19.09.19.2.37c.14.25.27.49.43.73a11.64,11.64,0,0,0,1,1.34,11.2,11.2,0,0,0,2.33,2.19,9.42,9.42,0,0,0,1.35.75,7.88,7.88,0,0,0,1.41.5l.35.08.36.06.18,0,.18,0,.25,0h.47c.11,0,.24,0,.35,0a5.35,5.35,0,0,0,.7-.07l2.3-.78Zm-1.4-11.54a2.1,2.1,0,0,1,0,.41l0,.24c0,.09,0,.17-.06.27a2.76,2.76,0,0,1-.08.27,1.18,1.18,0,0,1-.1.3,3.74,3.74,0,0,1-.75,1.22,3.85,3.85,0,0,1-.3.27,1,1,0,0,1-.17.12,1.13,1.13,0,0,1-.18.12,2,2,0,0,1-.33.15h0c-.09,0-.19.06-.28.09h0l-1.45.43h0l-.26.07h0l-.21,0-.22,0h-.45l-.24-.05a2.67,2.67,0,0,1-.87-.41,3.31,3.31,0,0,1-.72-.68,1.49,1.49,0,0,1-.15-.2l-.14-.21-.13-.22-.12-.23a.61.61,0,0,1-.05-.12L11,40.36l-.1-.24a4.1,4.1,0,0,1-.14-.5,5,5,0,0,1-.15-1V38.2a.53.53,0,0,0,0-.13l0-.27a2.34,2.34,0,0,1,0-.26v-.13l0-.13.06-.25a4.16,4.16,0,0,1,.16-.5,4.4,4.4,0,0,1,.5-.9c0-.06.1-.14.16-.2l.17-.18a2.79,2.79,0,0,1,.39-.31,3.09,3.09,0,0,1,.43-.24l.15-.05h0l.08,0,.12,0,1.67-.51h0l.16,0,.12,0h.36l.2,0h.11l.12,0a2.83,2.83,0,0,1,.44.13l.19.09a1.18,1.18,0,0,1,.19.11l.17.11.17.12a3.84,3.84,0,0,1,.29.27A4.19,4.19,0,0,1,18,36.05l.12.28c0,.1.07.19.09.27s.06.18.08.26l.06.23c0,.15.05.29.07.4s0,.22,0,.3,0,.25,0,.25h0v.37A1,1,0,0,1,18.45,38.59Z"/><path class="cls-3" d="M57.64,28.64a14.39,14.39,0,0,1-.14,2.11c0,.22-.07.46-.11.71s-.1.5-.17.77-.14.54-.22.82-.09.28-.14.43-.11.28-.16.43a7.44,7.44,0,0,1-.31.72,10.5,10.5,0,0,1-1.86,2.8,5.08,5.08,0,0,1-.41.39l-.21.2-.22.18-.11.09-.12.08-.24.17L53,38.7l-.12.08-.13.07a8.82,8.82,0,0,1-.93.45c-1.08.44-2.2.74-3.29,1.11L47,40.94l-2.29.78-2.84,1-3.21,1.09-3.39,1.16-3.37,1.15-3.19,1.09-2.8,1-2.23.76-1.48.51-.53.18.16-.14c.17-.15.32-.31.47-.47a11.32,11.32,0,0,0,1.53-2,13.27,13.27,0,0,0,.81-1.59l.2-.48c.06-.18.13-.34.18-.51s.11-.33.16-.49c.1-.32.19-.64.26-.94s.13-.61.19-.89.1-.55.13-.81a16.18,16.18,0,0,0,.16-2.42c0-.15,0-.27,0-.37s0-.19,0-.26V38h0s0-.08,0-.22,0-.36-.05-.64a17.65,17.65,0,0,0-.37-2.38c-.06-.26-.13-.52-.2-.8l-.12-.42L25,33.29,25,33.07a14.7,14.7,0,0,0-.75-1.88,14.2,14.2,0,0,0-2.7-4,13.1,13.1,0,0,0-1.1-1,10.36,10.36,0,0,0-1-.7,8.56,8.56,0,0,0-2.67-1.07l-.37-.07-.19,0h0L44.24,17l2.2-.58.83-.22.32,0,.32,0,.32,0h.64l.31,0,.15,0,.15,0,.31.06a7.91,7.91,0,0,1,1.17.36,7.65,7.65,0,0,1,1.07.54,7.74,7.74,0,0,1,.67.44,10.18,10.18,0,0,1,1.15,1A12.25,12.25,0,0,1,56.19,22a13.91,13.91,0,0,1,.65,1.64,1.46,1.46,0,0,0,.07.19L57,24c0,.13.08.25.11.37s.13.48.17.7a15.27,15.27,0,0,1,.33,2.09c0,.25,0,.43,0,.56a1.31,1.31,0,0,0,0,.19v.19c0,.07,0,.15,0,.24S57.65,28.52,57.64,28.64Z"/><path class="cls-2" d="M74.85,44.8,48.65,58.08,24.29,52.92l-6.56-1.39a7.3,7.3,0,0,0,1.07-.28L50.3,40.4l4.12.74Z"/><path class="cls-4" d="M51.28,40.06l.52-.18a7.74,7.74,0,0,0,1.18-.5l.15-.08.13-.08.27-.17.26-.17.13-.09.12-.1.24-.19.23-.2c.16-.13.3-.28.44-.41a11.24,11.24,0,0,0,2.37-3.7c.06-.16.13-.31.18-.46s.1-.3.16-.45c.09-.3.18-.59.24-.87s.13-.55.19-.81.1-.5.13-.74a17.33,17.33,0,0,0,.18-2.23v-.78h0s0-.07,0-.2,0-.33,0-.59,0-.27,0-.43,0-.33-.07-.51q-.07-.55-.24-1.26c-.05-.24-.12-.48-.19-.73l-.12-.39-.06-.2c0-.07,0-.14-.07-.21a14.64,14.64,0,0,0-.71-1.72A13.12,13.12,0,0,0,54.31,18a9.25,9.25,0,0,0-2-1.52,8,8,0,0,0-2.45-.93l-.33-.05-.17,0-.17,0-.34,0h-.68l-.35,0-.34,0-.35.07a2.37,2.37,0,0,0-.36.09l-33.67,8.9h0a8,8,0,0,0-.94.32,8.68,8.68,0,0,0-1.43.78,9.78,9.78,0,0,0-1.28,1.05A10.41,10.41,0,0,0,8.34,28a12.74,12.74,0,0,0-1.67,3,17.18,17.18,0,0,0-1.1,7l0,.45c0,.15,0,.3,0,.45l.05.44c0,.15,0,.3,0,.44,0,.3.1.59.15.88S6,41,6,41.1s.06.29.1.43.14.58.23.86.18.56.27.84a15.32,15.32,0,0,0,.67,1.62,13.22,13.22,0,0,0,4.22,5.2,10.44,10.44,0,0,0,1.4.82,9.07,9.07,0,0,0,1.48.54l.38.09.38.07,33.54,7.09,27.43-14ZM44.24,17l2.2-.58.83-.22.32,0,.32,0,.32,0h.64l.31,0,.15,0,.15,0,.31.06a7.91,7.91,0,0,1,1.17.36,7.65,7.65,0,0,1,1.07.54,9,9,0,0,1,1.82,1.44A12.25,12.25,0,0,1,56.19,22a13.91,13.91,0,0,1,.65,1.64,1.46,1.46,0,0,0,.07.19L57,24c0,.13.08.25.11.37s.13.48.17.7a15.27,15.27,0,0,1,.33,2.09c0,.25,0,.43,0,.56a1.31,1.31,0,0,0,0,.19v.19c0,.07,0,.15,0,.24s0,.21,0,.33a14.39,14.39,0,0,1-.14,2.11c0,.22-.07.46-.11.71s-.1.5-.17.77-.14.54-.22.82-.09.28-.14.43-.11.28-.16.43a10.89,10.89,0,0,1-2.17,3.52,5.08,5.08,0,0,1-.41.39l-.21.2-.22.18-.11.09-.12.08-.24.17L53,38.7l-.12.08-.13.07a8.6,8.6,0,0,1-1.21.51c-1,.41-2,.71-3,1.06L46.9,41l-2.3.78-2.84,1L38.55,43.8,35.18,45,31.81,46.1l-3.17,1.09-2.79,1-2.23.76-1.47.5-.53.18.16-.14c.17-.15.32-.31.47-.47a11.32,11.32,0,0,0,1.53-2,13.55,13.55,0,0,0,1-2.07c.06-.18.13-.34.18-.51s.11-.33.16-.49c.1-.32.19-.64.26-.94s.13-.61.19-.89.1-.55.13-.81a16.18,16.18,0,0,0,.16-2.42c0-.15,0-.27,0-.37s0-.19,0-.26V38h0s0-.08,0-.22,0-.36-.05-.64a17.65,17.65,0,0,0-.37-2.38c-.06-.26-.13-.52-.2-.8l-.12-.42L25,33.29,25,33.07a14.7,14.7,0,0,0-.75-1.88,14.2,14.2,0,0,0-2.7-4,10.86,10.86,0,0,0-2.13-1.69,8.56,8.56,0,0,0-2.67-1.07l-.37-.07-.19,0h0ZM16.61,51.12c-.11,0-.24,0-.35,0h-.47l-.25,0-.18,0-.18,0L14.82,51l-.35-.08a7.88,7.88,0,0,1-1.41-.5,9.42,9.42,0,0,1-1.35-.75,11.2,11.2,0,0,1-2.33-2.19,11.64,11.64,0,0,1-1-1.34c-.16-.24-.29-.48-.43-.73L7.79,45l-.09-.19-.1-.19A14.56,14.56,0,0,1,7,43.08q-.15-.4-.27-.81c-.09-.28-.16-.56-.23-.84A18.87,18.87,0,0,1,6,38a17.45,17.45,0,0,1,.2-3.47,16,16,0,0,1,.35-1.7,14.53,14.53,0,0,1,.55-1.61,12.83,12.83,0,0,1,1.63-2.9,10.36,10.36,0,0,1,1.08-1.2,9.44,9.44,0,0,1,1.23-1,7.45,7.45,0,0,1,1.34-.7,5.56,5.56,0,0,1,.75-.26l.16,0,.51-.11.36-.05.36,0H15s.06,0,.08,0h.09l.36,0,.35,0,.17,0,.17,0,.34.07a7.31,7.31,0,0,1,1.3.42,8.27,8.27,0,0,1,1.18.62,10,10,0,0,1,1.05.76,8.35,8.35,0,0,1,.92.86,13.41,13.41,0,0,1,2.52,3.78,16.28,16.28,0,0,1,.69,1.79,1.72,1.72,0,0,0,.07.21l.06.21c0,.14.07.27.11.41s.13.51.18.76c.11.48.18.92.24,1.3,0,.19.05.37.07.53s0,.31.05.44,0,.47,0,.61,0,.21,0,.21,0,.09,0,.2,0,.16,0,.26,0,.23,0,.36a18.12,18.12,0,0,1-.12,2.3c0,.25-.08.51-.12.78s-.1.55-.17.84-.15.59-.23.9l-.15.47c0,.16-.11.32-.17.48a13.42,13.42,0,0,1-.92,2,11.45,11.45,0,0,1-1.41,1.93c-.15.15-.28.31-.44.45l-.23.22-.25.2-.12.11-.13.09-.26.2-.27.18-.14.09-.14.08-.24.14-2.3.78A5.35,5.35,0,0,1,16.61,51.12Zm1.12.41a7.3,7.3,0,0,0,1.07-.28L50.3,40.4l24.55,4.4L48.65,58.08Z"/><path class="cls-4" d="M18.46,38.05h0s0-.08,0-.25,0-.18,0-.3,0-.25-.07-.4l-.06-.23c0-.08-.05-.17-.08-.26s-.06-.17-.09-.27L18,36.05a4.19,4.19,0,0,0-.81-1.17,3.84,3.84,0,0,0-.29-.27l-.17-.12-.17-.11a1.18,1.18,0,0,0-.19-.11l-.19-.09a2.83,2.83,0,0,0-.44-.13l-.12,0h-.11l-.2,0h-.36l-.12,0-.16,0h0L13,34.59l-.12,0-.08,0h0l-.15.05a3.09,3.09,0,0,0-.43.24,2.79,2.79,0,0,0-.39.31l-.17.18c-.06.06-.11.14-.16.2a4.4,4.4,0,0,0-.5.9,4.16,4.16,0,0,0-.16.5l-.06.25,0,.13v.13a2.34,2.34,0,0,0,0,.26l0,.27a.53.53,0,0,1,0,.13v.39a5,5,0,0,0,.15,1,4.1,4.1,0,0,0,.14.5l.1.24.05.12a.61.61,0,0,0,.05.12l.12.23.13.22.14.21a1.49,1.49,0,0,0,.15.2,3.31,3.31,0,0,0,.72.68,2.67,2.67,0,0,0,.87.41l.24.05H14l.22,0,.21,0h0l.26-.07h0l1.45-.43h0c.09,0,.19,0,.28-.09h0a2,2,0,0,0,.33-.15,1.13,1.13,0,0,0,.18-.12,1,1,0,0,0,.17-.12,3.85,3.85,0,0,0,.3-.27,3.74,3.74,0,0,0,.75-1.22,1.18,1.18,0,0,0,.1-.3,2.76,2.76,0,0,0,.08-.27c0-.1,0-.18.06-.27l0-.24a2.1,2.1,0,0,0,0-.41,1,1,0,0,0,0-.17v-.37Zm-3.3,3.64-.05,0a.49.49,0,0,1-.14.11l-.14.11,0,0-.27.13-.38.12-.2,0h-.19a1.49,1.49,0,0,1-.21,0l-.19,0a2.41,2.41,0,0,1-.78-.33,3.6,3.6,0,0,1-1.18-1.4,1.17,1.17,0,0,0-.05-.11l-.05-.11L11.2,40c0-.16-.1-.31-.14-.47a5.11,5.11,0,0,1-.07-2l0-.12,0-.12.06-.24a3.39,3.39,0,0,1,.15-.45,3.61,3.61,0,0,1,.48-.81,1.22,1.22,0,0,1,.15-.17l.16-.16a2.78,2.78,0,0,1,.34-.26,1.93,1.93,0,0,1,.38-.19l.07,0h0L13,35h0l.14,0,.1,0h.29l.2,0h.1l.09,0a2.3,2.3,0,0,1,.34.12l.16.09a.83.83,0,0,1,.16.09l.15.1.13.12a2.73,2.73,0,0,1,.25.23,3.85,3.85,0,0,1,.67,1.05c0,.09.06.18.09.26a.75.75,0,0,1,.08.24c0,.08.05.15.07.22s0,.15,0,.21a3.35,3.35,0,0,1,.06.36.77.77,0,0,1,0,.15s0,.08,0,.12l0,.22s0,.1,0,.22v.28a2.24,2.24,0,0,1,0,.35l0,.22a2.23,2.23,0,0,1,0,.23c0,.08,0,.16-.06.25a1.53,1.53,0,0,1-.08.26,3.33,3.33,0,0,1-.61,1.09A1.89,1.89,0,0,1,15.16,41.69Zm2.76-3.12a2.43,2.43,0,0,1,0,.36,1.65,1.65,0,0,1,0,.21c0,.07,0,.15-.05.23a1.29,1.29,0,0,1-.06.25,1.12,1.12,0,0,1-.08.26A3.23,3.23,0,0,1,17.08,41a2.72,2.72,0,0,1-.24.24.67.67,0,0,1-.14.11l-.15.11-.24.13-.49.14h-.07a3.58,3.58,0,0,0,.67-1.12,2.47,2.47,0,0,0,.1-.29c0-.1.06-.19.08-.28s0-.18,0-.26a2,2,0,0,0,0-.24,3.32,3.32,0,0,0,0-.41c0-.06,0-.12,0-.17v-.37h0a2.25,2.25,0,0,0,0-.25,1.89,1.89,0,0,0,0-.3,4,4,0,0,0-.08-.4c0-.08,0-.15-.05-.24s-.05-.16-.08-.25-.06-.18-.1-.27-.07-.19-.12-.28a4,4,0,0,0-.8-1.17,2.61,2.61,0,0,0-.3-.27A1,1,0,0,0,15,35l-.18-.12-.18-.1-.2-.09-.17-.06.1,0h0l.51-.15.1,0h.28l.21,0h.09l.09,0a2.06,2.06,0,0,1,.35.12l.17.09.15.09.15.11a.69.69,0,0,1,.13.11,2.83,2.83,0,0,1,.25.24,3.71,3.71,0,0,1,.67,1,2.77,2.77,0,0,1,.1.26,2.25,2.25,0,0,1,.08.24l.06.22c0,.08,0,.15,0,.21s0,.26.06.36,0,.2,0,.27,0,.18,0,.21a2.17,2.17,0,0,1,0,.24s0,.08,0,.13A.71.71,0,0,1,17.92,38.57Z"/><path class="cls-5" d="M54.42,41.14A87.92,87.92,0,0,0,26,50.54a3.28,3.28,0,0,0-1.56,1.33,1.89,1.89,0,0,0-.18,1.05l-6.56-1.39a7.3,7.3,0,0,0,1.07-.28L50.3,40.4Z"/><path class="cls-5" d="M56.39,34.63a10.5,10.5,0,0,1-1.86,2.8,5.08,5.08,0,0,1-.41.39l-.21.2-.22.18-.11.09-.12.08-.24.17L53,38.7l-.12.08-.13.07a8.82,8.82,0,0,1-.93.45c-1.08.44-2.2.74-3.29,1.11L47,40.94l-2.29.78-2.84,1-3.21,1.09-3.39,1.16-3.37,1.15-3.19,1.09-2.8,1-2.23.76-1.48.51-.53.18.16-.14c.17-.15.32-.31.47-.47a11.32,11.32,0,0,0,1.53-2,13.27,13.27,0,0,0,.81-1.59h0a2.37,2.37,0,0,0,1.88.82,6.93,6.93,0,0,0,2.05-.42L47.17,39.9A24.39,24.39,0,0,0,53.91,37,10.56,10.56,0,0,0,56.39,34.63Z"/><path class="cls-5" d="M52.7,17.52A11.33,11.33,0,0,0,50,17.29a27.52,27.52,0,0,0-6.39,1.21L23.92,23.85a7.7,7.7,0,0,0-2.26.88,3.06,3.06,0,0,0-1.25,1.52,10.36,10.36,0,0,0-1-.7,8.56,8.56,0,0,0-2.67-1.07l-.37-.07-.19,0h0L44.24,17l2.2-.58.83-.22.32,0,.32,0,.32,0h.64l.31,0,.15,0,.15,0,.31.06a7.91,7.91,0,0,1,1.17.36,7.65,7.65,0,0,1,1.07.54A7.74,7.74,0,0,1,52.7,17.52Z"/><path class="cls-6" d="M16.16,39.59a.2.2,0,0,1,0,.07,2.23,2.23,0,0,1,0,.23c0,.08,0,.16-.06.25a1.53,1.53,0,0,1-.08.26,3.33,3.33,0,0,1-.61,1.09,1.89,1.89,0,0,1-.2.2l-.05,0a.49.49,0,0,1-.14.11l-.14.11,0,0-.27.13-.38.12-.2,0h-.19a1.49,1.49,0,0,1-.21,0l-.19,0a2.41,2.41,0,0,1-.78-.33,3.6,3.6,0,0,1-1.18-1.4,1.17,1.17,0,0,0-.05-.11l-.05-.11L11.2,40c0-.16-.1-.31-.14-.47a5.11,5.11,0,0,1-.07-2l0-.12,0-.12.06-.24a3.39,3.39,0,0,1,.15-.45,3.61,3.61,0,0,1,.48-.81,1.22,1.22,0,0,1,.15-.17l.16-.16a2.78,2.78,0,0,1,.34-.26,1.93,1.93,0,0,1,.38-.19l.07,0h0L13,35h0l.14,0,.1,0h.34a2.64,2.64,0,0,0-1.71,1.63,3.8,3.8,0,0,0,.71,3.53,2.28,2.28,0,0,0,1.51,1,2,2,0,0,0,1.66-.84A3.2,3.2,0,0,0,16.16,39.59Z"/><path class="cls-5" d="M15.65,35.63a2.2,2.2,0,0,0-.2-.23,2.61,2.61,0,0,0-.3-.27A1,1,0,0,0,15,35l-.18-.12-.18-.1-.2-.09-.17-.06.1,0h0l.51-.15.1,0h.28l.21,0h.09l.09,0a2.06,2.06,0,0,1,.35.12l.17.09.15.09.15.11a.69.69,0,0,1,.13.11,2.83,2.83,0,0,1,.25.24,3.55,3.55,0,0,1,.35.44l-.07,0A2.27,2.27,0,0,0,15.65,35.63Z"/><path class="cls-5" d="M17.81,39.5a.56.56,0,0,1,0,.12,1.12,1.12,0,0,1-.08.26A3.23,3.23,0,0,1,17.08,41a2.72,2.72,0,0,1-.24.24.67.67,0,0,1-.14.11l-.15.11-.24.13-.49.14h-.07a3.58,3.58,0,0,0,.67-1.12,2.47,2.47,0,0,0,.1-.29c0-.1.06-.19.08-.28l0-.17a1.75,1.75,0,0,0,1.11-.3Z"/><path class="cls-3" d="M26.24,29.37c3-4.27,22.6-7.9,25.44-7.6,3.79.41,6,5.63,1.75,8.18s-17,6.12-22.1,5.73C27,35.36,23.89,32.68,26.24,29.37Z"/><path class="cls-3" d="M32.31,50.08c-.81,1.49,15,6,16.53,5.8S69,47.42,70.12,45.79s-11.82-3.14-16.85-2.9S34,47,32.31,50.08Z"/></g></g></svg>