<svg xmlns="http://www.w3.org/2000/svg" viewBox="0 0 70.87 70.87"><defs><style>.cls-1{fill:#dbeccf;}.cls-2{fill:#979898;}.cls-3{fill:#71706f;}.cls-4{fill:#7e695e;}</style></defs><g id="Layer_2" data-name="Layer 2"><g id="AW"><circle class="cls-1" cx="35.43" cy="35.43" r="35.43" transform="translate(-5.22 64.73) rotate(-80.78)"/><path class="cls-2" d="M35.55,19.72V60.13h0a2.63,2.63,0,0,1-2.45,2.59l-.62,0c-4.28-.21-10.12-1.52-13.84-4.17,2-7.28,4.27-18.06.92-26.17-.76,3.51-1,8-1.39,9.53-.79,2.84-2.07,5.48-2.38,8.34-.51,4.55-2,11.46-5.07,11.93a2.46,2.46,0,0,1-.85,0c-2.4-.53-5.69-.31-7.07-2.07a3.69,3.69,0,0,1-.63-2.81c.32-3.84,3.38-14.05,4.33-18A113.71,113.71,0,0,1,10,27.89c.59-1.74,1.11-3.68,1.58-5.51s2.16-6.21,3.19-8.42h0A4.41,4.41,0,0,1,16,12.18a4.71,4.71,0,0,1,1.44-1l1.06-.32,7.16-2.13,1.19-.36L29,7.76h0c0,.15,0,.31,0,.46v0a0,0,0,0,0,0,0v.36a1,1,0,0,0,0,.17c0,4,1.91,7.32,4.55,8.48l.19.08,0,0Z"/><path class="cls-3" d="M10.7,62.15l-.85,3.61L1.86,64l.93-3.92c1.38,1.76,4.67,1.54,7.07,2.07A2.4,2.4,0,0,0,10.7,62.15Z"/><path class="cls-2" d="M68.45,60.64c-1.45,1.6-4.62,1.4-7,1.91a2.15,2.15,0,0,1-1,0c-3-.67-4.4-7.42-4.9-11.9-.31-2.85-1.58-5.5-2.38-8.33-.34-1.4-.58-5.23-1.19-8.55-2.57,7.94-1.27,17.88.47,24.75C48.8,61.14,43,62.46,38.68,62.68c-.24,0-.49,0-.72,0h0a2.61,2.61,0,0,1-2.38-2.58h0V19.72l1.81-2.34h0l0,0,.19-.08h0c2.51-1.11,4.35-4.2,4.52-7.91a2.44,2.44,0,0,0,0-.27c0-.1,0-.2,0-.3a1.21,1.21,0,0,0,0-.19,8.7,8.7,0,0,0,0-.89h0l2.18.66,1.19.36,7.08,2.15,1.25.38a4.49,4.49,0,0,1,1.33.91,4.61,4.61,0,0,1,1.07,1.58h0a90,90,0,0,1,3.52,9.06c.48,1.83,1.29,3.63,1.85,5.39,1.29,4,2.7,7.22,3.4,11.25s3.9,14.38,4.22,18.22A3.65,3.65,0,0,1,68.45,60.64Z"/><path class="cls-3" d="M69.23,64l-8,1.79-.75-3.21a2.11,2.11,0,0,0,1,0c2.33-.5,5.5-.31,7-1.91Z"/><path class="cls-3" d="M42.14,8.61h0A23.56,23.56,0,0,1,29,8.63V8.27a0,0,0,0,1,0,0V8.1c0-.1,0-.2,0-.3v0l0-.3a8.61,8.61,0,0,1,.17-1.15c0-.08,0-.15,0-.23A9.86,9.86,0,0,1,29.56,5a17.46,17.46,0,0,0,12,0,11.63,11.63,0,0,1,.56,2.77C42.13,8,42.14,8.31,42.14,8.61Z"/><path class="cls-3" d="M35.55,19.72l-3.26-1.18a3,3,0,0,0,.47-.25,1.33,1.33,0,0,0,.19-.14l0,0a1.85,1.85,0,0,0,.14-.14s0,0,0,0a.76.76,0,0,0,.11-.14,1,1,0,0,0,.11-.17l0-.1a.3.3,0,0,0,0-.1.75.75,0,0,0,0-.16l0-.15.2.25Z"/><path class="cls-3" d="M38.81,18.54l-3.26,1.18,1.81-2.34h0l.19-.25a.83.83,0,0,0,0,.15,1.77,1.77,0,0,0,1.13,1.21Z"/><path class="cls-4" d="M37.76,23.52a.58.58,0,1,1-.58-.57A.57.57,0,0,1,37.76,23.52Z"/><path class="cls-3" d="M37.76,29.52a.58.58,0,1,1-.58-.57A.57.57,0,0,1,37.76,29.52Z"/><path class="cls-3" d="M37.76,35.52a.58.58,0,0,1-1.16,0,.58.58,0,0,1,1.16,0Z"/><path class="cls-3" d="M37.76,41.52a.58.58,0,1,1-.58-.56A.57.57,0,0,1,37.76,41.52Z"/><path class="cls-3" d="M37.76,47.52a.58.58,0,1,1-.58-.56A.57.57,0,0,1,37.76,47.52Z"/><path class="cls-3" d="M37.76,53.52a.58.58,0,1,1-.58-.56A.57.57,0,0,1,37.76,53.52Z"/><path class="cls-2" d="M42.14,8.8c0,.1,0,.2,0,.3a2.44,2.44,0,0,1,0,.27C41.9,13,40.06,16,37.57,17.13a.4.4,0,0,0,0,.15h0a.83.83,0,0,1,0-.15l-.19.25h0l-1.81,2.34-1.81-2.34-.2-.25C30.89,16,29,12.61,29,8.63a23.56,23.56,0,0,0,13.16,0A1.21,1.21,0,0,1,42.14,8.8Z"/><path class="cls-3" d="M35.57,29.6a4.94,4.94,0,0,0-2.65-.73,8.65,8.65,0,0,1,.34-1.28,6.36,6.36,0,0,0,.39-2.65c-.14-1.13-.78-2.44-.64-3.58a1.75,1.75,0,0,1,.56-1h.72a1.28,1.28,0,0,0,.85-.32,1,1,0,0,0,.41.09h.1a4.65,4.65,0,0,0-.73,1.13,2.37,2.37,0,0,0-.16.79,3.33,3.33,0,0,0,.23,1.3,13.87,13.87,0,0,1,1.16,2.58A6.72,6.72,0,0,1,35.57,29.6Z"/><path class="cls-3" d="M40.39,27a4.69,4.69,0,0,1-2.81.59,3.66,3.66,0,0,0,.16-.73,3.24,3.24,0,0,0-.67-2.4c-.48-.59-1.81-1.46-2.31-2.41a2.37,2.37,0,0,1,.16-.79,4.65,4.65,0,0,1,.73-1.13A1.68,1.68,0,0,0,36,20a1.26,1.26,0,0,0,.85.32h0c-.61,1.48.59,2.18,1.68,3.13a5.06,5.06,0,0,1,1.3,1.79A9.62,9.62,0,0,1,40.39,27Z"/><path class="cls-3" d="M41.8,17.93V20.4h-5a1.27,1.27,0,0,1-.85-.33,1.21,1.21,0,0,1-.16-.16,1.24,1.24,0,0,1-.26-.75,1.21,1.21,0,0,1,.42-.91,1.26,1.26,0,0,1,.85-.32Z"/><path class="cls-3" d="M35.55,19.16a1.22,1.22,0,0,1-.41.91,1.29,1.29,0,0,1-.85.33h-5V17.93h5a1.28,1.28,0,0,1,.85.32A1.23,1.23,0,0,1,35.55,19.16Z"/><path class="cls-3" d="M36.58,19.16a1,1,0,0,1-.61.91,1.16,1.16,0,0,1-.32.08h-.1a1,1,0,0,1-1-1,1,1,0,0,1,.61-.91,1.15,1.15,0,0,1,.41-.08,1.16,1.16,0,0,1,.42.08A1,1,0,0,1,36.58,19.16Z"/><path class="cls-3" d="M33.54,17.13l0,.15a.75.75,0,0,1,0,.16.3.3,0,0,1,0,.1l0,.1a1,1,0,0,1-.11.17.76.76,0,0,1-.11.14s0,0,0,0a1.85,1.85,0,0,1-.14.14l0,0a1.33,1.33,0,0,1-.19.14,3,3,0,0,1-.47.25,4.53,4.53,0,0,1-4.1-.48,9.86,9.86,0,0,1-2.7-4.34,8.86,8.86,0,0,1,.13-5h0c0-.11.07-.22.12-.34s.09-.22.14-.33.09-.2.14-.3l.19-.36.17-.26,0,0,.19-.26a2.61,2.61,0,0,1,.22-.27c.07-.09.15-.17.23-.26l.26-.24.32-.26c.16-.12.32-.23.5-.34l.2-.1.19-.09a4.18,4.18,0,0,1,.53-.21L29.28,5,29.56,5a9.86,9.86,0,0,0-.32,1.13,1.85,1.85,0,0,0,0,.23A8.61,8.61,0,0,0,29,7.46c0,.1,0,.2,0,.3v0c0,.1,0,.2,0,.3v.14a0,0,0,0,0,0,0v.36C29,12.61,30.89,16,33.54,17.13Z"/><path class="cls-3" d="M45.61,13.72a9.86,9.86,0,0,1-2.7,4.34,4.48,4.48,0,0,1-4.19.43,1.79,1.79,0,0,1-1.12-1.21.4.4,0,0,1,0-.15C40.06,16,41.9,13,42.12,9.37a2.44,2.44,0,0,0,0-.27c0-.15,0-.31,0-.47v0c0-.3,0-.6,0-.89A11.63,11.63,0,0,0,41.55,5a5.39,5.39,0,0,1,3.93,3.79A9,9,0,0,1,45.61,13.72Z"/></g></g></svg>