<svg xmlns="http://www.w3.org/2000/svg" viewBox="0 0 16.79 20.85"><defs><style>.cls-1{fill:none;stroke:#231f20;stroke-miterlimit:10;}</style></defs><g id="Layer_2" data-name="Layer 2"><g id="AW"><path class="cls-1" d="M15.69.5H1.11a.63.63,0,0,0-.61.64V2.25a.62.62,0,0,0,.61.63H15.69a.62.62,0,0,0,.6-.63V1.14A.62.62,0,0,0,15.69.5Z"/><path class="cls-1" d="M15.54,3.15H1.36a.62.62,0,0,0-.61.63v.27a.65.65,0,0,0,.32.56l6,8.83,0,4.43,2.47,2,.15-6.39,6.12-8.8a.63.63,0,0,0,.39-.59V3.78A.62.62,0,0,0,15.54,3.15Z"/></g></g></svg>