<svg xmlns="http://www.w3.org/2000/svg" viewBox="0 0 33 35.53"><defs><style>.cls-1{fill:#5e5e5e;}</style></defs><g id="Layer_2" data-name="Layer 2"><g id="AW"><path class="cls-1" d="M32.33,5.4A3.94,3.94,0,0,0,27,4.46l-.1.08L22.56,8.12a6.2,6.2,0,0,0,.29-1.78,6.35,6.35,0,0,0-12.69,0,6.19,6.19,0,0,0,.28,1.78L6.13,4.54,6,4.46A3.94,3.94,0,0,0,.67,5.4a3.53,3.53,0,0,0,.63,4.8l7.61,8.09a21.23,21.23,0,0,0,1.29,6.17l1.26,6.3c.73,2.9,2.71,4.77,5,4.77s4.32-1.87,5.05-4.83l1.25-6.24a21.23,21.23,0,0,0,1.29-6.17L31.7,10.2A3.52,3.52,0,0,0,32.33,5.4ZM16.5,2.54a3.81,3.81,0,1,1-3.81,3.8A3.81,3.81,0,0,1,16.5,2.54ZM30,8.28l-.13.12L22,16.79a1.28,1.28,0,0,0-.45.94,18.08,18.08,0,0,1-1.18,5.93l-.06.2-1.25,6.29C18.65,31.88,17.63,33,16.5,33s-2.14-1.11-2.56-2.78l-1.27-6.35a.76.76,0,0,0-.06-.2,18.61,18.61,0,0,1-1.18-5.93,1.27,1.27,0,0,0-.43-.92L3.09,8.4,3,8.28a1,1,0,0,1-.23-1.4,1.41,1.41,0,0,1,1.84-.33l7.19,6a1.27,1.27,0,0,0,1.62,0l.11-.1a1.2,1.2,0,0,0,.22-.23l.09-.11a6.78,6.78,0,0,0,.79.3L15.66,14,14,18.19l2.54,3.38L19,18.19,17.35,14l1.06-1.59a6.78,6.78,0,0,0,.79-.3.48.48,0,0,1,.09.11l.23.23a.52.52,0,0,0,.11.1,1.27,1.27,0,0,0,1.62,0l7.19-6a1.41,1.41,0,0,1,1.83.33A1,1,0,0,1,30,8.28Z"/></g></g></svg>