<svg width="100" height="100" viewBox="0 0 100 100" fill="none" xmlns="http://www.w3.org/2000/svg">
<circle cx="50" cy="50" r="50" fill="#E6EDF7"/>
<path d="M63.2502 67.7251C63.791 67.7251 64.2294 67.2867 64.2294 66.7459C64.2294 66.2051 63.791 65.7667 63.2502 65.7667C62.7094 65.7667 62.271 66.2051 62.271 66.7459C62.271 67.2867 62.7094 67.7251 63.2502 67.7251Z" fill="black"/>
<rect x="26.5" y="29.5" width="36.9999" height="41.4443" rx="1.5" stroke="#215DB6" stroke-width="3"/>
<circle cx="63.2495" cy="60.8706" r="10.7505" fill="#E6EDF7" stroke="#215DB6" stroke-width="2"/>
<path d="M63.2498 64.7874C62.6623 64.7874 62.2706 64.3957 62.2706 63.8082V63.1227C62.2706 61.6539 63.054 60.381 64.2291 59.6955C65.0124 59.3038 65.4041 58.4225 65.2083 57.6392C65.1103 56.8558 64.4249 56.1704 63.6415 56.0724C63.054 55.9745 62.4665 56.0724 61.9769 56.4641C61.5852 56.7579 61.2914 57.3454 61.2914 57.9329C61.2914 58.5205 60.8997 58.9121 60.3122 58.9121C59.7247 58.9121 59.333 58.5205 59.333 57.9329C59.333 56.7579 59.8226 55.6807 60.7039 54.8974C61.5852 54.114 62.7602 53.8202 63.9353 54.0161C65.502 54.3099 66.775 55.5828 67.0688 57.1496C67.3625 58.8142 66.5792 60.4789 65.1103 61.2622C64.5228 61.556 64.2291 62.2415 64.2291 63.0248V63.8082C64.2291 64.3957 63.8374 64.7874 63.2498 64.7874V64.7874Z" fill="#215DB6"/>
<path d="M63.2498 68.2147C62.4665 68.2147 61.781 67.5292 61.781 66.7459C61.781 65.9625 62.4665 65.277 63.2498 65.277C64.0332 65.277 64.7186 65.9625 64.7186 66.7459C64.7186 67.5292 64.0332 68.2147 63.2498 68.2147ZM63.2498 66.2562C62.9561 66.2562 62.7602 66.4521 62.7602 66.7459C62.7602 67.0396 62.9561 67.2355 63.2498 67.2355C63.5436 67.2355 63.7394 67.0396 63.7394 66.7459C63.7394 66.4521 63.5436 66.2562 63.2498 66.2562Z" fill="#215DB6"/>
<line x1="32.231" y1="37.5967" x2="55.732" y2="37.5967" stroke="#215DB6" stroke-width="2.5"/>
<line x1="32.231" y1="44.5779" x2="48.5009" y2="44.5779" stroke="#215DB6" stroke-width="3"/>
</svg>
