<svg xmlns="http://www.w3.org/2000/svg" viewBox="0 0 16.85 15.45"><defs><style>.cls-1{fill:#afafaf;}</style></defs><g id="Layer_2" data-name="Layer 2"><g id="AW"><path class="cls-1" d="M13.34,14H3.51a2.1,2.1,0,0,1-2.11-2.1V4.56L5.94,9.1a3.51,3.51,0,0,0,5,0l4.54-4.54v7.38A2.1,2.1,0,0,1,13.34,14ZM3.51,1.4h9.83a2.17,2.17,0,0,1,1.18.37,2,2,0,0,1,.77,1L9.92,8.11a2.12,2.12,0,0,1-3,0L1.56,2.73a2,2,0,0,1,.77-1A2.17,2.17,0,0,1,3.51,1.4ZM13.34,0H3.51A3.52,3.52,0,0,0,0,3.51v8.43a3.52,3.52,0,0,0,3.51,3.51h9.83a3.52,3.52,0,0,0,3.51-3.51V3.51A3.52,3.52,0,0,0,13.34,0Z"/></g></g></svg>