<svg width="48" height="48" viewBox="0 0 48 48" fill="none" xmlns="http://www.w3.org/2000/svg">
<g clip-path="url(#clip0_251_72)">
<path d="M23.328 40.992L7.536 25.344C6.864 24.72 6.336 24 5.856 23.232C3.264 18.96 3.936 13.488 7.536 9.936C9.6 7.872 12.384 6.72 15.312 6.72C19.92 6.72 22.8 9.408 24 10.944C25.2 9.408 28.08 6.72 32.688 6.72C35.616 6.72 38.4 7.872 40.464 9.936C44.016 13.488 44.736 18.96 42.144 23.232C41.664 24 41.136 24.72 40.464 25.344L24.672 40.992C24.288 41.376 23.712 41.376 23.328 40.992ZM15.312 8.64C12.864 8.64 10.608 9.6 8.88 11.28C5.952 14.208 5.376 18.72 7.488 22.224C7.872 22.848 8.352 23.472 8.88 24L24 38.976L39.12 24C39.648 23.472 40.128 22.896 40.512 22.224C42.624 18.672 42.096 14.16 39.12 11.28C37.392 9.6 35.088 8.64 32.688 8.64C29.232 8.64 26.352 10.512 24.816 13.104C24.432 13.728 23.52 13.728 23.136 13.104C21.648 10.512 18.768 8.64 15.312 8.64V8.64Z" fill="black"/>
<path d="M453.12 -177.6V630.72H-403.2V-177.6H453.12ZM456.96 -181.44H-407.04V634.56H456.96V-181.44Z" fill="#0000FF"/>
</g>
<defs>
<clipPath id="clip0_251_72">
<rect width="48" height="48" fill="white"/>
</clipPath>
</defs>
</svg>
