<svg width="48" height="48" viewBox="0 0 48 48" fill="none" xmlns="http://www.w3.org/2000/svg">
<g clip-path="url(#clip0_251_65)">
<path d="M42 48H28V35H20V48H6V27C6 26.7348 6.10536 26.4804 6.29289 26.2929C6.48043 26.1054 6.73478 26 7 26C7.26522 26 7.51957 26.1054 7.70711 26.2929C7.89464 26.4804 8 26.7348 8 27V46H18V33H30V46H40V28C40 27.7348 40.1054 27.4804 40.2929 27.2929C40.4804 27.1054 40.7348 27 41 27C41.2652 27 41.5196 27.1054 41.7071 27.2929C41.8946 27.4804 42 27.7348 42 28V48Z" fill="black"/>
<path d="M47.0001 27C46.7426 27.0003 46.495 26.9011 46.3091 26.723L24.0001 5.384L1.6911 26.723C1.49948 26.9064 1.24286 27.0062 0.977681 27.0003C0.712505 26.9945 0.460498 26.8836 0.277101 26.692C0.0937041 26.5004 -0.00606136 26.2438 -0.000247729 25.9786C0.0055659 25.7134 0.116482 25.4614 0.308101 25.278L24.0001 2.616L47.6911 25.277C47.8355 25.415 47.9353 25.593 47.9776 25.7883C48.0199 25.9835 48.0027 26.1868 47.9284 26.3722C47.8541 26.5576 47.7259 26.7165 47.5604 26.8284C47.395 26.9402 47.1998 27 47.0001 27V27ZM39.0001 15C38.7349 15 38.4805 14.8946 38.293 14.7071C38.1055 14.5196 38.0001 14.2652 38.0001 14V8H32.0001C31.7349 8 31.4805 7.89464 31.293 7.70711C31.1055 7.51957 31.0001 7.26522 31.0001 7C31.0001 6.73478 31.1055 6.48043 31.293 6.29289C31.4805 6.10536 31.7349 6 32.0001 6H40.0001V14C40.0001 14.2652 39.8947 14.5196 39.7072 14.7071C39.5197 14.8946 39.2653 15 39.0001 15Z" fill="black"/>
</g>
<defs>
<clipPath id="clip0_251_65">
<rect width="48" height="48" fill="white"/>
</clipPath>
</defs>
</svg>
