<svg xmlns="http://www.w3.org/2000/svg" viewBox="0 0 70.87 70.87"><defs><style>.cls-1{fill:#dbeccf;}.cls-2{fill:#b7c6d7;}.cls-3{fill:#979898;}.cls-4{fill:#71706f;}.cls-5{fill:#236b7c;}.cls-6{fill:#a2b4c5;}.cls-7{fill:#579db6;}.cls-8{fill:#8bc5d4;}</style></defs><g id="Layer_2" data-name="Layer 2"><g id="AW"><circle class="cls-1" cx="35.43" cy="35.43" r="35.43" transform="translate(-5.22 64.73) rotate(-80.78)"/><path class="cls-2" d="M14.48,44.74a3.11,3.11,0,0,1-3.71,2.55l-.11,0a3.34,3.34,0,0,1-2.38-4l5.23-22.35a3.11,3.11,0,0,1,3.7-2.55l.12,0a3.34,3.34,0,0,1,2.38,4Z"/><path class="cls-2" d="M46.24,20.45a2.07,2.07,0,0,1-2,2.13H16.83a2.07,2.07,0,0,1-2-2.13h0a2.06,2.06,0,0,1,2-2.13H44.25a2.06,2.06,0,0,1,2,2.13Z"/><path class="cls-3" d="M33.73,32.05a.49.49,0,0,1-.47.51H22.94a.49.49,0,0,1-.47-.51v-5a.49.49,0,0,1,.47-.51H33.26a.49.49,0,0,1,.47.51Z"/><path class="cls-4" d="M26.37,27.89H17.16V46.4l.9,1H63.88C58.61,34.47,43.81,27.89,26.37,27.89Z"/><path class="cls-5" d="M50.68,33.33l7.84,8.4a2.24,2.24,0,0,0,2.56.57A29.6,29.6,0,0,0,50.68,33.33Z"/><path class="cls-4" d="M12.77,40v7.33H60.14c-5-10.5-20.88-15.84-37.59-15.84H13.19l-.88,5.16A12.37,12.37,0,0,1,12.77,40Z"/><path class="cls-4" d="M19.72,21.1a2.57,2.57,0,0,0-1.17-.63l-.11,0a2.82,2.82,0,0,0-3.35,2.34L10.28,43.62a3.09,3.09,0,0,0,2.15,3.66l.11,0a2.54,2.54,0,0,0,1.34,0,3.94,3.94,0,0,0,.14-.49l5.69-24.22A3.88,3.88,0,0,0,19.72,21.1Z"/><path class="cls-4" d="M41.84,20.37H18.2a1.76,1.76,0,0,0-1.68,1.83,2.09,2.09,0,0,0,0,.35l.27,0H43.49a2.34,2.34,0,0,0,0-.38A1.76,1.76,0,0,0,41.84,20.37Z"/><polygon class="cls-2" points="65.15 50.94 11.2 50.94 11.2 47.37 62.06 47.37 65.15 50.94"/><polygon class="cls-6" points="11.2 48.49 63.03 48.49 62.06 47.37 11.2 47.37 11.2 48.49"/><path class="cls-2" d="M17.09,46.33H52.94c1.37,0,1.93-1,1-2.16-5-6.34-15.26-10.09-27.11-10.09C19,34.08,16,37.65,15,43.7A2.18,2.18,0,0,0,17.09,46.33Z"/><path class="cls-3" d="M26.85,42.46H36.92c1.37,0,1.91-1.05.81-1.93A14.39,14.39,0,0,0,28.88,38c-2.13,0-3.28.7-3.89,1.95A1.84,1.84,0,0,0,26.85,42.46Z"/><path class="cls-7" d="M51.63,33.94l6.12,6.56a1.62,1.62,0,0,0,2.39,0L54,33.94Z"/><path class="cls-8" d="M57.74,40.07a1.6,1.6,0,0,0,2.18.19L54,33.94H52Z"/></g></g></svg>