<svg width="64" height="64" viewBox="0 0 64 64" fill="none" xmlns="http://www.w3.org/2000/svg">
<path d="M31.3298 23.4799C29.5548 23.4789 27.8446 24.1466 26.5398 25.3499C26.2768 25.1274 25.9443 25.0036 25.5998 24.9999C24.5345 25.0089 23.4778 24.8084 22.4898 24.4099C23.8905 22.5838 24.7498 20.4008 24.9698 18.1099H25.6298C26.0276 18.1099 26.4092 17.9519 26.6905 17.6706C26.9718 17.3892 27.1298 17.0077 27.1298 16.6099C27.1298 16.2121 26.9718 15.8305 26.6905 15.5492C26.4092 15.2679 26.0276 15.1099 25.6298 15.1099H21.3398V12.7799C21.3398 12.3821 21.1818 12.0005 20.9005 11.7192C20.6192 11.4379 20.2376 11.2799 19.8398 11.2799C19.442 11.2799 19.0605 11.4379 18.7792 11.7192C18.4979 12.0005 18.3398 12.3821 18.3398 12.7799V15.1199H14.0798C13.682 15.1199 13.3005 15.2779 13.0192 15.5592C12.7379 15.8405 12.5798 16.2221 12.5798 16.6199C12.5798 17.0177 12.7379 17.3992 13.0192 17.6806C13.3005 17.9619 13.682 18.1199 14.0798 18.1199H21.9198C21.7166 19.7859 21.0516 21.3619 19.9998 22.6699C19.2375 21.8101 18.6408 20.8167 18.2398 19.7399C18.1852 19.5411 18.0902 19.3557 17.9608 19.1952C17.8313 19.0347 17.6702 18.9027 17.4874 18.8073C17.3046 18.7119 17.1041 18.6552 16.8985 18.6408C16.6928 18.6263 16.4863 18.6544 16.292 18.7233C16.0977 18.7922 15.9197 18.9005 15.7691 19.0413C15.6184 19.182 15.4985 19.3524 15.4166 19.5416C15.3348 19.7308 15.2928 19.9349 15.2934 20.1411C15.2939 20.3473 15.337 20.5511 15.4198 20.7399C15.9113 22.0612 16.6249 23.2889 17.5298 24.3699C16.4377 24.7833 15.2774 24.9868 14.1098 24.9699C13.712 24.9699 13.3305 25.1279 13.0492 25.4092C12.7679 25.6905 12.6098 26.0721 12.6098 26.4699C12.6098 26.8677 12.7679 27.2492 13.0492 27.5306C13.3305 27.8119 13.712 27.9699 14.1098 27.9699C16.1667 28.0385 18.2033 27.544 19.9998 26.5399C21.4304 27.3964 23.0456 27.8971 24.7098 27.9999C24.3721 28.8356 24.1989 29.7286 24.1998 30.6299V31.7499H13.7698C13.5535 31.7493 13.3397 31.7954 13.1429 31.8852C12.9461 31.9749 12.7711 32.1062 12.6298 32.2699C12.4872 32.4339 12.3828 32.6275 12.324 32.8367C12.2652 33.046 12.2535 33.2656 12.2898 33.4799C12.2898 33.5799 12.4798 34.7099 12.8198 36.2999C12.8583 36.4971 12.8365 36.7013 12.7572 36.8859C12.678 37.0705 12.545 37.2269 12.3755 37.3348C12.2061 37.4428 12.0081 37.4972 11.8073 37.4909C11.6065 37.4847 11.4122 37.4181 11.2498 37.2999C8.09982 34.9999 4.73982 32.1999 3.68982 30.2299C3.64568 30.1496 3.59554 30.0727 3.53982 29.9999C3.05629 29.3118 2.79777 28.4909 2.79982 27.6499V11.5199C2.79982 10.4245 3.23494 9.37407 4.00947 8.59954C4.78399 7.82502 5.83447 7.38989 6.92982 7.38989H32.6698C33.7652 7.38989 34.8156 7.82502 35.5902 8.59954C36.3647 9.37407 36.7998 10.4245 36.7998 11.5199V23.5199L31.3298 23.4799ZM61.1998 30.6099V46.6999C61.2065 47.5416 60.9476 48.3639 60.4598 49.0499C60.3981 49.1329 60.3477 49.2237 60.3098 49.3199C59.3098 51.3199 55.8998 54.0899 52.7498 56.4099C52.5874 56.5281 52.3931 56.5947 52.1923 56.6009C51.9915 56.6072 51.7935 56.5528 51.6241 56.4448C51.4546 56.3369 51.3216 56.1805 51.2424 55.9959C51.1631 55.8113 51.1413 55.6071 51.1798 55.4099C51.5198 53.8099 51.6998 52.6799 51.7098 52.5799C51.7447 52.366 51.7326 52.147 51.6741 51.9382C51.6157 51.7295 51.5124 51.536 51.3715 51.3713C51.2306 51.2065 51.0554 51.0746 50.8582 50.9845C50.661 50.8945 50.4466 50.8485 50.2298 50.8499H31.3298C30.7858 50.8499 30.2471 50.7424 29.7447 50.5336C29.2423 50.3248 28.7861 50.0188 28.4024 49.6332C28.0186 49.2476 27.7148 48.7899 27.5084 48.2865C27.3021 47.7831 27.1972 47.2439 27.1998 46.6999V30.6099C27.1998 29.5145 27.6349 28.4641 28.4095 27.6895C29.184 26.915 30.2345 26.4799 31.3298 26.4799H57.0698C58.1652 26.4799 59.2156 26.915 59.9902 27.6895C60.7647 28.4641 61.1998 29.5145 61.1998 30.6099V30.6099ZM50.7798 44.6099L49.0498 40.2999L45.6298 31.7399C45.6073 31.6814 45.5805 31.6246 45.5498 31.5699L45.4898 31.4699L45.3998 31.3499L45.3098 31.2499L45.2098 31.1599L45.0798 31.0599L44.9998 30.9999L44.8398 30.9099C44.8066 30.9055 44.773 30.9055 44.7398 30.9099L44.5798 30.8599H43.9998L43.8298 30.9099C43.7966 30.9055 43.763 30.9055 43.7298 30.9099L43.5798 30.9999L43.4698 31.0499L43.3498 31.1499L43.2498 31.2399L43.1598 31.3399L43.0598 31.4599C43.0598 31.4599 43.0598 31.5299 43.0098 31.5599L42.9198 31.7299L39.4198 40.2999L37.6898 44.6199C37.6103 44.806 37.569 45.0061 37.5684 45.2085C37.5678 45.4108 37.6079 45.6112 37.6862 45.7978C37.7646 45.9844 37.8796 46.1533 38.0246 46.2945C38.1695 46.4357 38.3413 46.5464 38.5298 46.6199C38.7081 46.6909 38.898 46.7282 39.0898 46.7299C39.3955 46.7235 39.6921 46.6245 39.9403 46.446C40.1885 46.2674 40.3766 46.0177 40.4798 45.7299L41.8198 42.3799H46.6598L47.9998 45.7299C48.1006 46.0193 48.2881 46.2706 48.5368 46.4495C48.7856 46.6285 49.0834 46.7264 49.3898 46.7299C49.5783 46.7272 49.7648 46.6899 49.9398 46.6199C50.1292 46.5475 50.302 46.4375 50.4477 46.2965C50.5934 46.1555 50.709 45.9864 50.7875 45.7995C50.866 45.6126 50.9058 45.4117 50.9045 45.2089C50.9032 45.0062 50.8608 44.8058 50.7798 44.6199V44.6099ZM42.9998 39.3799H45.4398L44.2198 36.3799L42.9998 39.3799Z" fill="#E20202"/>
</svg>
