<svg width="19" height="26" viewBox="0 0 19 26" fill="none" xmlns="http://www.w3.org/2000/svg">
<path d="M9.5 0C4.25372 0 0 4.25372 0 9.5C0 13.3302 1.33445 14.3999 8.52526 24.8237C8.99685 25.505 10.0052 25.505 10.4767 24.8237C17.6641 14.3984 19 13.3297 19 9.5C19 4.25372 14.7448 0 9.5 0ZM9.5 13.4138C7.31648 13.4138 5.54167 11.6385 5.54167 9.45547C5.54167 7.27245 7.31797 5.49713 9.5 5.49713C11.682 5.49713 13.4583 7.27245 13.4583 9.45547C13.4583 11.6385 11.682 13.4138 9.5 13.4138Z" fill="#71AD42"/>
</svg>
