<svg xmlns="http://www.w3.org/2000/svg" viewBox="0 0 14.04 16.85"><defs><style>.cls-1{fill:#afafaf;}</style></defs><g id="Layer_2" data-name="Layer 2"><g id="AW"><path class="cls-1" d="M12.64,13.34a2.12,2.12,0,0,1-2.11,2.11h-7A2.1,2.1,0,0,1,2,14.83a2.12,2.12,0,0,1-.62-1.49V9.13A2.12,2.12,0,0,1,2,7.64,2.1,2.1,0,0,1,3.51,7h7a2.12,2.12,0,0,1,2.11,2.11ZM3.51,4.92a3.51,3.51,0,1,1,7,0v.7h-7Zm8.43,1v-1a4.92,4.92,0,1,0-9.83,0v1A3.48,3.48,0,0,0,0,9.13v4.21a3.52,3.52,0,0,0,3.51,3.51h7A3.52,3.52,0,0,0,14,13.34V9.13a3.54,3.54,0,0,0-.57-1.92A3.49,3.49,0,0,0,11.94,5.92Z"/><path class="cls-1" d="M7,9.83a.72.72,0,0,0-.7.7v1.41a.7.7,0,0,0,1.2.49.7.7,0,0,0,.2-.49V10.53a.7.7,0,0,0-.2-.49A.67.67,0,0,0,7,9.83Z"/></g></g></svg>