<svg xmlns="http://www.w3.org/2000/svg" viewBox="0 0 98.63 44.43"><defs><style>.cls-1{fill:#6cac53;}</style></defs><g id="Layer_2" data-name="Layer 2"><g id="AW"><path d="M4.91,41.32a2.13,2.13,0,0,1-.35.39,2,2,0,0,1-.47.33,2.58,2.58,0,0,1-.57.21,2.75,2.75,0,0,1-.65.08,2.86,2.86,0,0,1-1.14-.22,2.83,2.83,0,0,1-.91-.6,2.62,2.62,0,0,1-.6-.92,3.14,3.14,0,0,1,0-2.31,2.62,2.62,0,0,1,.6-.92,2.67,2.67,0,0,1,.91-.6,2.86,2.86,0,0,1,1.14-.22,2.94,2.94,0,0,1,1,.2,2.18,2.18,0,0,1,.88.67l-.49.37a1.46,1.46,0,0,0-.24-.27,2.24,2.24,0,0,0-.34-.23,1.76,1.76,0,0,0-.4-.16,1.35,1.35,0,0,0-.44-.07,2.24,2.24,0,0,0-1,.2,2.08,2.08,0,0,0-.71.52,2.51,2.51,0,0,0-.45.76,2.81,2.81,0,0,0,0,1.81,2.51,2.51,0,0,0,.45.76,2.08,2.08,0,0,0,.71.52,2.24,2.24,0,0,0,1,.19,3,3,0,0,0,.43,0,1.73,1.73,0,0,0,.42-.14,1.36,1.36,0,0,0,.39-.25,1.94,1.94,0,0,0,.34-.4Z"/><path d="M5.66,36.31h.52v2.82h0a1.13,1.13,0,0,1,.22-.27,2,2,0,0,1,.29-.22l.35-.14a1.49,1.49,0,0,1,.36,0,1.37,1.37,0,0,1,1,.37,1.55,1.55,0,0,1,.33,1.06v2.31H8.27v-2a1.73,1.73,0,0,0-.21-.93.87.87,0,0,0-.78-.32l-.22,0a.94.94,0,0,0-.37.17,1.37,1.37,0,0,0-.36.42,1.69,1.69,0,0,0-.15.78v1.87H5.66Z"/><path d="M12.32,40v-.1a.83.83,0,0,0-.93-.94,1.6,1.6,0,0,0-1.12.43L10,39a2.08,2.08,0,0,1,1.54-.53,1.7,1.7,0,0,1,.51.08,1.07,1.07,0,0,1,.43.24,1.33,1.33,0,0,1,.29.4,1.44,1.44,0,0,1,.1.58v1.62c0,.14,0,.29,0,.44s0,.28.05.38h-.5a2.54,2.54,0,0,1,0-.29c0-.1,0-.2,0-.3h0a1.34,1.34,0,0,1-.54.52,1.54,1.54,0,0,1-.75.16,1.76,1.76,0,0,1-.46-.06,1.27,1.27,0,0,1-.4-.21,1,1,0,0,1-.28-.33,1,1,0,0,1-.11-.46,1,1,0,0,1,.23-.7,1.4,1.4,0,0,1,.58-.38,2.87,2.87,0,0,1,.73-.15l.72,0Zm-.26.42a4.54,4.54,0,0,0-.49,0,2.62,2.62,0,0,0-.56.09,1.17,1.17,0,0,0-.46.23.5.5,0,0,0-.19.43.7.7,0,0,0,.07.3.58.58,0,0,0,.2.21.77.77,0,0,0,.28.12,1.55,1.55,0,0,0,.31,0,1.21,1.21,0,0,0,.48-.09,1,1,0,0,0,.35-.25,1,1,0,0,0,.2-.38,1.33,1.33,0,0,0,.07-.45v-.26Z"/><path d="M14.08,39.68c0-.16,0-.32,0-.49s0-.38,0-.64h.5v.67h0a1.28,1.28,0,0,1,.15-.28A1.14,1.14,0,0,1,15,38.7a1,1,0,0,1,.33-.18,1.44,1.44,0,0,1,.82,0L16,39a.8.8,0,0,0-.3,0,1.13,1.13,0,0,0-.51.11,1.23,1.23,0,0,0-.35.29,1.35,1.35,0,0,0-.27.76v2.06h-.51Z"/><path d="M17.35,37.15a.37.37,0,0,1-.11.27.39.39,0,0,1-.52,0,.39.39,0,0,1,0-.54.36.36,0,0,1,.52,0A.37.37,0,0,1,17.35,37.15Zm-.11,5h-.52V38.55h.52Z"/><path d="M20.36,39H19.31v2.15a1.42,1.42,0,0,0,0,.33.62.62,0,0,0,.11.2.42.42,0,0,0,.17.1.71.71,0,0,0,.21,0l.28,0,.25-.1,0,.47a1.68,1.68,0,0,1-.7.13,1.08,1.08,0,0,1-.3,0,.61.61,0,0,1-.29-.14.84.84,0,0,1-.22-.3,1.13,1.13,0,0,1-.09-.49V39H18v-.46h.77v-1h.52v1h1.05Z"/><path d="M22.41,41.56l1.11-3h.62l-1.82,4.59a1.91,1.91,0,0,1-.41.67,1,1,0,0,1-.73.24h-.24a.86.86,0,0,1-.23,0l.05-.5a.8.8,0,0,0,.39.09.58.58,0,0,0,.43-.17,1.71,1.71,0,0,0,.27-.49l.26-.7-1.49-3.68h.64Z"/><path d="M28.85,39H27.8v2.15a1,1,0,0,0,0,.33.39.39,0,0,0,.11.2.34.34,0,0,0,.16.1.78.78,0,0,0,.22,0l.27,0,.26-.1,0,.47a1.6,1.6,0,0,1-.69.13,1.15,1.15,0,0,1-.31,0,.65.65,0,0,1-.29-.14,1,1,0,0,1-.22-.3,1.14,1.14,0,0,1-.08-.49V39h-.77v-.46h.77v-1h.51v1h1.05Z"/><path d="M29.55,36.31h.51v2.82h0a.93.93,0,0,1,.22-.27,1.3,1.3,0,0,1,.29-.22l.35-.14a1.49,1.49,0,0,1,.36,0,1.33,1.33,0,0,1,1,.37,1.5,1.5,0,0,1,.34,1.06v2.31h-.52v-2a1.73,1.73,0,0,0-.21-.93.85.85,0,0,0-.77-.32L31,39a1,1,0,0,0-.38.17,1.35,1.35,0,0,0-.35.42,1.56,1.56,0,0,0-.16.78v1.87h-.51Z"/><path d="M33.93,39.68c0-.16,0-.32,0-.49s0-.38,0-.64h.5v.67h0a1.28,1.28,0,0,1,.15-.28,1.14,1.14,0,0,1,.25-.24,1,1,0,0,1,.33-.18,1.44,1.44,0,0,1,.82,0l-.1.51a.8.8,0,0,0-.3,0,1.13,1.13,0,0,0-.51.11,1.23,1.23,0,0,0-.35.29,1.35,1.35,0,0,0-.27.76v2.06h-.51Z"/><path d="M40.14,40.37a1.91,1.91,0,0,1-.15.76,1.8,1.8,0,0,1-.4.61,1.85,1.85,0,0,1-.61.4,2.24,2.24,0,0,1-1.56,0,2.08,2.08,0,0,1-.61-.4,2,2,0,0,1-.4-.61,2.1,2.1,0,0,1-.14-.76,2.06,2.06,0,0,1,.14-.76,1.85,1.85,0,0,1,.4-.61,1.9,1.9,0,0,1,.61-.4,2.1,2.1,0,0,1,1.56,0,1.79,1.79,0,0,1,1,1A1.87,1.87,0,0,1,40.14,40.37Zm-.57,0a1.79,1.79,0,0,0-.09-.57,1.42,1.42,0,0,0-.28-.46,1.35,1.35,0,0,0-.43-.31,1.53,1.53,0,0,0-1.14,0,1.35,1.35,0,0,0-.43.31,1.24,1.24,0,0,0-.27.46,1.67,1.67,0,0,0,0,1.14,1.29,1.29,0,0,0,.27.45,1.22,1.22,0,0,0,.43.31,1.53,1.53,0,0,0,1.14,0,1.22,1.22,0,0,0,.43-.31,1.48,1.48,0,0,0,.28-.45A1.79,1.79,0,0,0,39.57,40.37Z"/><path d="M43.7,42.19c0-.1,0-.2,0-.29s0-.2,0-.3h0a1.42,1.42,0,0,1-.22.28,1.94,1.94,0,0,1-.29.21,1.51,1.51,0,0,1-.35.14,1.49,1.49,0,0,1-.36.05,1.33,1.33,0,0,1-1-.37,1.52,1.52,0,0,1-.33-1V38.55h.51v2a2.92,2.92,0,0,0,.05.54.92.92,0,0,0,.16.39.6.6,0,0,0,.3.24,1.15,1.15,0,0,0,.48.08l.22,0a.81.81,0,0,0,.37-.17,1.17,1.17,0,0,0,.36-.42,1.63,1.63,0,0,0,.15-.78V38.55h.52v2.84c0,.1,0,.22,0,.37l0,.43Z"/><path d="M45.67,42.92a1.7,1.7,0,0,0,1.4.67,1.86,1.86,0,0,0,.66-.11,1.29,1.29,0,0,0,.44-.31,1.19,1.19,0,0,0,.24-.46,2,2,0,0,0,.07-.55V41.5h0a1.4,1.4,0,0,1-.61.53,1.79,1.79,0,0,1-.76.16,2,2,0,0,1-.74-.14,1.88,1.88,0,0,1-.6-.39,1.85,1.85,0,0,1-.41-.58,2,2,0,0,1-.14-.74,1.81,1.81,0,0,1,.14-.74,1.86,1.86,0,0,1,.38-.6,1.67,1.67,0,0,1,.58-.4,1.86,1.86,0,0,1,.75-.15,1.37,1.37,0,0,1,.34,0,1.56,1.56,0,0,1,.37.1,2.32,2.32,0,0,1,.36.22,1.82,1.82,0,0,1,.34.34h0v-.6H49v3.61a3,3,0,0,1-.07.63,1.49,1.49,0,0,1-.29.61,1.66,1.66,0,0,1-.59.47,2.39,2.39,0,0,1-1,.18,2.47,2.47,0,0,1-1-.17,2.3,2.3,0,0,1-.78-.56Zm.1-2.6a1.4,1.4,0,0,0,.1.54,1.46,1.46,0,0,0,.72.75,1.32,1.32,0,0,0,.53.11,1.35,1.35,0,0,0,.53-.1,1.48,1.48,0,0,0,.45-.28,1.32,1.32,0,0,0,.3-.44,1.54,1.54,0,0,0,.1-.58,1.4,1.4,0,0,0-.1-.54,1.16,1.16,0,0,0-.27-.44A1.35,1.35,0,0,0,47.7,39a1.58,1.58,0,0,0-.58-.11,1.32,1.32,0,0,0-.53.11,1.46,1.46,0,0,0-.72.75A1.4,1.4,0,0,0,45.77,40.32Z"/><path d="M50.15,36.31h.51v2.82h0a1.13,1.13,0,0,1,.22-.27,1.66,1.66,0,0,1,.3-.22l.34-.14a1.64,1.64,0,0,1,.37,0,1.35,1.35,0,0,1,1,.37,1.55,1.55,0,0,1,.33,1.06v2.31h-.51v-2a1.73,1.73,0,0,0-.21-.93.87.87,0,0,0-.78-.32l-.21,0a1,1,0,0,0-.38.17,1.52,1.52,0,0,0-.36.42,1.69,1.69,0,0,0-.15.78v1.87h-.51Z"/><path d="M59.53,41.16l1.86-4.48h.86v5.51h-.56V37.43h0l-2,4.76h-.29l-2-4.76h0v4.76h-.56V36.68h.86Z"/><path d="M65.89,40v-.1a.83.83,0,0,0-.93-.94,1.6,1.6,0,0,0-1.12.43L63.53,39a2.07,2.07,0,0,1,1.54-.53,1.7,1.7,0,0,1,.51.08,1.14,1.14,0,0,1,.43.24,1.3,1.3,0,0,1,.28.4,1.28,1.28,0,0,1,.11.58v1.62c0,.14,0,.29,0,.44s0,.28,0,.38H66a2.54,2.54,0,0,1,0-.29c0-.1,0-.2,0-.3h0a1.32,1.32,0,0,1-.53.52,1.54,1.54,0,0,1-.75.16,1.84,1.84,0,0,1-.47-.06,1.39,1.39,0,0,1-.4-.21,1.12,1.12,0,0,1-.28-.33,1.15,1.15,0,0,1,.13-1.16,1.43,1.43,0,0,1,.57-.38,3,3,0,0,1,.74-.15l.72,0Zm-.27.42a4.36,4.36,0,0,0-.48,0,2.52,2.52,0,0,0-.56.09,1.17,1.17,0,0,0-.46.23.5.5,0,0,0-.19.43.57.57,0,0,0,.27.51.7.7,0,0,0,.28.12l.3,0a1.22,1.22,0,0,0,.49-.09,1.12,1.12,0,0,0,.35-.25,1,1,0,0,0,.2-.38,1.33,1.33,0,0,0,.07-.45v-.26Z"/><path d="M67.65,39.68c0-.16,0-.32,0-.49s0-.38,0-.64h.5v.67h0a1,1,0,0,1,.15-.28,1.14,1.14,0,0,1,.25-.24.88.88,0,0,1,.33-.18,1.43,1.43,0,0,1,.43-.07,1.35,1.35,0,0,1,.38,0l-.1.51a.71.71,0,0,0-.29,0,1.13,1.13,0,0,0-.51.11,1.23,1.23,0,0,0-.35.29,1.35,1.35,0,0,0-.27.76v2.06h-.51Z"/><path d="M70.69,40.19l1.72-1.64h.77l-1.82,1.66,2,2h-.79l-1.89-1.92v1.92h-.52V36.31h.52Z"/><path d="M74.28,40.51a1.74,1.74,0,0,0,.13.51,1.57,1.57,0,0,0,.29.42,1.39,1.39,0,0,0,.41.27,1.25,1.25,0,0,0,.51.1,1.28,1.28,0,0,0,.71-.19,1.39,1.39,0,0,0,.46-.44l.39.33a2,2,0,0,1-.72.59,2,2,0,0,1-.84.18,2,2,0,0,1-.75-.14,1.91,1.91,0,0,1-.6-.4,2.12,2.12,0,0,1-.39-.61,1.9,1.9,0,0,1-.14-.76,1.87,1.87,0,0,1,.14-.76,1.81,1.81,0,0,1,1-1,1.72,1.72,0,0,1,.72-.15,1.75,1.75,0,0,1,.74.15,1.59,1.59,0,0,1,.55.4,1.63,1.63,0,0,1,.34.57,2.05,2.05,0,0,1,.11.7v.24Zm2.47-.42a1.17,1.17,0,0,0-.31-.85,1.15,1.15,0,0,0-.87-.32,1.18,1.18,0,0,0-.48.1,1.25,1.25,0,0,0-.41.26,1.44,1.44,0,0,0-.28.37,1,1,0,0,0-.1.44Z"/><path d="M80.13,39h-1v2.15a1,1,0,0,0,0,.33.48.48,0,0,0,.11.2.37.37,0,0,0,.17.1.68.68,0,0,0,.21,0l.27,0,.26-.1,0,.47a1.6,1.6,0,0,1-.69.13,1.15,1.15,0,0,1-.31,0,.71.71,0,0,1-.29-.14,1,1,0,0,1-.22-.3,1.32,1.32,0,0,1-.08-.49V39H77.8v-.46h.77v-1h.51v1h1Z"/><path d="M80.83,38.55h.51v.6h0a1.23,1.23,0,0,1,.29-.31,1.74,1.74,0,0,1,.36-.22,2,2,0,0,1,.39-.13,2.58,2.58,0,0,1,.38,0,2,2,0,0,1,.78.15,1.8,1.8,0,0,1,.61.4,1.85,1.85,0,0,1,.4.61,2.06,2.06,0,0,1,.14.76,2.1,2.1,0,0,1-.14.76,1.79,1.79,0,0,1-1,1,2.21,2.21,0,0,1-.78.14,1.69,1.69,0,0,1-.38,0,1.46,1.46,0,0,1-.39-.12,2.32,2.32,0,0,1-.36-.22,1.28,1.28,0,0,1-.29-.32h0v2.85h-.51Zm3.32,1.82a1.56,1.56,0,0,0-.1-.57,1.24,1.24,0,0,0-.27-.46,1.29,1.29,0,0,0-1-.42,1.59,1.59,0,0,0-.59.11,1.62,1.62,0,0,0-.46.31,1.31,1.31,0,0,0-.3.46,1.53,1.53,0,0,0,0,1.14,1.37,1.37,0,0,0,.3.45,1.44,1.44,0,0,0,.46.31,1.41,1.41,0,0,0,.59.11,1.29,1.29,0,0,0,1-.42,1.29,1.29,0,0,0,.27-.45A1.56,1.56,0,0,0,84.15,40.37Z"/><path d="M86.21,42.19H85.7V36.31h.51Z"/><path d="M89.78,40v-.1a.83.83,0,0,0-.93-.94,1.56,1.56,0,0,0-1.11.43L87.43,39A2.05,2.05,0,0,1,89,38.45a1.81,1.81,0,0,1,.51.08,1.1,1.1,0,0,1,.42.24,1.18,1.18,0,0,1,.29.4,1.43,1.43,0,0,1,.11.58v1.62a3.31,3.31,0,0,0,0,.44,3.18,3.18,0,0,0,0,.38h-.5a2.58,2.58,0,0,1,0-.29c0-.1,0-.2,0-.3h0a1.38,1.38,0,0,1-.53.52,1.61,1.61,0,0,1-.76.16,1.76,1.76,0,0,1-.46-.06,1.27,1.27,0,0,1-.4-.21,1,1,0,0,1-.28-.33,1,1,0,0,1-.11-.46,1,1,0,0,1,.23-.7,1.54,1.54,0,0,1,.58-.38,3,3,0,0,1,.74-.15l.72,0Zm-.26.42a4.63,4.63,0,0,0-.49,0,2.62,2.62,0,0,0-.56.09,1.17,1.17,0,0,0-.46.23.53.53,0,0,0-.19.43.58.58,0,0,0,.08.3.55.55,0,0,0,.19.21.77.77,0,0,0,.28.12,1.55,1.55,0,0,0,.31,0,1.14,1.14,0,0,0,.48-.09,1,1,0,0,0,.35-.25,1.17,1.17,0,0,0,.21-.38,1.63,1.63,0,0,0,.06-.45v-.26Z"/><path d="M94.14,39.4a1.11,1.11,0,0,0-.37-.34,1.09,1.09,0,0,0-.54-.14,1.48,1.48,0,0,0-.57.1,1.13,1.13,0,0,0-.43.31,1.42,1.42,0,0,0-.28.46,1.81,1.81,0,0,0-.09.58A1.85,1.85,0,0,0,92,41a1.42,1.42,0,0,0,.28.46,1.11,1.11,0,0,0,.43.3,1.19,1.19,0,0,0,.57.1,1.08,1.08,0,0,0,.54-.13,1.13,1.13,0,0,0,.37-.35l.42.32a1.73,1.73,0,0,1-.62.47,1.71,1.71,0,0,1-.71.16,1.87,1.87,0,0,1-.8-.14,1.51,1.51,0,0,1-.61-.4,1.68,1.68,0,0,1-.39-.61,2.09,2.09,0,0,1-.13-.76,2.15,2.15,0,0,1,.13-.77,1.77,1.77,0,0,1,.39-.61,1.75,1.75,0,0,1,.61-.4,2.24,2.24,0,0,1,.8-.14,1.89,1.89,0,0,1,.71.16,1.73,1.73,0,0,1,.62.47Z"/><path d="M95.59,40.51a1.49,1.49,0,0,0,.14.51,1.34,1.34,0,0,0,.28.42,1.32,1.32,0,0,0,.42.27,1.18,1.18,0,0,0,.5.1,1.26,1.26,0,0,0,.71-.19,1.39,1.39,0,0,0,.46-.44l.4.33a2,2,0,0,1-.72.59,2.09,2.09,0,0,1-1.6,0,1.76,1.76,0,0,1-.59-.4,2,2,0,0,1-.4-.61,2.1,2.1,0,0,1-.14-.76,2.06,2.06,0,0,1,.14-.76,1.81,1.81,0,0,1,1-1,1.77,1.77,0,0,1,.73-.15,1.7,1.7,0,0,1,.73.15,1.59,1.59,0,0,1,.55.4,1.63,1.63,0,0,1,.34.57,2.06,2.06,0,0,1,.12.7v.24Zm2.48-.42a1.22,1.22,0,0,0-.31-.85,1.18,1.18,0,0,0-.87-.32,1.19,1.19,0,0,0-.49.1,1.36,1.36,0,0,0-.41.26,1.44,1.44,0,0,0-.28.37,1,1,0,0,0-.1.44Z"/><path d="M8.82,29.53a8.12,8.12,0,0,1-6.31-2.8A10.25,10.25,0,0,1,0,19.63v-1a10.57,10.57,0,0,1,2.49-7.19,7.77,7.77,0,0,1,6-2.85,7.48,7.48,0,0,1,5.84,2.35,9,9,0,0,1,2.13,6.28v1.9H2.24v.54a8.94,8.94,0,0,0,1.81,5.7,5.79,5.79,0,0,0,4.77,2.3,9.87,9.87,0,0,0,3.56-.58,7.1,7.1,0,0,0,2.53-1.66l.95,1.53A8,8,0,0,1,13,28.82,10.86,10.86,0,0,1,8.82,29.53ZM8.54,10.46a5.35,5.35,0,0,0-4.17,1.89,8.14,8.14,0,0,0-2,4.74l0,.1H14.29v-.56a6.46,6.46,0,0,0-1.55-4.4A5.3,5.3,0,0,0,8.54,10.46Z"/><path class="cls-1" d="M22.92,8.93l.21,3.53a7.14,7.14,0,0,1,2.62-2.89,7.3,7.3,0,0,1,3.91-1,6.23,6.23,0,0,1,5,2c1.14,1.34,1.72,3.43,1.72,6.27V29.14H34.15V16.82c0-2.32-.44-4-1.3-4.92a4.73,4.73,0,0,0-3.69-1.44,5.78,5.78,0,0,0-3.84,1.25A7,7,0,0,0,23.18,15V29.14H20.94V8.93Z"/><path d="M49.72,27.63a6.38,6.38,0,0,0,3.93-1.27,4.13,4.13,0,0,0,1.7-3.51h2l0,.11a5.52,5.52,0,0,1-2.24,4.69,8.35,8.35,0,0,1-5.4,1.88,7.66,7.66,0,0,1-6.37-2.83,11.31,11.31,0,0,1-2.25-7.27v-.79a11.33,11.33,0,0,1,2.25-7.25,7.67,7.67,0,0,1,6.36-2.83,8,8,0,0,1,5.53,2,6.31,6.31,0,0,1,2.14,5.15l0,.11h-2a4.92,4.92,0,0,0-1.64-3.87,5.79,5.79,0,0,0-4-1.45,5.4,5.4,0,0,0-4.81,2.32,10.28,10.28,0,0,0-1.56,5.85v.79a10.3,10.3,0,0,0,1.55,5.89A5.38,5.38,0,0,0,49.72,27.63Z"/><path d="M64.29,12.38A7.6,7.6,0,0,1,67,9.56a7.51,7.51,0,0,1,3.93-1,6.12,6.12,0,0,1,4.9,2c1.14,1.32,1.71,3.36,1.71,6.14V29.14H75.28V16.62c0-2.2-.44-3.77-1.3-4.73a4.61,4.61,0,0,0-3.58-1.43,6,6,0,0,0-3.84,1.21,7.06,7.06,0,0,0-2.27,3.21V29.14H62.05V0h2.24Z"/><path d="M90.93,29.53a8.08,8.08,0,0,1-6.3-2.8,10.21,10.21,0,0,1-2.52-7.1v-1a10.58,10.58,0,0,1,2.5-7.19,7.75,7.75,0,0,1,6-2.85,7.49,7.49,0,0,1,5.85,2.35,9,9,0,0,1,2.13,6.28v1.9H84.36v.54a8.88,8.88,0,0,0,1.81,5.7,5.77,5.77,0,0,0,4.76,2.3,9.89,9.89,0,0,0,3.57-.58A7.14,7.14,0,0,0,97,25.39l1,1.53a8.09,8.09,0,0,1-2.88,1.9A10.91,10.91,0,0,1,90.93,29.53Zm-.28-19.07a5.33,5.33,0,0,0-4.16,1.89,8.15,8.15,0,0,0-2,4.74l0,.1H96.4v-.56a6.41,6.41,0,0,0-1.55-4.4A5.29,5.29,0,0,0,90.65,10.46Z"/></g></g></svg>