<svg xmlns="http://www.w3.org/2000/svg" viewBox="0 0 70.87 70.87"><defs><style>.cls-1{fill:#dbeccf;}.cls-2{fill:#979898;}.cls-3,.cls-7{opacity:0.2;}.cls-4{fill:#f2a057;}.cls-5{fill:#2e132c;}.cls-6{fill:#c6c5c5;}.cls-8{fill:#fff;}</style></defs><g id="Layer_2" data-name="Layer 2"><g id="AW"><circle class="cls-1" cx="35.43" cy="35.43" r="35.43" transform="translate(-14.68 35.43) rotate(-45)"/><path class="cls-2" d="M34.9,25a.11.11,0,0,1-.08,0,1.34,1.34,0,0,1-.46-1,1.26,1.26,0,0,1,1.21-1.29l.21,0a1.4,1.4,0,0,1-.11-.53,1.26,1.26,0,0,1,1.21-1.29H37a1.36,1.36,0,0,1-.2-.71,1.25,1.25,0,0,1,1.2-1.3,1.34,1.34,0,0,1-.27-.81,1.26,1.26,0,0,1,1.15-1.29,1.34,1.34,0,0,1-.35-.91,1.29,1.29,0,0,1,1-1.28,1.33,1.33,0,0,1,.43-2.15,1.34,1.34,0,0,1,.36-2.27,1.34,1.34,0,0,1-.46-1,1.31,1.31,0,0,1,.57-1.1A1.31,1.31,0,0,1,39.84,7a1.33,1.33,0,0,1,.29-.85,1.33,1.33,0,0,1-.34-.91A1.29,1.29,0,0,1,40.63,4h.13a1.61,1.61,0,0,1,1,.55c.11.09.2.18.3.25a17.69,17.69,0,0,0,3,1.81A13.72,13.72,0,0,0,50.93,8l.71,0h0a.14.14,0,0,1,.13.12,14.4,14.4,0,0,0,5.62,9,.14.14,0,0,1,.07.11.16.16,0,0,1-.06.12s-2.52,2.19-2.4,7.56a.14.14,0,0,1-.13.15Z"/><path class="cls-3" d="M57.4,17.09a14.4,14.4,0,0,1-5.62-9A.14.14,0,0,0,51.65,8h0l-.71,0q-.39,0-.78,0l0,.82a.14.14,0,0,1,.09.12,14.44,14.44,0,0,0,5.62,9,.15.15,0,0,1,0,.24,8.2,8.2,0,0,0-2.19,4.65H35.14a1.3,1.3,0,0,0-.78,1.2,1.34,1.34,0,0,0,.46,1,.11.11,0,0,0,.08,0h20L55,25h0a.15.15,0,0,0,0-.11c0-.18,0-.36,0-.54v-.11c0-.14,0-.28,0-.42a.19.19,0,0,1,0-.08,3.15,3.15,0,0,1,0-.44v0c0-.16,0-.32,0-.47.45-3.84,2.28-5.44,2.3-5.46a.16.16,0,0,0,.06-.12A.14.14,0,0,0,57.4,17.09Z"/><path class="cls-4" d="M42,60.87a7.84,7.84,0,0,1-2.51-1.82,8.48,8.48,0,0,1-1.7-2.69,9.09,9.09,0,0,1,0-6.6,8.52,8.52,0,0,1,1.7-2.7A8,8,0,0,1,42,45.25a7.41,7.41,0,0,1,6.16,0,8,8,0,0,1,2.51,1.81,8.52,8.52,0,0,1,1.7,2.7,9.09,9.09,0,0,1,0,6.6,8.48,8.48,0,0,1-1.7,2.69,7.84,7.84,0,0,1-2.51,1.82"/><path class="cls-4" d="M45.43,60.5A6.35,6.35,0,0,0,47.5,60l-2.07-5Z"/><path class="cls-4" d="M43,60.17a6.31,6.31,0,0,0,1.72.33V55.36Z"/><path class="cls-4" d="M40.45,58.65a7,7,0,0,0,1.79,1.23l1.81-5.09Z"/><path class="cls-4" d="M48.2,59.71a6.83,6.83,0,0,0,1.45-1.06L46.24,55Z"/><path class="cls-4" d="M38.89,56.54a8,8,0,0,0,1,1.54l3.42-3.66Z"/><path class="cls-4" d="M50.2,58.08a7.75,7.75,0,0,0,1.18-1.9l-4.79-2Z"/><path class="cls-4" d="M38.1,53.56a8.13,8.13,0,0,0,.47,2.24l4.69-2.24Z"/><path class="cls-4" d="M51.66,55.41A8.27,8.27,0,0,0,52,53.56H47.12Z"/><path class="cls-4" d="M52,52.74a8.29,8.29,0,0,0-.43-2.27l-4.74,2.27Z"/><path class="cls-4" d="M43,52.74,38.4,50.86a7.45,7.45,0,0,0-.3,1.88Z"/><path class="cls-4" d="M43.51,52.08l-3.68-3.95a7.18,7.18,0,0,0-1.17,2Z"/><path class="cls-4" d="M46.78,51.87l4.5-2.15a7.27,7.27,0,0,0-1-1.59Z"/><path class="cls-4" d="M46.05,51.5l3.69-4a6.9,6.9,0,0,0-1.82-1.28Z"/><path class="cls-4" d="M43.86,51.29l-2-4.85a7.2,7.2,0,0,0-1.48,1.1Z"/><path class="cls-4" d="M44.67,51.22V45.61a6.54,6.54,0,0,0-2.14.49Z"/><path class="cls-4" d="M45.43,50.93l1.78-5a6.77,6.77,0,0,0-1.78-.35Z"/><path class="cls-5" d="M38,53.33a7.9,7.9,0,0,0,.53,2.5l5.23-2.5Zm.23.23h4.54l-4.13,2A7.76,7.76,0,0,1,38.22,53.56Z"/><path class="cls-5" d="M38.75,56.37a7.22,7.22,0,0,0,1.15,1.76L43.79,54Zm.29.11,3.8-1.82L39.91,57.8A6.85,6.85,0,0,1,39,56.48Z"/><path class="cls-5" d="M41.89,46.17a7.11,7.11,0,0,0-1.68,1.26l4,4.26Zm-.1.31,1.74,4.18-3-3.22A7,7,0,0,1,41.79,46.48Z"/><path class="cls-5" d="M39.82,47.85A7.89,7.89,0,0,0,38.52,50l5.41,2.22Zm0,.33,3.26,3.49L38.8,49.91A7.76,7.76,0,0,1,39.83,48.18Z"/><path class="cls-5" d="M38.33,50.6A7.49,7.49,0,0,0,38,52.74h5.56Zm.13.29,3.95,1.62h-4.2A8,8,0,0,1,38.46,50.89Z"/><path class="cls-5" d="M45.33,60.51A7,7,0,0,0,47.65,60l-2.32-5.56Zm.21-5,1.82,4.38a6.33,6.33,0,0,1-1.82.41Z"/><path class="cls-5" d="M50.2,58.13A7.86,7.86,0,0,0,51.52,56l-5.35-2.19Zm0-.33L47,54.4l4.22,1.73A7.19,7.19,0,0,1,50.19,57.8Z"/><path class="cls-5" d="M51.72,55.45a8.2,8.2,0,0,0,.39-2.12H46.55Zm-.13-.3-3.9-1.59h4.19A7.69,7.69,0,0,1,51.59,55.15Z"/><path class="cls-5" d="M46.35,52.74h5.76a7.78,7.78,0,0,0-.47-2.53Zm1-.23,4.18-2a7.52,7.52,0,0,1,.37,2Z"/><path class="cls-5" d="M48.15,59.75a7.27,7.27,0,0,0,1.65-1.2l-3.88-4.17Zm.1-.31-1.68-4,2.93,3.14A7.34,7.34,0,0,1,48.25,59.44Z"/><path class="cls-5" d="M48.17,60.86A8.23,8.23,0,0,0,50.72,59a8.9,8.9,0,0,0,1.72-2.73,9.2,9.2,0,0,0,0-6.69,8.9,8.9,0,0,0-1.72-2.73A7.91,7.91,0,0,0,48.17,45a7.6,7.6,0,0,0-6.24,0,7.91,7.91,0,0,0-2.55,1.84,8.9,8.9,0,0,0-1.72,2.73,9.2,9.2,0,0,0,0,6.69A8.9,8.9,0,0,0,39.38,59a8.23,8.23,0,0,0,2.55,1.84"/><path class="cls-5" d="M45.05,61.31a7.43,7.43,0,0,1-3-.66,7.9,7.9,0,0,1-2.48-1.79,8.26,8.26,0,0,1-1.67-2.66,8.85,8.85,0,0,1,0-6.51A8.26,8.26,0,0,1,39.53,47,7.74,7.74,0,0,1,42,45.24a7.33,7.33,0,0,1,6.08,0A7.74,7.74,0,0,1,50.57,47a8.26,8.26,0,0,1,1.67,2.66,8.85,8.85,0,0,1,0,6.51,8.26,8.26,0,0,1-1.67,2.66,7.9,7.9,0,0,1-2.48,1.79,7.43,7.43,0,0,1-3,.66"/><path class="cls-5" d="M49.89,47.43a7,7,0,0,0-2-1.43l-2.09,5.84ZM48,46.3a7.14,7.14,0,0,1,1.61,1.14l-3.27,3.49Z"/><path class="cls-5" d="M44.77,60.51V54.64l-2,5.49A6.75,6.75,0,0,0,44.77,60.51Zm-.21-.24A6.18,6.18,0,0,1,43.09,60l1.47-4.12Z"/><path class="cls-5" d="M44.77,51.64V45.38a6.58,6.58,0,0,0-2.38.55Zm-.21-1.06-1.89-4.53a6.49,6.49,0,0,1,1.89-.43Z"/><path class="cls-5" d="M40.3,58.55a7,7,0,0,0,2,1.37l2-5.69Zm1.88,1.07a7.37,7.37,0,0,1-1.58-1.08l3.18-3.4Z"/><path class="cls-5" d="M45.33,45.38v6l2-5.65A6.71,6.71,0,0,0,45.33,45.38Zm.21.24a6.69,6.69,0,0,1,1.53.3l-1.53,4.29Z"/><path class="cls-5" d="M51.42,49.66a7.69,7.69,0,0,0-1.14-1.81l-4,4.26Zm-.29-.11L47.26,51.4l3-3.22A7.71,7.71,0,0,1,51.13,49.55Z"/><path class="cls-5" d="M57.48,17a14.24,14.24,0,0,1-5.57-8.9.27.27,0,0,0-.26-.24h0l-.7,0a13.59,13.59,0,0,1-5.86-1.42,18.23,18.23,0,0,1-3-1.8l-.28-.24a1.73,1.73,0,0,0-1.06-.58H40.6a1.41,1.41,0,0,0-.94,1.37,1.44,1.44,0,0,0,.3.91A1.5,1.5,0,0,0,39.7,7a1.46,1.46,0,0,0,.48,1.1,1.46,1.46,0,0,0-.48,1.1,1.53,1.53,0,0,0,.36,1,1.46,1.46,0,0,0-.73,1.28,1.49,1.49,0,0,0,.37,1,1.46,1.46,0,0,0-.7,1.26,1.49,1.49,0,0,0,.27.86,1.44,1.44,0,0,0-.88,1.35,1.56,1.56,0,0,0,.23.8,1.44,1.44,0,0,0-1,1.4,1.59,1.59,0,0,0,.16.69,1.42,1.42,0,0,0-1.1,1.42,1.56,1.56,0,0,0,.11.57,1.4,1.4,0,0,0-1.23,1.43,2.21,2.21,0,0,0,0,.37h0A1.39,1.39,0,0,0,34.23,24a1.5,1.5,0,0,0,.51,1.13.23.23,0,0,0,.16.06h20a.27.27,0,0,0,.19-.08.31.31,0,0,0,.07-.21c-.11-5.29,2.33-7.43,2.36-7.45a.35.35,0,0,0,.1-.24A.29.29,0,0,0,57.48,17Zm-2.6,7.92h-20a1.23,1.23,0,0,1-.4-.91,1.12,1.12,0,0,1,1.07-1.15,1,1,0,0,1,.55.16,1.2,1.2,0,0,1-.31-.81A1.11,1.11,0,0,1,36.88,21a1.08,1.08,0,0,1,.59.18v0a1.15,1.15,0,0,1-.55-1A1.12,1.12,0,0,1,38,19a1.06,1.06,0,0,1,.5.13v0a1.17,1.17,0,0,1-.65-1.06,1.12,1.12,0,0,1,1.08-1.15,1,1,0,0,1,.43.09l0-.05a1.15,1.15,0,0,1-.73-1.09,1.12,1.12,0,0,1,1.08-1.16.83.83,0,0,1,.22,0,1.15,1.15,0,0,1-.69-1.08,1.12,1.12,0,0,1,1.07-1.15h0a1.14,1.14,0,0,1-.76-1.1,1.12,1.12,0,0,1,1.07-1.16h.07a1.18,1.18,0,0,1,0-2.21A1.14,1.14,0,0,1,40,7a1.22,1.22,0,0,1,.35-.86,1.19,1.19,0,0,1-.4-.9,1.15,1.15,0,0,1,.73-1.09h.11c.43,0,.84.51,1.19.77a18.18,18.18,0,0,0,3,1.83,14,14,0,0,0,6,1.44c.24,0,.48,0,.72,0a14.58,14.58,0,0,0,5.68,9.1S54.76,19.37,54.88,24.89Z"/><path class="cls-6" d="M15.73,26.29a.87.87,0,0,1-.84-.89c0-1.33.08-2.73.15-4.09.18-3.28.36-6.67-.43-9.59A3,3,0,0,0,13.2,9.88a2.7,2.7,0,0,0-1.33-.37,2.27,2.27,0,0,0-.77.13,3,3,0,0,0-1.83,3.13,1.19,1.19,0,0,0,1.17,1h.19A1.4,1.4,0,0,0,11,13.6a1.43,1.43,0,0,1-.5-1.09,1.29,1.29,0,1,1,2.58,0v.07a2.6,2.6,0,0,1-2.17,2.9,2.12,2.12,0,0,1-.44,0A2.81,2.81,0,0,1,9,15.09a3,3,0,0,1-1.29-1.88,4.39,4.39,0,0,1,.57-3.27,4.59,4.59,0,0,1,2.37-2,3.93,3.93,0,0,1,1.27-.21A4.28,4.28,0,0,1,14,8.3a4.83,4.83,0,0,1,2.23,2.92c.86,3.22.67,6.76.49,10.19-.08,1.39-.15,2.71-.15,4A.86.86,0,0,1,15.73,26.29Z"/><g class="cls-7"><path d="M16.15,11.15a4.83,4.83,0,0,0-2.23-2.92,4.25,4.25,0,0,0-2.12-.58,3.87,3.87,0,0,0-1.26.21,3.77,3.77,0,0,0-.81.39,4,4,0,0,1,1.14-.17A4.25,4.25,0,0,1,13,8.66a4.83,4.83,0,0,1,2.23,2.92c.86,3.22.67,6.76.49,10.18-.08,1.4-.15,2.71-.15,4a.93.93,0,0,1-.11.44.76.76,0,0,0,.21,0,.87.87,0,0,0,.84-.89c0-1.28.07-2.6.14-4C16.82,17.91,17,14.37,16.15,11.15Z"/><path d="M13,12.44a1.34,1.34,0,0,0-1.29-1.39,1.24,1.24,0,0,0-.93.43,1.34,1.34,0,0,1,1.29,1.38v.08A2.7,2.7,0,0,1,11,15.38a2.64,2.64,0,0,0,2-2.87Z"/></g><path class="cls-5" d="M16.34,11.18a4.92,4.92,0,0,0-2.29-3,4.39,4.39,0,0,0-2.18-.6,4.22,4.22,0,0,0-1.31.21A4.7,4.7,0,0,0,8.12,9.87a4.57,4.57,0,0,0-.59,3.38,3.19,3.19,0,0,0,1.35,2,2.89,2.89,0,0,0,1.56.45,3.55,3.55,0,0,0,.46,0,2.77,2.77,0,0,0,2.29-3.06v-.06A1.49,1.49,0,0,0,11.76,11a1.48,1.48,0,0,0-1.42,1.53,1.6,1.6,0,0,0,.38,1l-.11,0h-.17a1.06,1.06,0,0,1-1-.86,2.83,2.83,0,0,1,1.74-3,2.28,2.28,0,0,1,.73-.12,2.47,2.47,0,0,1,1.27.36,2.85,2.85,0,0,1,1.34,1.74c.78,2.91.6,6.28.43,9.55-.07,1.36-.15,2.77-.15,4.1a1,1,0,1,0,1.94,0c0-1.27.07-2.59.14-4C17,18,17.21,14.43,16.34,11.18Zm.24,10.22c-.08,1.4-.15,2.72-.15,4a.7.7,0,1,1-1.4,0c0-1.33.07-2.73.14-4.09.18-3.28.36-6.68-.43-9.63a3.19,3.19,0,0,0-1.48-1.93,2.82,2.82,0,0,0-1.39-.38,2.54,2.54,0,0,0-.81.13,3.11,3.11,0,0,0-1.92,3.3,1.34,1.34,0,0,0,1.3,1.08l.21,0a1.2,1.2,0,0,0,.56-.26,1.25,1.25,0,0,1-.6-1.09,1.16,1.16,0,1,1,2.31,0v.06h0a2.49,2.49,0,0,1-2.06,2.76,2,2,0,0,1-.42,0A2.59,2.59,0,0,1,9,15a2.88,2.88,0,0,1-1.24-1.78A4.29,4.29,0,0,1,8.34,10a4.47,4.47,0,0,1,2.3-2,4,4,0,0,1,1.23-.2,4.11,4.11,0,0,1,2.06.57,4.71,4.71,0,0,1,2.16,2.83C17,14.46,16.76,18,16.58,21.4Z"/><path class="cls-2" d="M36.67,42.67A50.08,50.08,0,0,1,28,41.85c-.09,0-10.56-1-12.31-9.05,0-.08-.85-6.08-2.66-6.36h0a1.16,1.16,0,0,1,0-2.31h42a1.16,1.16,0,0,1,0,2.31h-.18c.06,2.91-.32,9.65-4.69,13C50.14,39.45,45.94,42.67,36.67,42.67Z"/><g class="cls-7"><path d="M55.14,24.27h-.3a1.12,1.12,0,0,1-1.08,1.13h-.17c0,2.9-.33,9.64-4.69,13,0,0-4.25,3.25-13.52,3.25a49,49,0,0,1-8.68-.82,18.65,18.65,0,0,1-8.36-3.13C22,41.42,28,42,28.07,42a49,49,0,0,0,8.69.82c9.27,0,13.47-3.22,13.51-3.25,4.37-3.33,4.75-10.07,4.69-13h.18a1.16,1.16,0,0,0,0-2.31Z"/></g><path class="cls-5" d="M55.05,24H13a1.3,1.3,0,0,0,0,2.59c1.41.26,2.3,4.58,2.52,6.22v0c.74,3.38,3.13,6,6.92,7.69A19.68,19.68,0,0,0,28,42a49.23,49.23,0,0,0,8.7.82c9.32,0,13.42-3.14,13.59-3.28,4.35-3.31,4.79-9.94,4.75-13h0a1.3,1.3,0,0,0,0-2.59Zm0,2.31h-.31c.07,2.83-.25,9.66-4.63,13,0,0-4.1,3.23-13.44,3.23A49.72,49.72,0,0,1,28,41.71s-10.46-.9-12.21-9c0,0-.84-6.16-2.77-6.46a1,1,0,0,1,0-2h42a1,1,0,0,1,0,2Z"/><path class="cls-6" d="M45.61,53.17h0a.89.89,0,0,1-.58-.55.77.77,0,0,1,.08-.59l0,0,1.72-1.34,0,0c.74-.62,1.58-1.23,2.38-1.81A19.88,19.88,0,0,0,54,44.48a2.27,2.27,0,0,0,.34-1.6,2,2,0,0,0-.75-1.33,1.82,1.82,0,0,0-1.08-.33,1.54,1.54,0,0,0-1.27.57.87.87,0,0,0,.08,1.15.58.58,0,0,0,.14.12,1,1,0,0,1,.47-.8.86.86,0,0,1,.47-.14.93.93,0,0,1,.68.31,1.07,1.07,0,0,1-.1,1.51l0,0a1.71,1.71,0,0,1-2.49-.06,2.33,2.33,0,0,1-.63-1.35,2.24,2.24,0,0,1,.44-1.6,2.69,2.69,0,0,1,2-1.07h.29a3,3,0,0,1,1.79.58,3.37,3.37,0,0,1,1.27,2.21,3.6,3.6,0,0,1-.58,2.6,20.58,20.58,0,0,1-5.1,4.65c-.76.55-1.48,1.06-2.14,1.61a.51.51,0,0,1-.16.09l-1.94,1.52A.11.11,0,0,1,45.61,53.17Z"/><g class="cls-7"><path d="M55.55,42.72a3.29,3.29,0,0,0-1.26-2.21,2.94,2.94,0,0,0-1.8-.58H52.2l-.26,0a3,3,0,0,1,1.73.57,3.34,3.34,0,0,1,1.26,2.22,3.63,3.63,0,0,1-.58,2.6A20.74,20.74,0,0,1,49.25,50c-.76.55-1.47,1.07-2.14,1.61a.44.44,0,0,1-.16.1l-1.7,1.34a.93.93,0,0,0,.26.15h.05a.11.11,0,0,0,.08,0l1.93-1.52a.56.56,0,0,0,.17-.09c.66-.55,1.38-1.07,2.13-1.62A20.59,20.59,0,0,0,55,45.32,3.67,3.67,0,0,0,55.55,42.72Z"/></g><path class="cls-5" d="M55.73,42.65a3.51,3.51,0,0,0-1.32-2.31,3.09,3.09,0,0,0-1.87-.6h-.3a2.83,2.83,0,0,0-2.07,1.12,2.43,2.43,0,0,0-.46,1.71A2.45,2.45,0,0,0,50.38,44a1.93,1.93,0,0,0,1.37.61A1.86,1.86,0,0,0,53,44.08l0,0a1.24,1.24,0,0,0,.42-.83,1.22,1.22,0,0,0-.3-.89,1,1,0,0,0-.78-.36,1.06,1.06,0,0,0-.54.16,1.16,1.16,0,0,0-.49.66.73.73,0,0,1,0-.92,1.41,1.41,0,0,1,1.17-.52,1.75,1.75,0,0,1,1,.31,1.88,1.88,0,0,1,.69,1.23,2.11,2.11,0,0,1-.32,1.49,19.59,19.59,0,0,1-4.77,4.3c-.81.59-1.65,1.19-2.39,1.82l0,0L45,51.86l-.06.08a.91.91,0,0,0-.1.71,1.06,1.06,0,0,0,.66.65l.1,0a.22.22,0,0,0,.15-.06l1.92-1.51a.54.54,0,0,0,.18-.11c.66-.54,1.38-1.06,2.13-1.6a21.06,21.06,0,0,0,5.14-4.68A3.86,3.86,0,0,0,55.73,42.65Zm-.82,2.54a20.7,20.7,0,0,1-5.07,4.61c-.76.55-1.47,1.07-2.14,1.61a.42.42,0,0,1-.14.09l-2,1.53c-.81-.33-.44-.94-.44-.94l1.74-1.35h0c.74-.62,1.58-1.22,2.38-1.81a19.68,19.68,0,0,0,4.83-4.36,2.37,2.37,0,0,0,.37-1.7,2.1,2.1,0,0,0-.8-1.42,2,2,0,0,0-1.16-.36,1.68,1.68,0,0,0-1.38.62,1,1,0,0,0,.1,1.35.81.81,0,0,0,.37.22.89.89,0,0,1,.4-.89.79.79,0,0,1,1,.15.92.92,0,0,1-.09,1.3l0,0h0a1.65,1.65,0,0,1-1.13.48,1.71,1.71,0,0,1-1.19-.53A2.27,2.27,0,0,1,50,42.54a2.19,2.19,0,0,1,.41-1.5,2.62,2.62,0,0,1,1.88-1h.28a2.88,2.88,0,0,1,1.72.56,3.2,3.2,0,0,1,1.21,2.11A3.5,3.5,0,0,1,54.91,45.19Z"/><path class="cls-6" d="M45.13,55.11a2.19,2.19,0,1,1,2-2.19A2.12,2.12,0,0,1,45.13,55.11Z"/><path class="cls-5" d="M45.13,50.61a2.31,2.31,0,1,0,2.15,2.31A2.24,2.24,0,0,0,45.13,50.61Zm0,4.39a2.09,2.09,0,1,1,1.94-2.08A2,2,0,0,1,45.13,55Z"/><path class="cls-4" d="M21.11,60.87a7.88,7.88,0,0,1-2.52-1.82,8.63,8.63,0,0,1-1.69-2.69,9,9,0,0,1,0-6.6,8.67,8.67,0,0,1,1.69-2.7,8,8,0,0,1,2.52-1.81,7.41,7.41,0,0,1,6.16,0,8.08,8.08,0,0,1,2.51,1.81,8.52,8.52,0,0,1,1.7,2.7,9.09,9.09,0,0,1,0,6.6,8.48,8.48,0,0,1-1.7,2.69,8,8,0,0,1-2.51,1.82"/><path class="cls-4" d="M24.57,60.5A6.41,6.41,0,0,0,26.64,60l-2.07-5Z"/><path class="cls-4" d="M22.09,60.17a6.24,6.24,0,0,0,1.71.33V55.36Z"/><path class="cls-4" d="M19.59,58.65a6.75,6.75,0,0,0,1.78,1.23l1.82-5.09Z"/><path class="cls-4" d="M27.34,59.71a7.1,7.1,0,0,0,1.45-1.06L25.38,55Z"/><path class="cls-4" d="M18,56.54a7.18,7.18,0,0,0,1,1.54l3.41-3.66Z"/><path class="cls-4" d="M29.33,58.08a7.46,7.46,0,0,0,1.18-1.9l-4.79-2Z"/><path class="cls-4" d="M17.24,53.56a7.78,7.78,0,0,0,.47,2.24l4.68-2.24Z"/><path class="cls-4" d="M30.79,55.41a7.74,7.74,0,0,0,.34-1.85H26.26Z"/><path class="cls-4" d="M31.14,52.74a7.92,7.92,0,0,0-.42-2.27L26,52.74Z"/><path class="cls-4" d="M22.12,52.74l-4.59-1.88a8.48,8.48,0,0,0-.3,1.88Z"/><path class="cls-4" d="M22.65,52.08,19,48.13a7.41,7.41,0,0,0-1.16,2Z"/><path class="cls-4" d="M25.92,51.87l4.49-2.15a7.23,7.23,0,0,0-1-1.59Z"/><path class="cls-4" d="M25.18,51.5l3.69-4a6.74,6.74,0,0,0-1.82-1.28Z"/><path class="cls-4" d="M23,51.29l-2-4.85a7.14,7.14,0,0,0-1.47,1.1Z"/><path class="cls-4" d="M23.8,51.22V45.61a6.54,6.54,0,0,0-2.13.49Z"/><path class="cls-4" d="M24.57,50.93l1.77-5a6.7,6.7,0,0,0-1.77-.35Z"/><path class="cls-5" d="M25.49,52.74h5.76a8.05,8.05,0,0,0-.47-2.53Zm1-.23,4.19-2a7.94,7.94,0,0,1,.37,2Z"/><path class="cls-5" d="M17.13,53.33a7.9,7.9,0,0,0,.52,2.5l5.24-2.5Zm.22.23H21.9l-4.13,2A7.78,7.78,0,0,1,17.35,53.56Z"/><path class="cls-5" d="M17.88,56.37A7.56,7.56,0,0,0,19,58.13L22.93,54Zm.3.11L22,54.66,19,57.8A7.3,7.3,0,0,1,18.18,56.48Z"/><path class="cls-5" d="M27.31,60.86A8.18,8.18,0,0,0,29.85,59a8.54,8.54,0,0,0,1.72-2.73,9.2,9.2,0,0,0,0-6.69,8.54,8.54,0,0,0-1.72-2.73A7.87,7.87,0,0,0,27.31,45a7.6,7.6,0,0,0-6.24,0,7.81,7.81,0,0,0-2.55,1.84A8.54,8.54,0,0,0,16.8,49.6a9.2,9.2,0,0,0,0,6.69A8.54,8.54,0,0,0,18.52,59a8.11,8.11,0,0,0,2.55,1.84"/><path class="cls-5" d="M24.19,61.31a7.39,7.39,0,0,1-3-.66,7.79,7.79,0,0,1-2.48-1.79A8.46,8.46,0,0,1,17,56.2a9,9,0,0,1,0-6.51A8.46,8.46,0,0,1,18.67,47a7.64,7.64,0,0,1,2.48-1.79,7.31,7.31,0,0,1,6.07,0A7.78,7.78,0,0,1,29.71,47a8.43,8.43,0,0,1,1.67,2.66,9,9,0,0,1,0,6.51,8.43,8.43,0,0,1-1.67,2.66,7.94,7.94,0,0,1-2.49,1.79,7.38,7.38,0,0,1-3,.66"/><path class="cls-5" d="M24.46,60.51A6.89,6.89,0,0,0,26.78,60l-2.32-5.56Zm.21-5,1.83,4.38a6.39,6.39,0,0,1-1.83.41Z"/><path class="cls-5" d="M19,47.85A7.43,7.43,0,0,0,17.66,50l5.41,2.22Zm0,.33,3.25,3.49-4.28-1.76A7.4,7.4,0,0,1,19,48.18Z"/><path class="cls-5" d="M17.47,50.6a7.86,7.86,0,0,0-.35,2.14h5.57Zm.13.29,3.95,1.62H17.34A8,8,0,0,1,17.6,50.89Z"/><path class="cls-5" d="M21,46.17a7.05,7.05,0,0,0-1.67,1.26l4,4.26Zm-.1.31,1.74,4.18-3-3.22A7.31,7.31,0,0,1,20.92,46.48Z"/><path class="cls-5" d="M29,47.43A7,7,0,0,0,27,46l-2.09,5.84ZM27.11,46.3a6.72,6.72,0,0,1,1.61,1.14l-3.26,3.49Z"/><path class="cls-5" d="M30.56,49.66a8,8,0,0,0-1.14-1.81l-4,4.26Zm-.29-.11L26.4,51.4l3-3.22A7.71,7.71,0,0,1,30.27,49.55Z"/><path class="cls-5" d="M27.29,59.75a7.49,7.49,0,0,0,1.65-1.2l-3.89-4.17Zm.1-.31-1.68-4,2.92,3.14A7.26,7.26,0,0,1,27.39,59.44Z"/><path class="cls-5" d="M24.46,45.38v6l2-5.65A6.78,6.78,0,0,0,24.46,45.38Zm.21.24a6.58,6.58,0,0,1,1.53.3l-1.53,4.29Z"/><path class="cls-5" d="M23.91,60.51V54.64l-2,5.49A6.75,6.75,0,0,0,23.91,60.51Zm-.21-.24A6.08,6.08,0,0,1,22.23,60l1.47-4.12Z"/><path class="cls-5" d="M19.43,58.55a7.19,7.19,0,0,0,2,1.37l2-5.69Zm1.88,1.07a7.56,7.56,0,0,1-1.57-1.08l3.17-3.4Z"/><path class="cls-5" d="M23.91,51.64V45.38a6.58,6.58,0,0,0-2.38.55Zm-.21-1.06-1.89-4.53a6.49,6.49,0,0,1,1.89-.43Z"/><path class="cls-5" d="M30.86,55.45a7.79,7.79,0,0,0,.38-2.12H25.69Zm-.13-.3-3.9-1.59H31A7.69,7.69,0,0,1,30.73,55.15Z"/><path class="cls-5" d="M29.33,58.13A7.4,7.4,0,0,0,30.65,56L25.3,53.81Zm0-.33-3.18-3.4,4.22,1.73A7.55,7.55,0,0,1,29.33,57.8Z"/><path class="cls-6" d="M23.83,52.42a.13.13,0,0,1-.08,0l-1.93-1.52a.51.51,0,0,1-.16-.09c-.66-.55-1.38-1.06-2.13-1.61a20.64,20.64,0,0,1-5.11-4.65,3.63,3.63,0,0,1-.58-2.6,3.4,3.4,0,0,1,1.26-2.21,3,3,0,0,1,1.8-.58h.29a2.72,2.72,0,0,1,2,1.06,2.28,2.28,0,0,1,.44,1.61A2.33,2.33,0,0,1,19,43.16a1.72,1.72,0,0,1-2.5.06l0,0a1,1,0,0,1-.37-.73,1.07,1.07,0,0,1,.27-.78.93.93,0,0,1,.68-.31.89.89,0,0,1,.47.14,1,1,0,0,1,.47.8.94.94,0,0,0,.14-.12A.88.88,0,0,0,18.18,41a1.54,1.54,0,0,0-1.27-.57,1.8,1.8,0,0,0-1.08.33,2,2,0,0,0-.75,1.33,2.23,2.23,0,0,0,.34,1.59,19.84,19.84,0,0,0,4.8,4.34c.81.58,1.65,1.19,2.39,1.81h0l1.73,1.35,0,0a.8.8,0,0,1,.08.6.91.91,0,0,1-.58.55Z"/><g class="cls-7"><path d="M24.29,51.26l0,0-1.73-1.35h0c-.74-.62-1.58-1.23-2.39-1.81a19.84,19.84,0,0,1-4.8-4.34A2.23,2.23,0,0,1,15,42.13,2.06,2.06,0,0,1,15.56,41a.57.57,0,0,0-.13.08,2,2,0,0,0-.75,1.33A2.23,2.23,0,0,0,15,44a20,20,0,0,0,4.8,4.33c.81.59,1.65,1.2,2.39,1.82h0L24,51.47s0,0,0,0a.79.79,0,0,1,.08.6.89.89,0,0,1-.14.25.88.88,0,0,0,.45-.49A.8.8,0,0,0,24.29,51.26Z"/></g><path class="cls-5" d="M24.49,51.18l-.06-.07-1.72-1.34h0c-.74-.63-1.58-1.24-2.39-1.82a19.59,19.59,0,0,1-4.77-4.3,2.11,2.11,0,0,1-.32-1.49,1.84,1.84,0,0,1,.69-1.23,1.68,1.68,0,0,1,1-.31,1.44,1.44,0,0,1,1.17.51.75.75,0,0,1,0,.93,1.13,1.13,0,0,0-.49-.66,1,1,0,0,0-.54-.16,1.05,1.05,0,0,0-.78.35,1.26,1.26,0,0,0-.3.9,1.16,1.16,0,0,0,.42.82l0,0a1.84,1.84,0,0,0,2.67-.07,2.45,2.45,0,0,0,.67-1.44,2.41,2.41,0,0,0-.46-1.7A2.83,2.83,0,0,0,17.2,39l-.3,0a3.1,3.1,0,0,0-1.87.61,3.49,3.49,0,0,0-1.32,2.31,3.81,3.81,0,0,0,.6,2.71,20.64,20.64,0,0,0,5.14,4.67c.75.55,1.47,1.07,2.13,1.61a.78.78,0,0,0,.18.11l1.91,1.51a.33.33,0,0,0,.16.05.18.18,0,0,0,.1,0,1,1,0,0,0,.66-.64A1,1,0,0,0,24.49,51.18Zm-.66,1.1-1.95-1.54a.29.29,0,0,1-.14-.08c-.67-.54-1.39-1.06-2.14-1.61a20.74,20.74,0,0,1-5.08-4.61,3.55,3.55,0,0,1-.55-2.5,3.22,3.22,0,0,1,1.21-2.12,2.92,2.92,0,0,1,1.72-.55h.28a2.58,2.58,0,0,1,1.88,1,2.13,2.13,0,0,1,.4,1.5,2.2,2.2,0,0,1-.58,1.27,1.71,1.71,0,0,1-1.19.53,1.65,1.65,0,0,1-1.13-.48h0l0,0a.92.92,0,0,1-.09-1.3.8.8,0,0,1,.59-.26.71.71,0,0,1,.4.11.89.89,0,0,1,.4.89.81.81,0,0,0,.37-.22,1,1,0,0,0,.1-1.35,1.68,1.68,0,0,0-1.38-.62,1.88,1.88,0,0,0-1.16.36,2.15,2.15,0,0,0-.81,1.42,2.38,2.38,0,0,0,.38,1.7,19.68,19.68,0,0,0,4.83,4.36c.8.59,1.64,1.19,2.37,1.81h0l1.74,1.36S24.64,51.94,23.83,52.28Z"/><path class="cls-6" d="M24.19,55.11a2.2,2.2,0,1,1,2-2.19A2.12,2.12,0,0,1,24.19,55.11Z"/><path class="cls-3" d="M24.28,50.73l.22.13a2.3,2.3,0,0,1,.67,3,2,2,0,0,1-1.87,1,1.86,1.86,0,0,0,.84.2,2.12,2.12,0,0,0,2.05-2.19A2.15,2.15,0,0,0,24.28,50.73Z"/><path class="cls-3" d="M45.27,50.78a1.71,1.71,0,0,1,.23.13,2.29,2.29,0,0,1,.67,3,2,2,0,0,1-1.87,1,1.86,1.86,0,0,0,.84.2,2.2,2.2,0,0,0,.13-4.38Z"/><path class="cls-5" d="M24.19,50.61a2.31,2.31,0,1,0,2.15,2.31A2.24,2.24,0,0,0,24.19,50.61Zm0,4.39a2.09,2.09,0,1,1,1.94-2.08A2,2,0,0,1,24.19,55Z"/><path class="cls-8" d="M23.7,52.42c-.35.47-.81.71-1,.52s-.11-.71.24-1.18.81-.71,1-.53S24.05,52,23.7,52.42Z"/><path class="cls-8" d="M44.65,52.45c-.35.47-.81.71-1,.53s-.11-.72.24-1.19.81-.71,1-.53S45,52,44.65,52.45Z"/><path class="cls-8" d="M17.24,43.11c-.12.11-.4,0-.63-.3s-.31-.59-.19-.7.4,0,.63.29S17.36,43,17.24,43.11Z"/><path class="cls-8" d="M52.21,43.93c-.12-.11,0-.43.18-.71s.49-.42.62-.31,0,.42-.18.7S52.33,44,52.21,43.93Z"/><path class="cls-8" d="M32.5,25.92H13.23a.59.59,0,0,1-.57-.62h0a.59.59,0,0,1,.57-.62H32.5a.6.6,0,0,1,.58.62h0A.6.6,0,0,1,32.5,25.92Z"/><path class="cls-8" d="M8.7,14.08A.29.29,0,0,1,8.49,14c-1.35-1.87.3-4.14.32-4.16a.25.25,0,0,1,.37-.05.29.29,0,0,1,0,.4c-.05.08-1.4,1.94-.31,3.46a.31.31,0,0,1,0,.4A.27.27,0,0,1,8.7,14.08Z"/><path class="cls-8" d="M48.76,9.21h0a13,13,0,0,1-7.61-3.6L41,5.47a.42.42,0,0,1-.29-.39.46.46,0,0,1,.23-.42c.26-.14.44,0,.73.3a12.24,12.24,0,0,0,7.17,3.39.43.43,0,0,1,.36.47A.41.41,0,0,1,48.76,9.21Z"/></g></g></svg>