<svg xmlns="http://www.w3.org/2000/svg" viewBox="0 0 70.87 79.32"><defs><style>.cls-1{isolation:isolate;}.cls-2{fill:#dbeccf;}.cls-3{fill:#d4d6d7;}.cls-4{fill:#515050;}.cls-5,.cls-6{fill:#adafb1;}.cls-6,.cls-8{opacity:0.3;}.cls-6{mix-blend-mode:multiply;}.cls-7{fill:#b5b4b0;}.cls-11,.cls-8,.cls-9{fill:#fff;}.cls-11,.cls-8{mix-blend-mode:soft-light;}.cls-10{fill:#4a4d4e;}.cls-11{opacity:0.4;}</style></defs><g class="cls-1"><g id="Layer_2" data-name="Layer 2"><g id="AW"><circle class="cls-2" cx="35.43" cy="43.89" r="35.43" transform="translate(-13.57 71.84) rotate(-80.78)"/><path class="cls-3" d="M48.49,48.09c-1.6-1.18-3.37-2.16-4.62-4.16-.73-1.19-1.56-2.77-2.37-4.42l-.53.6-2.34-4.66,8.1-24.93c1.2-6.21-1.68-8.61-1.68-8.61L35.92,30,23.55,5.33l0,0h0l0,.07,0,0-.06.09,0,0-.06.11,0,0h0c-.59,1-1.86,4-.3,8.53l11,21.87-1.61,5-.59-.44c-.59,1.85-1.21,3.65-1.78,5-1,2.33-2.59,3.8-4,5.42-3.3,3.79-8.93,11.68-6,18.43,1,2.29,3,4.53,4.81,5,4.46,1.2,6.65-7,7.6-12.09.12-.61.23-1.23.33-1.84,0-.2.07-.4.1-.61.07-.42.14-.83.2-1.25s.09-.53.13-.79l.12-.78.42-2.71c.23-1.49.48-3,.77-4.42.42-2.14,1-4.16,1.65-6.19L34,42.32l1.43,1,.94-2.89.19-.32.44.51,1.28,2.57,1.3-1.48L37.67,43.9a56.46,56.46,0,0,1,2.4,5.6c.47,1.37.9,2.76,1.32,4.16.29,1,.57,1.92.86,2.89a2.17,2.17,0,0,0,.07.24l.27.91c.11.35.21.7.32,1l.2.65.54,1.69c1.58,4.71,4.77,12.14,9,9.67,1.72-1,3.42-3.78,4.09-6.3C58.73,57,52.21,50.86,48.49,48.09Zm-18,11.45A22.48,22.48,0,0,1,28.71,66c-.8,2-2,3.82-3.65,4A2.71,2.71,0,0,1,23,69c-2.34-2.94-.43-8.46,1.2-11.05,1-1.66,2.62-3.12,4.18-2.59C29.65,55.74,30.57,57.48,30.44,59.54Zm16.2-6.61c1.47-1,3.2,0,4.43,1.34,1.92,2.07,4.5,6.93,2.56,10.51a3.29,3.29,0,0,1-1.89,1.62c-1.63.33-3.05-1.11-4.09-2.84a19.41,19.41,0,0,1-2.51-5.88A4.71,4.71,0,0,1,46.64,52.93Z"/><path class="cls-4" d="M42.07,59.17c1.58,4.71,4.77,12.14,9,9.67,1.72-1,3.42-3.78,4.09-6.31,2-7.47-4.52-13.59-8.24-16.35C45.31,45,43.54,44,42.29,42c-.73-1.18-1.57-2.77-2.37-4.41L36.09,42a55.47,55.47,0,0,1,2.4,5.6C39.79,51.37,40.81,55.36,42.07,59.17Zm1.49-3.4c-.39-2,.29-4,1.5-4.75,1.47-1,3.2,0,4.43,1.34,1.92,2.07,4.5,6.93,2.56,10.5a3.31,3.31,0,0,1-1.89,1.63c-1.63.33-3-1.11-4.09-2.84A19.17,19.17,0,0,1,43.56,55.77Z"/><path class="cls-4" d="M39.78,51.64l.13.18a18.14,18.14,0,0,1,2.46,4.74c.49,1.49.87,3,1.47,4.41a22.48,22.48,0,0,0,2.09,3.89,5.77,5.77,0,0,0,2.21,2.23,2.82,2.82,0,0,0,2.15.09c3.41-1.21,5.06-7,3.32-11.5a15.06,15.06,0,0,0-2-3.75,24.45,24.45,0,0,0-3-3.2c-2.18-1.89-4.63-3.21-6.63-5.55a20.25,20.25,0,0,1-2.78-4.68l.79-.9c.8,1.64,1.64,3.23,2.37,4.41,1.25,2,3,3,4.62,4.17,3.72,2.76,10.24,8.88,8.24,16.35-.67,2.53-2.37,5.3-4.09,6.31-4.22,2.47-7.41-5-9-9.67C41.25,56.7,40.53,54.16,39.78,51.64Z"/><path class="cls-5" d="M39.39,38.2,22,3.41s-2.52,3.18-.56,8.94L33.58,36.68l1.8,2.07,1.28,2.58Z"/><path class="cls-6" d="M34,37.15A4.54,4.54,0,0,1,36.07,39c.27.46.63,1.35,1.12,1.18.21-.08.39-.34.55-.54a4.49,4.49,0,0,0,.65-1,2.47,2.47,0,0,0-.45-2.11l-2.46-4.92q-2.5-5-5.08-10c-1.72-3.3-3.47-6.55-5.16-9.89C24,9.25,22.9,6.46,21.7,3.82c.16-.27.26-.41.26-.41L39.39,38.2l-2.73,3.13-1.28-2.58Z"/><path class="cls-7" d="M37.11,42.35c.54,1.13,1.23,2.15,1.73,3.33.4,1,.68,2,1.11,2.92.53,1.19,1.22,2.28,1.7,3.53.19.49.78,3.3,1,1.66a6.22,6.22,0,0,1,1.29-3.64,1.87,1.87,0,0,1,1.21-.56c.36-.07,1.48.15,1.68-.43.31-.89-1.79-1.54-2.18-1.77a10.66,10.66,0,0,1-3.09-3.63c-.48-.76-1-1.47-1.45-2.21-.36-.54-.7-1.6-1.29-1.38A9.69,9.69,0,0,0,37.11,42.35Z"/><path class="cls-4" d="M52.65,55.35c.18.58.48,1,.65,1.64a15.42,15.42,0,0,1,.34,1.53,8.29,8.29,0,0,1-1.12,5.4,7.62,7.62,0,0,1-2.05,2.26c-.8.61-1.71.17-2.5-.31a4,4,0,0,1-.55-.54c-.23-.19-.53-.22-.65-.64-.2-.72.45-.56.74-.43a5.12,5.12,0,0,0,2.37.73,2,2,0,0,0,1.76-.91,7.56,7.56,0,0,0,1.15-2,6.86,6.86,0,0,0,.46-2.34,8,8,0,0,0-.1-1.38c-.09-.46-.31-.83-.44-1.27s-.32-1.11-.48-1.66a6.91,6.91,0,0,0-.87-1.74c-.15-.25-.68-.86-.32-1s.75.52.93.81A8,8,0,0,1,52.65,55.35Z"/><path class="cls-4" d="M32.81,48.13c.42-2.13,1-4.16,1.65-6.18l-4.32-3.21c-.58,1.85-1.2,3.65-1.77,5-1,2.33-2.59,3.8-4,5.42-3.3,3.78-8.93,11.67-6,18.43,1,2.29,3,4.52,4.81,5,4.46,1.21,6.65-7,7.6-12.09C31.51,56.43,32,52.22,32.81,48.13Zm-5.68,16c-.8,2-2,3.83-3.65,4a2.7,2.7,0,0,1-2.07-1c-2.34-3-.43-8.47,1.2-11.05,1-1.67,2.62-3.12,4.18-2.59,1.28.43,2.2,2.17,2.07,4.22A22.31,22.31,0,0,1,27.13,64.12Z"/><path class="cls-4" d="M32.05,52.49l-.11.21a22,22,0,0,0-1.82,5.36c-.29,1.6-.47,3.2-.88,4.75a27.55,27.55,0,0,1-1.56,4.43,7.56,7.56,0,0,1-1.89,2.83,3.14,3.14,0,0,1-2.1.7c-3.51-.2-5.85-5.39-4.71-10.33a18,18,0,0,1,1.53-4.27,30.9,30.9,0,0,1,2.57-4c1.91-2.49,4.14-4.49,5.81-7.37A23.87,23.87,0,0,0,31,39.4l-.89-.66c-.58,1.85-1.2,3.65-1.77,5-1,2.33-2.59,3.8-4,5.42-3.3,3.78-8.93,11.67-6,18.43,1,2.29,3,4.52,4.81,5,4.46,1.21,6.65-7,7.6-12.09C31.24,57.88,31.62,55.17,32.05,52.49Z"/><path class="cls-5" d="M30.74,39.18,43.47,0s2.88,2.39,1.68,8.61L36.25,36l-1.5,2.55-.94,2.9Z"/><path class="cls-6" d="M35.91,36.59A5.68,5.68,0,0,0,34.1,39c-.21.53-.45,1.5-1,1.47a1.2,1.2,0,0,1-.61-.37,3.17,3.17,0,0,1-.76-.75c-.42-.68,0-1.51.18-2.2.6-1.85,1.2-3.69,1.79-5.54Q35.58,26,37.48,20.37c1.28-3.73,2.59-7.44,3.82-11.2,1-2.87,1.63-5.91,2.48-8.85A3,3,0,0,0,43.47,0L30.74,39.18l3.07,2.28.94-2.9Z"/><path class="cls-7" d="M33.5,42.59c-.39,1.28-.93,2.47-1.27,3.77-.28,1.06-.43,2.12-.73,3.19-.37,1.32-.91,2.59-1.23,4-.12.54-.35,3.47-.77,1.92a5.18,5.18,0,0,0-1.72-3.2A1.74,1.74,0,0,0,26.52,52c-.37,0-1.43.59-1.7.08-.42-.79,1.56-2,1.91-2.38a13.22,13.22,0,0,0,2.58-4.44c.37-.9.75-1.73,1.14-2.59.29-.64.49-1.78,1.1-1.74A8,8,0,0,1,33.5,42.59Z"/><path class="cls-8" d="M19.88,59.84c-.1.62-.34,1.16-.43,1.79s-.12,1.07-.14,1.61a7.41,7.41,0,0,0,1.77,5,6.29,6.29,0,0,0,2.3,1.62c.86.37,1.7-.32,2.42-1a7,7,0,0,0,.48-.69c.2-.26.48-.37.55-.82.11-.76-.51-.42-.78-.21a6,6,0,0,1-2.23,1.4A1.76,1.76,0,0,1,22,68.11a5.57,5.57,0,0,1-1.38-1.6,5.94,5.94,0,0,1-.75-2.16A8.91,8.91,0,0,1,19.77,63a12.79,12.79,0,0,1,.28-1.37c.09-.59.17-1.18.26-1.77a8.18,8.18,0,0,1,.63-2c.12-.29.56-1,.18-1.12s-.67.74-.8,1.07A9.29,9.29,0,0,0,19.88,59.84Z"/><path class="cls-9" d="M19.62,58.32s-.06.17-.14.49-.2.78-.31,1.33c-.05.28-.11.58-.15.9s-.07.66-.11,1,0,.72,0,1.09a10,10,0,0,0,.06,1.1c0,.19,0,.37.06.55s.07.35.11.53a8.92,8.92,0,0,0,.26,1,3.12,3.12,0,0,0,.17.46l.17.42a6.21,6.21,0,0,0,.36.73,6.12,6.12,0,0,0,.34.6l.29.43.25.38h0a.14.14,0,0,1,0,.11,0,0,0,0,1-.06,0s-.11-.1-.3-.3-.22-.21-.35-.35a3.16,3.16,0,0,1-.41-.54,3.62,3.62,0,0,1-.45-.71c-.07-.14-.14-.29-.22-.43a3.45,3.45,0,0,1-.2-.48l-.18-.53a2.76,2.76,0,0,1-.08-.27l-.07-.29L18.51,65c0-.2-.05-.41-.07-.61a8.44,8.44,0,0,1-.05-1.23c0-.2,0-.4,0-.6s0-.39,0-.58a10.62,10.62,0,0,1,.18-1.06c.07-.34.16-.64.23-.91a11.06,11.06,0,0,1,.48-1.27,3.67,3.67,0,0,1,.21-.44,0,0,0,0,1,0,0A.07.07,0,0,1,19.62,58.32Z"/><path class="cls-9" d="M43,12.48s-.06.23-.15.61-.24.94-.43,1.59-.39,1.41-.64,2.22-.51,1.65-.78,2.5-.55,1.69-.82,2.47-.53,1.51-.76,2.13-.43,1.12-.57,1.48-.23.55-.23.55,0,0-.07,0a.09.09,0,0,1,0-.09s0-.22.15-.61.25-.93.43-1.58.4-1.41.65-2.21.52-1.65.79-2.5.56-1.68.83-2.46.54-1.51.77-2.12.44-1.12.57-1.48.23-.55.23-.55,0,0,0,0A.06.06,0,0,1,43,12.48Z"/><path class="cls-10" d="M35.53,34.26c-.21.65-.72.91-1.15.59A1.65,1.65,0,0,1,34,33.12c.21-.65.73-.91,1.15-.6A1.65,1.65,0,0,1,35.53,34.26Z"/><path class="cls-5" d="M35.51,34.14c-.18.56-.63.79-1,.51a1.44,1.44,0,0,1-.34-1.51c.18-.56.63-.79,1-.51A1.44,1.44,0,0,1,35.51,34.14Z"/><path class="cls-11" d="M34.68,33a1,1,0,0,0-.24.44.91.91,0,0,0,.28.83.3.3,0,0,0,.53-.14,1.9,1.9,0,0,0-.09-.92c0-.14-.08-.33-.18-.36A.38.38,0,0,0,34.68,33Z"/></g></g></g></svg>