<svg width="100" height="100" viewBox="0 0 100 100" fill="none" xmlns="http://www.w3.org/2000/svg">
<circle cx="50" cy="50" r="50" fill="#EAF7F5"/>
<path d="M39.2898 62.2746H54.2555V32H24V60.4634C24 61.4548 24.8007 62.2746 25.8111 62.2746H29.4906M70.3079 62.2746H74.7499C75.7413 62.2746 76.5611 61.4738 76.5611 60.4634V49.711C76.5611 48.3955 76.0654 47.1182 75.2075 46.1269L70.8989 41.2273C69.8694 40.0453 68.3823 39.378 66.819 39.378H54.2746V62.2746H60.5087" stroke="#28AB9A" stroke-width="3" stroke-miterlimit="10" stroke-linecap="round" stroke-linejoin="round"/>
<path d="M34.3927 67.1729C37.0997 67.1729 39.2942 64.9784 39.2942 62.2714C39.2942 59.5644 37.0997 57.3699 34.3927 57.3699C31.6857 57.3699 29.4912 59.5644 29.4912 62.2714C29.4912 64.9784 31.6857 67.1729 34.3927 67.1729Z" stroke="#28AB9A" stroke-width="3" stroke-miterlimit="10" stroke-linecap="round" stroke-linejoin="round"/>
<path d="M65.4108 67.1729C68.1178 67.1729 70.3123 64.9784 70.3123 62.2714C70.3123 59.5644 68.1178 57.3699 65.4108 57.3699C62.7038 57.3699 60.5093 59.5644 60.5093 62.2714C60.5093 64.9784 62.7038 67.1729 65.4108 67.1729Z" stroke="#28AB9A" stroke-width="3" stroke-miterlimit="10" stroke-linecap="round" stroke-linejoin="round"/>
</svg>
