<svg width="100" height="100" viewBox="0 0 100 100" fill="none" xmlns="http://www.w3.org/2000/svg">
<circle cx="50" cy="50" r="50" fill="#FFF4F4"/>
<path d="M74.2676 36.2857C73.8184 35.8424 73.1934 35.5629 72.5098 35.5629H72.5H70.7324V31.4575C70.7324 30.0986 69.6191 29 68.2422 29H32.3437C28.291 29 25 32.2381 25 36.2471V64.4358C25 68.4352 28.291 71.6829 32.3437 71.6829H72.4121C73.7891 71.6829 74.9023 70.5843 74.9023 69.2255L75 38.0396V38.0204C75 37.3458 74.7266 36.729 74.2676 36.2857ZM71.5723 68.387H32.3437C30.127 68.387 28.3301 66.6138 28.3301 64.4262V36.2375C28.3203 34.0499 30.127 32.2766 32.3437 32.2766H67.4121V35.5629H32.4805V38.8492H71.6602L71.5723 68.387Z" fill="#F37E68"/>
<path d="M53.4375 49.1307C53.3466 48.3239 52.9716 47.6989 52.3125 47.2557C51.6534 46.8068 50.8239 46.5824 49.8239 46.5824C49.108 46.5824 48.4886 46.696 47.9659 46.9233C47.4432 47.1449 47.0369 47.4517 46.7472 47.8438C46.4631 48.2301 46.321 48.6705 46.321 49.1648C46.321 49.5795 46.4176 49.9375 46.6108 50.2386C46.8097 50.5398 47.0682 50.7926 47.3864 50.9972C47.7102 51.196 48.0568 51.3636 48.4261 51.5C48.7955 51.6307 49.1506 51.7386 49.4915 51.8239L51.196 52.267C51.7528 52.4034 52.3239 52.5881 52.9091 52.821C53.4943 53.054 54.0369 53.3608 54.5369 53.7415C55.0369 54.1222 55.4403 54.5938 55.7472 55.1562C56.0597 55.7188 56.2159 56.392 56.2159 57.1761C56.2159 58.1648 55.9602 59.0426 55.4489 59.8097C54.9432 60.5767 54.2074 61.1818 53.2415 61.625C52.2813 62.0682 51.1193 62.2898 49.7557 62.2898C48.4489 62.2898 47.3182 62.0824 46.3636 61.6676C45.4091 61.2528 44.6619 60.6648 44.1222 59.9034C43.5824 59.1364 43.2841 58.2273 43.2273 57.1761H45.8693C45.9205 57.8068 46.125 58.3324 46.483 58.7528C46.8466 59.1676 47.3097 59.4773 47.8722 59.6818C48.4403 59.8807 49.0625 59.9801 49.7386 59.9801C50.483 59.9801 51.1449 59.8636 51.7244 59.6307C52.3097 59.392 52.7699 59.0625 53.1051 58.642C53.4403 58.2159 53.608 57.7187 53.608 57.1506C53.608 56.6335 53.4602 56.2102 53.1648 55.8807C52.875 55.5511 52.4801 55.2784 51.9801 55.0625C51.4858 54.8466 50.9261 54.6562 50.3011 54.4915L48.2386 53.929C46.8409 53.5483 45.733 52.9886 44.9148 52.25C44.1023 51.5114 43.696 50.5341 43.696 49.3182C43.696 48.3125 43.9688 47.4347 44.5142 46.6847C45.0597 45.9347 45.7983 45.3523 46.7301 44.9375C47.6619 44.517 48.7131 44.3068 49.8835 44.3068C51.0653 44.3068 52.108 44.5142 53.0114 44.929C53.9205 45.3438 54.6364 45.9148 55.1591 46.642C55.6818 47.3636 55.9545 48.1932 55.9773 49.1307H53.4375Z" fill="#F37E68"/>
</svg>
