<svg xmlns="http://www.w3.org/2000/svg" viewBox="0 0 74.18 72.45"><defs><style>.cls-1{fill:#dbeccf;}.cls-2{fill:#ffdca7;}.cls-3{fill:#b5b4b0;}.cls-4{fill:#515050;}.cls-5{fill:#868683;}.cls-6{fill:#4f2e18;}</style></defs><g id="Layer_2" data-name="Layer 2"><g id="AW"><circle class="cls-1" cx="38.75" cy="37.02" r="35.43" transform="translate(-4 69.33) rotate(-80.78)"/><path class="cls-2" d="M51.22,19.4l-4.35-2.51-9.93-5.74L12.41,25.32l10,5.74,4.33,2.5,10.78,6.23L62,25.63h0Z"/><path class="cls-3" d="M36.94,11.53,13.08,25.32l24.4,14L61.34,25.62Z"/><path class="cls-4" d="M36.94,11.53V36.39l3,1.54L61.34,25.62Z"/><polygon class="cls-4" points="37.48 39.78 37.48 64.17 26.71 58.01 22.36 55.52 12.41 49.82 12.41 25.32 22.36 31.06 26.71 33.57 37.48 39.78"/><path class="cls-5" d="M37.48,39.79V64.17L62,50.11V25.63Z"/><polygon class="cls-4" points="36.54 11.33 27.26 0.37 3.13 13.95 3.13 14.5 12.41 25.32 12.92 25.37 36.54 11.74 36.54 11.33"/><path class="cls-5" d="M3.13,14l9.79,11.41,24-13.85v-.41L27.61,0Z"/><polygon class="cls-4" points="49.25 0.69 37.33 11.56 61.34 25.7 62.02 25.62 73.78 14.74 73.6 14.35 49.6 0.48 49.25 0.69"/><path class="cls-5" d="M61.34,25.7,73.6,14.34,49.22.24l-.36.21-12,11Z"/><polygon class="cls-6" points="40.76 58.61 40.58 58.71 40.58 55.71 40.76 55.61 40.76 58.61"/><polygon class="cls-6" points="41.37 55.91 41.25 56.12 40.67 55.73 40.09 56.79 39.97 56.73 40.67 55.44 41.37 55.91"/><polygon class="cls-6" points="42.48 57.61 42.31 57.71 42.31 54.71 42.48 54.61 42.48 57.61"/><polygon class="cls-6" points="43.1 54.91 42.97 55.12 42.4 54.74 41.82 55.79 41.69 55.73 42.4 54.44 43.1 54.91"/><path class="cls-6" d="M43.15,57.33l-3.23,1.86s-.08,0-.08,0a.22.22,0,0,1,.08-.15l3.23-1.86s.08,0,.08,0A.2.2,0,0,1,43.15,57.33Z"/><path class="cls-6" d="M43.12,58.14,40,60c-.33.2-.6,0-.6-.35V56a1.34,1.34,0,0,1,.6-1l3.17-1.83c.33-.19.6,0,.6.35V57.1A1.33,1.33,0,0,1,43.12,58.14Zm-3.17-3a1,1,0,0,0-.43.75v3.65c0,.28.19.39.43.25L43.12,58a1,1,0,0,0,.43-.75V53.54a.27.27,0,0,0-.43-.25Z"/><path class="cls-6" d="M48.18,55.21,45,57c-.33.19-.6,0-.6-.35V53a1.33,1.33,0,0,1,.6-1l3.17-1.83c.33-.19.6,0,.6.35v3.65A1.34,1.34,0,0,1,48.18,55.21Zm-3.17-3a.93.93,0,0,0-.43.74v3.66c0,.27.19.39.43.25L48.18,55a1,1,0,0,0,.43-.75V50.61c0-.28-.2-.39-.43-.25Z"/><path class="cls-6" d="M46.59,55.13c-.05,0-.09,0-.09-.05V52.46a.19.19,0,0,1,.09-.15.06.06,0,0,1,.09,0V55A.2.2,0,0,1,46.59,55.13Z"/><path class="cls-6" d="M47,54.9l-.78.45c-.05,0-.09,0-.09-.05a.2.2,0,0,1,.09-.15L47,54.7a.06.06,0,0,1,.09,0A.19.19,0,0,1,47,54.9Z"/><path class="cls-6" d="M47.43,51.59v1.22a1.15,1.15,0,0,1-.52.9l-.63.36c-.29.17-.52,0-.52-.3V52.55l.32-.18v1.31s0,.08.08,0a.2.2,0,0,0,.09-.15V52.27Z"/><path class="cls-4" d="M36.94,36.22l-2.4,1.38,3,1.7,2.39-1.37Z"/><polygon class="cls-4" points="0 21.6 12.96 25.4 37.48 39.3 37.47 39.76 24.4 36.53 0 22.04 0 21.6"/><path class="cls-5" d="M13,25.32,0,21.6,24.4,36.08,37.48,39.3Z"/><path class="cls-4" d="M61.66,26,37.48,39.3v.51l12.29,3L74.18,28.9v-.41Z"/><path class="cls-5" d="M61.34,25.62,37.48,39.3l12.29,3.09,24.41-13.9L62,25.62Z"/></g></g></svg>