<svg xmlns="http://www.w3.org/2000/svg" viewBox="0 0 18.73 25.58"><defs><style>.cls-1{fill:#333132;}.cls-2{fill:#343334;}</style></defs><g id="Layer_2" data-name="Layer 2"><g id="AW"><path class="cls-1" d="M16,5.52C13.3.65,6.05.35,3.06,5A20.65,20.65,0,0,0,1.84,7.75,10.43,10.43,0,0,0,6.19,18a3,3,0,0,1,1.65,2.9c0,.56.26.82.8.82h2.49c.55,0,1,.22,1,.79s-.42.87-1,.87c-1.15,0-2.31,0-3.47,0A1.22,1.22,0,0,1,6.27,22a3,3,0,0,0-1.55-3C.73,16.13-1,10.29.62,5.94A9.48,9.48,0,0,1,10.84.11a9.28,9.28,0,0,1,7.88,8.6,12,12,0,0,1-5.8,11.08l-.3.17c-.51.27-1,.32-1.31-.25s0-.93.49-1.23a10.43,10.43,0,0,0,5.29-9.34,9.76,9.76,0,0,0-.18-1.4C16.56,7,16.33,6.26,16,5.52Z"/><path class="cls-2" d="M9.08,25.57c-.38,0-.76,0-1.14,0a.75.75,0,0,1-.76-.81A.73.73,0,0,1,7.86,24a19.88,19.88,0,0,1,2.56,0,.74.74,0,0,1,.7.86.71.71,0,0,1-.72.74C10,25.6,9.52,25.57,9.08,25.57Z"/><path class="cls-1" d="M9.37,5.44A1.74,1.74,0,0,0,7.62,7.19a2,2,0,0,0,.11.58L8.65,13a.72.72,0,1,0,1.43,0L11,7.77a2,2,0,0,0,.1-.58A1.74,1.74,0,0,0,9.37,5.44Zm0,8.88a1.06,1.06,0,1,0,.74.31,1,1,0,0,0-.74-.31Z"/></g></g></svg>