<svg xmlns="http://www.w3.org/2000/svg" xmlns:xlink="http://www.w3.org/1999/xlink" viewBox="0 0 70.87 70.87"><defs><style>.cls-1{fill:#dbeccf;}.cls-2{fill:#515050;}.cls-3{fill:#868683;}.cls-4{fill:url(#linear-gradient);}</style><linearGradient id="linear-gradient" x1="14.94" y1="33.19" x2="54.41" y2="33.19" gradientUnits="userSpaceOnUse"><stop offset="0" stop-color="#e6e6e6"/><stop offset="0.15" stop-color="#ececec"/><stop offset="0.61" stop-color="#fafafa"/><stop offset="1" stop-color="#fff"/></linearGradient></defs><g id="Layer_2" data-name="Layer 2"><g id="AW"><circle class="cls-1" cx="35.43" cy="35.43" r="35.43" transform="translate(-5.27 64.66) rotate(-80.68)"/><path class="cls-2" d="M37.76,11.5h0C26.27,7.74,14.32,18.25,12.05,35.13a35.93,35.93,0,0,1-6.61,3.39,1,1,0,0,0-1,.85,1.2,1.2,0,0,0,.65,1.41,44,44,0,0,0,7.34,1.73L27,43.93a6.42,6.42,0,0,1,1.71.39l9.13,3.32a9,9,0,0,1,3.62,2.51l2.87,3.2a7.5,7.5,0,0,0,3.07,2.08L54.86,58a1,1,0,0,0,.25,0,1,1,0,0,0,.89-.84,1.2,1.2,0,0,0-.64-1.42l-.4-.14,1.1-5.15C59.68,33.54,51.44,16,37.76,11.5Z"/><path class="cls-3" d="M22.65,38.24a36,36,0,0,1,2.46-6.76c2.65-5.36,6.36-7.32,10.39-6.2q1.8-6.63,3.81-13.2c-.51-.21-1-.41-1.55-.58h0c-11.47-3.76-23.4,6.72-25.7,23.55C15.56,36.08,19.11,37.11,22.65,38.24Z"/><path class="cls-4" d="M52.58,52.54l-.15,0a.77.77,0,0,1-.42-.89l.49-2.3a32.91,32.91,0,0,0-2.28-20.72c-3-6.33-7.74-10.84-13.4-12.7A12.3,12.3,0,0,0,33,15.3c-7.72,0-14.69,7.46-16.95,18.13a.58.58,0,0,1-.71.52.75.75,0,0,1-.42-.89C17.35,21.75,24.78,13.84,33,13.84a13.34,13.34,0,0,1,4.08.66c6,2,11,6.71,14.11,13.38A34.63,34.63,0,0,1,53.64,49.7L53.15,52A.63.63,0,0,1,52.58,52.54Z"/></g></g></svg>