<svg width="58" height="41" viewBox="0 0 58 41" fill="none" xmlns="http://www.w3.org/2000/svg">
<path d="M38.5204 16.9201H54.8404V16.2559L47.1304 8.7601H38.5204V16.9201ZM38.5204 19.6401V29.1594C39.7611 27.5082 41.736 26.4401 43.9604 26.4401C46.7489 26.4401 49.1453 28.1185 50.1946 30.5201H54.8404V19.6401H38.5204ZM35.8004 30.5201V6.0401V3.3201H3.16043V30.5201H5.08625C6.13557 28.1185 8.532 26.4401 11.3204 26.4401C14.1089 26.4401 16.5053 28.1185 17.5546 30.5201H35.8004ZM38.5204 6.0401H48.2347L57.5604 15.1068V30.5201C57.5604 32.0223 56.3427 33.2401 54.8404 33.2401H50.7604C50.7604 36.9956 47.716 40.0401 43.9604 40.0401C40.2049 40.0401 37.1604 36.9956 37.1604 33.2401H18.1204C18.1204 36.9956 15.076 40.0401 11.3204 40.0401C7.56489 40.0401 4.52043 36.9956 4.52043 33.2401H3.16043C1.65822 33.2401 0.44043 32.0223 0.44043 30.5201V3.3201C0.44043 1.81788 1.65822 0.600098 3.16043 0.600098H35.8004C37.3026 0.600098 38.5204 1.81788 38.5204 3.3201V6.0401ZM11.3204 37.3201C13.5738 37.3201 15.4004 35.4934 15.4004 33.2401C15.4004 30.9868 13.5738 29.1601 11.3204 29.1601C9.06711 29.1601 7.24043 30.9868 7.24043 33.2401C7.24043 35.4934 9.06711 37.3201 11.3204 37.3201ZM43.9604 37.3201C46.2138 37.3201 48.0404 35.4934 48.0404 33.2401C48.0404 30.9868 46.2138 29.1601 43.9604 29.1601C41.7071 29.1601 39.8804 30.9868 39.8804 33.2401C39.8804 35.4934 41.7071 37.3201 43.9604 37.3201Z" fill="#6A6565"/>
</svg>
