<svg width="48" height="48" viewBox="0 0 48 48" fill="none" xmlns="http://www.w3.org/2000/svg">
<path d="M4 4H7.48001C9.64001 4 11.34 5.86 11.16 8L9.5 27.92C9.22 31.18 11.8 33.98 15.08 33.98H36.38C39.26 33.98 41.78 31.62 42 28.76L43.08 13.76C43.32 10.44 40.8 7.73999 37.46 7.73999H11.64" stroke="#292D32" stroke-width="2" stroke-miterlimit="10" stroke-linecap="round" stroke-linejoin="round"/>
<path d="M32.5 44C33.8807 44 35 42.8807 35 41.5C35 40.1193 33.8807 39 32.5 39C31.1193 39 30 40.1193 30 41.5C30 42.8807 31.1193 44 32.5 44Z" stroke="#292D32" stroke-width="2" stroke-miterlimit="10" stroke-linecap="round" stroke-linejoin="round"/>
<path d="M16.5 44C17.8807 44 19 42.8807 19 41.5C19 40.1193 17.8807 39 16.5 39C15.1193 39 14 40.1193 14 41.5C14 42.8807 15.1193 44 16.5 44Z" stroke="#292D32" stroke-width="2" stroke-miterlimit="10" stroke-linecap="round" stroke-linejoin="round"/>
<path d="M18 16H42" stroke="#292D32" stroke-width="2" stroke-miterlimit="10" stroke-linecap="round" stroke-linejoin="round"/>
</svg>
