<svg width="100" height="100" viewBox="0 0 100 100" fill="none" xmlns="http://www.w3.org/2000/svg">
<circle cx="50" cy="50" r="50" fill="#FEEAED"/>
<path d="M74.6334 41.6422L74.5601 41.349C74.5601 41.349 74.4868 41.2757 74.4868 41.2023L69.1349 26.173C68.915 25.4399 68.2551 25 67.4487 25H32.6979C31.9648 25 31.305 25.4399 31.0117 26.173L25.5865 41.129C25.5865 41.2023 25.5132 41.2757 25.5132 41.4223L25.2933 41.9355C25.2199 42.0821 25.2199 42.2287 25.2199 42.3754C25.0733 43.0352 25 43.6217 25 44.1349C25 47.3607 27.0528 50.1466 29.9853 51.2463V73.2405C29.9853 74.1935 30.7918 75 31.7449 75H68.9883C69.9414 75 70.7478 74.1935 70.7478 73.2405V50.9531C73.2405 49.7067 75 47.1408 75 44.1349C75 43.6217 74.9267 43.0352 74.7801 42.4487C74.8534 42.1554 74.7801 41.9355 74.6334 41.6422ZM67.3021 71.4809H33.5777V51.6862C33.651 51.6862 33.7977 51.6129 33.871 51.6129C35.7038 51.3197 37.3167 50.3666 38.4897 48.9736C39.8827 50.6598 41.9355 51.6862 44.2815 51.6862C46.6276 51.6862 48.6804 50.6598 50.0733 48.9736C51.4663 50.6598 53.5191 51.6862 55.8651 51.6862C58.2111 51.6862 60.2639 50.6598 61.6569 48.9736C62.6833 50.1466 64.0029 51.0264 65.5425 51.4663H65.6158C65.7625 51.5396 65.9824 51.5396 66.129 51.5396C66.2023 51.5396 66.349 51.6129 66.4223 51.6129C66.5689 51.6129 66.7155 51.6129 66.8622 51.6862H67.1554V71.4809H67.3021ZM68.6217 48.0205C68.4018 48.0938 68.2551 48.0938 68.1085 48.1672C67.8886 48.1672 67.7419 48.2405 67.522 48.2405C67.2287 48.2405 67.0088 48.2405 66.7155 48.1672C66.4956 48.0938 66.2757 48.0938 66.129 47.9472H66.0557C64.6628 47.3607 63.6364 46.0411 63.5631 44.5015V44.2082C63.5631 43.2551 62.7566 42.4487 61.8035 42.4487C60.8504 42.4487 59.9707 43.1818 59.9707 44.1349V44.5015C59.824 46.0411 58.7977 47.3607 57.478 47.9472H57.4047L56.7449 48.1672H55.8651C55.5718 48.1672 55.3519 48.1672 55.0587 48.0938C54.8387 48.0205 54.6188 48.0205 54.4721 47.8739H54.3988C53.0059 47.2874 51.9795 45.9677 51.9062 44.4282V44.1349C51.9062 43.1818 51.0997 42.3754 50.1466 42.3754C49.1935 42.3754 48.3871 43.1818 48.3871 44.1349V44.5015C48.2405 46.0411 47.2141 47.3607 45.8944 47.9472H45.8211L45.1613 48.1672H44.2815C44.0616 48.1672 43.7683 48.1672 43.4751 48.0938C43.2551 48.0205 43.0352 48.0205 42.8152 47.8739H42.7419C41.349 47.2874 40.3226 45.9677 40.2493 44.4282V44.1349C40.2493 43.1818 39.4428 42.3754 38.4897 42.3754C37.5367 42.3754 36.7302 43.1818 36.7302 44.1349V44.5015C36.5836 46.0411 35.5572 47.3607 34.2375 47.9472H34.1642C33.9443 48.0205 33.7243 48.0938 33.5777 48.1672H32.6246C32.478 48.1672 32.3314 48.1672 32.1848 48.0938H31.9648C30.0587 47.7273 28.5924 46.1144 28.5924 44.1349C28.5924 43.8416 28.6657 43.4751 28.8123 43.0352C28.8123 42.9619 28.8123 42.8886 28.8856 42.8886L34.0176 28.5924H66.2757L71.261 42.522C71.261 42.522 71.261 42.5953 71.3343 42.6686L71.4076 42.9619C71.4076 43.0352 71.4076 43.1085 71.4809 43.1085C71.6276 43.5484 71.7009 43.915 71.7009 44.2082C71.5543 45.9677 70.3079 47.5073 68.6217 48.0205Z" fill="#D92B42"/>
</svg>
