<svg xmlns="http://www.w3.org/2000/svg" viewBox="0 0 70.87 77.67"><defs><style>.cls-1{fill:#dbeccf;}.cls-2{fill:#b3b4b4;}.cls-2,.cls-3,.cls-4,.cls-5{fill-rule:evenodd;}.cls-3{fill:#9d9fa2;}.cls-4{fill:#515050;}.cls-5{fill:#cccccb;}</style></defs><g id="Layer_2" data-name="Layer 2"><g id="AW"><circle class="cls-1" cx="35.43" cy="42.24" r="35.43" transform="translate(-19.49 37.43) rotate(-45)"/><path class="cls-2" d="M41.06,6.66,41.8,5,40.14,3.82l-.73,1.72,1.65,1.12Zm-.82,1.92L41,6.86,39.32,5.74l-.73,1.72,1.65,1.12Zm-.82,1.92.73-1.72L38.5,7.65l-.73,1.72,1.65,1.13Zm-.82,1.91.73-1.72L37.68,9.57,37,11.29l1.65,1.12Zm-.82,1.92.73-1.72-1.65-1.12-.74,1.71,1.66,1.13ZM37,16.24l.74-1.72L36,13.4l-.74,1.72L37,16.24Zm-.82,1.92.74-1.72-1.65-1.12L34.48,17l1.65,1.13Zm-.82,1.91.74-1.71L34.4,17.23,33.66,19l1.65,1.12ZM34.49,22l.74-1.72-1.65-1.12-.74,1.71L34.49,22Zm-.82,1.91.74-1.71-1.66-1.13L32,22.78l1.65,1.12ZM43.72,6l.74-1.71L42.81,3.16l-.74,1.72L43.72,6ZM42.9,7.92l.74-1.72L42,5.08l-.74,1.71L42.9,7.92Zm-.82,1.91.74-1.71L41.17,7l-.74,1.72,1.65,1.12Zm-.82,1.92L42,10,40.34,8.91l-.73,1.72,1.65,1.12Zm-.82,1.92L41.18,12l-1.66-1.13-.73,1.72,1.65,1.13Zm-.82,1.91.73-1.72L38.7,12.74,38,14.46l1.65,1.12ZM38.8,17.5l.73-1.72-1.65-1.13-.73,1.72L38.8,17.5ZM38,19.41l.73-1.72-1.65-1.12-.74,1.72L38,19.41Zm-.83,1.92.74-1.72-1.65-1.12L35.5,20.2l1.65,1.13Zm-.82,1.91.74-1.71L35.42,20.4l-.74,1.72,1.65,1.12Zm-.82,1.92.74-1.72L34.6,22.32,33.86,24l1.65,1.13Zm-.82,1.91.74-1.71-1.65-1.13L33,26l1.65,1.12ZM46.39,5.34l.73-1.72L45.47,2.5l-.73,1.72,1.65,1.12Zm-.82,1.92.73-1.72L44.65,4.42l-.74,1.71,1.66,1.13Zm-.83,1.91.74-1.71L43.83,6.33l-.74,1.72,1.65,1.12Zm-.82,1.92.74-1.72L43,8.25,42.27,10l1.65,1.13ZM43.1,13l.74-1.71-1.65-1.13-.74,1.72L43.1,13Zm-.82,1.92L43,13.2l-1.65-1.12-.74,1.72,1.65,1.12Zm-.82,1.92.74-1.72L40.54,14l-.73,1.72,1.65,1.13Zm-.82,1.91L41.38,17l-1.66-1.12L39,17.63l1.65,1.12Zm-.82,1.92L40.55,19,38.9,17.82l-.73,1.72,1.65,1.13ZM39,22.58l.73-1.72-1.65-1.12-.73,1.72L39,22.58Zm-.82,1.92.73-1.72-1.65-1.12-.74,1.71,1.66,1.13Zm-.83,1.91.74-1.71-1.65-1.13-.74,1.72,1.65,1.12Zm-.82,1.92.74-1.72-1.65-1.12-.74,1.71,1.65,1.13Zm-.82,1.91.74-1.71L34.8,27.4l-.74,1.72,1.65,1.12ZM48.23,6.6,49,4.88,47.31,3.75l-.73,1.72L48.23,6.6Zm-.82,1.91.73-1.72L46.49,5.67l-.73,1.72,1.65,1.12Zm-.82,1.92.73-1.72L45.67,7.59,44.94,9.3l1.65,1.13Zm-.82,1.91.73-1.71L44.85,9.5l-.74,1.72,1.66,1.12Zm-.83,1.92.74-1.72L44,11.42l-.74,1.71,1.65,1.13Zm-.82,1.91.74-1.71-1.65-1.13-.74,1.72,1.65,1.12Zm-.82,1.92L44,16.37l-1.65-1.12L41.65,17l1.65,1.13ZM42.48,20l.74-1.71-1.65-1.13-.74,1.72L42.48,20Zm-.82,1.92.74-1.72-1.66-1.12L40,20.8l1.65,1.12Zm-.82,1.92.74-1.72L39.92,21l-.73,1.72,1.65,1.13ZM40,25.75,40.75,24,39.1,22.91l-.73,1.72L40,25.75Zm-.82,1.92L39.93,26l-1.65-1.13-.73,1.72,1.65,1.13Zm-.82,1.91.73-1.72-1.65-1.12-.74,1.72,1.66,1.12Zm-.83,1.92.74-1.72-1.65-1.12-.74,1.71,1.65,1.13ZM50.07,7.85l.74-1.72L49.16,5l-.74,1.72,1.65,1.12Zm-.82,1.92L50,8.05,48.34,6.92,47.6,8.64l1.65,1.13Zm-.82,1.91L49.17,10,47.51,8.84l-.73,1.72,1.65,1.12Zm-.82,1.92.73-1.72-1.65-1.13L46,12.47l1.65,1.13Zm-.82,1.91.73-1.72-1.65-1.12-.73,1.72,1.65,1.12ZM46,17.43l.73-1.72-1.65-1.12-.74,1.71L46,17.43Zm-.83,1.91.74-1.71L44.23,16.5l-.74,1.72,1.65,1.12Zm-.82,1.92.74-1.72-1.65-1.12-.74,1.71,1.65,1.13Zm-.82,1.91.74-1.71-1.65-1.13-.74,1.72,1.65,1.12Zm-.82,1.92.74-1.72-1.65-1.12L41,24l1.65,1.12ZM41.86,27l.74-1.72-1.66-1.13-.73,1.72L41.86,27ZM41,28.92l.74-1.72-1.66-1.12-.73,1.72L41,28.92Zm-.82,1.92L41,29.12,39.3,28l-.73,1.72,1.65,1.13Zm-.82,1.91L40.13,31l-1.65-1.12-.73,1.72,1.65,1.12ZM51.91,9.1l.74-1.71L51,6.26,50.26,8,51.91,9.1ZM51.09,11l.74-1.72L50.18,8.18,49.44,9.9,51.09,11Zm-.82,1.92L51,11.22l-1.65-1.13-.74,1.72,1.65,1.13Zm-.82,1.91.74-1.72L48.54,12l-.74,1.72,1.65,1.12Zm-.82,1.92.74-1.72-1.66-1.13L47,15.64l1.65,1.13Zm-.82,1.91L48.54,17l-1.65-1.12-.73,1.72,1.65,1.12ZM47,20.6l.73-1.72-1.65-1.12-.73,1.71L47,20.6Zm-.82,1.91.73-1.71-1.65-1.13-.74,1.72,1.66,1.12Zm-.83,1.92.74-1.72-1.65-1.12-.74,1.71,1.65,1.13Zm-.82,1.91.74-1.71L43.61,23.5l-.74,1.72,1.65,1.12Zm-.82,1.92.74-1.72-1.65-1.12-.74,1.71,1.65,1.13Zm-.82,1.91.74-1.71L42,27.33l-.74,1.72,1.65,1.12Zm-.82,1.92.74-1.72-1.66-1.12L40.41,31l1.65,1.12ZM41.24,34,42,32.29l-1.66-1.13-.73,1.72L41.24,34ZM53.76,10.36l.73-1.72L52.84,7.52,52.1,9.23l1.66,1.13Zm-.83,1.91.74-1.71L52,9.43l-.74,1.72,1.65,1.12Zm-.82,1.92.74-1.72L51.2,11.35l-.74,1.71,1.65,1.13Zm-.82,1.91L52,14.39l-1.65-1.13L49.64,15l1.65,1.12ZM50.47,18l.74-1.72-1.65-1.12-.74,1.72L50.47,18Zm-.82,1.92.74-1.72-1.66-1.13L48,18.81l1.65,1.13Zm-.82,1.91.74-1.72L47.91,19l-.73,1.72,1.65,1.12ZM48,23.77l.73-1.72-1.65-1.12-.73,1.71L48,23.77Zm-.82,1.91L47.92,24l-1.65-1.12-.73,1.72,1.65,1.12Zm-.82,1.92.73-1.72-1.65-1.12-.74,1.71,1.66,1.13Zm-.83,1.91.74-1.71-1.65-1.13-.74,1.72,1.65,1.12Zm-.82,1.92.74-1.72-1.65-1.12-.74,1.71,1.65,1.13Zm-.82,1.91.74-1.71L43,30.5l-.74,1.72,1.65,1.12Zm-.82,1.92.74-1.72-1.65-1.12-.74,1.72,1.65,1.12ZM55.6,11.61l.73-1.72L54.68,8.77,54,10.49l1.65,1.12Zm-.82,1.92.73-1.72-1.65-1.12-.73,1.71,1.65,1.13ZM54,15.44l.73-1.71L53,12.6l-.74,1.72L54,15.44Zm-.83,1.92.74-1.72-1.65-1.12-.74,1.71,1.65,1.13Zm-.82,1.91.74-1.71L51.4,16.43l-.74,1.72,1.65,1.12Zm-.82,1.92.74-1.72-1.65-1.12-.74,1.72,1.65,1.12Zm-.82,1.92.74-1.72-1.65-1.13L49,22l1.65,1.13ZM49.85,25l.74-1.72-1.66-1.12L48.2,23.9,49.85,25ZM49,26.94l.74-1.72-1.66-1.13-.73,1.72L49,26.94Zm-.82,1.91.73-1.72L47.29,26l-.73,1.72,1.65,1.12Zm-.82,1.92.73-1.72-1.65-1.12-.73,1.71,1.65,1.13Zm-.82,1.91L47.3,31l-1.65-1.13-.74,1.72,1.66,1.12Zm-.83,1.92.74-1.72-1.65-1.12-.74,1.71,1.65,1.13Zm-.82,1.91.74-1.71L44,33.67l-.74,1.72,1.65,1.12Zm11.7-21.73.74-1.72L55.7,11.94,55,13.66l1.65,1.12ZM55.8,16.7,56.53,15l-1.65-1.12-.73,1.71L55.8,16.7ZM55,18.61l.73-1.71-1.65-1.13-.73,1.72L55,18.61Zm-.82,1.92.73-1.72-1.65-1.12L52.5,19.4l1.66,1.13Zm-.83,1.91.74-1.71L52.42,19.6l-.74,1.72,1.65,1.12Zm-.82,1.92.74-1.72L51.6,21.52l-.74,1.72,1.65,1.12Zm-.82,1.92.74-1.72-1.65-1.13L50,25.15l1.65,1.13Zm-.82,1.91.74-1.72L50,25.35l-.74,1.72,1.65,1.12Zm-.82,1.92.74-1.72-1.66-1.13L48.4,29l1.65,1.13ZM49.23,32,50,30.3l-1.66-1.12-.73,1.72L49.23,32Zm-.82,1.92.73-1.72L47.49,31.1l-.73,1.71,1.65,1.13Zm-.82,1.91.73-1.71L46.67,33l-.73,1.72,1.65,1.12Zm10-17.9.74-1.72-1.65-1.12L56,16.83,57.64,18Zm-.82,1.92.74-1.72L55.9,17l-.73,1.71,1.65,1.13ZM56,21.78l.73-1.71-1.65-1.13-.73,1.72L56,21.78Zm-.82,1.92L55.91,22l-1.65-1.12-.73,1.71,1.65,1.13Zm-.82,1.91.73-1.71-1.65-1.13-.74,1.72,1.66,1.12Zm-.83,1.92.74-1.72-1.65-1.12-.74,1.71,1.65,1.13Zm-.82,1.91.74-1.71L51.8,26.6l-.74,1.72,1.65,1.12Zm-.82,1.92.74-1.72L51,28.52l-.74,1.72,1.65,1.12Zm-.82,1.92.74-1.72-1.65-1.13-.74,1.72,1.65,1.13Zm-.82,1.91L51,33.47l-1.66-1.12-.73,1.72,1.65,1.12ZM40.46,2.51l.31-.14-.54,1.25,1.65,1.13L42.62,3l-1.31-.89.24-.09,1.15.78.55-1.28.27-.05L42.89,3l1.65,1.13.74-1.72-1.37-.94.31,0,1.15.78.37-.86H46l-.42,1,1.65,1.13L48,1.58l.22,0L47.4,3.56l1.65,1.12,1-2.41.21.09-1,2.45,1.65,1.12L52,3.33l.1.06.09.07-1.12,2.6,1.65,1.13,1.05-2.45.18.17-1,2.41,1.65,1.12.82-1.92.16.21-.79,1.84L56.42,9.7l.42-1L57,9l-.37.86,1.15.78c0,.11.09.23.14.35L56.53,10l-.74,1.72,1.65,1.13.63-1.47.11.32L57.63,13l1.16.78c0,.1,0,.2.07.31l-1.31-.9-.74,1.72L58.46,16,59,14.78c0,.14,0,.27.07.4l-.42,1,.62.42,0,.27-.73-.5-.74,1.72,1.58,1.07c0,.09,0,.17,0,.26l-1.65-1.13L57,20l2.27,1.54,0,.24-2.32-1.59-.74,1.72,2.74,1.87c0,.07,0,.15,0,.22L56.1,22.11l-.73,1.72,3,2.06-.06.21-3-2.07-.73,1.71,3.13,2.13-.09.2h0l-3.13-2.13-.73,1.72,3.06,2.08-.1.19-3-2.07-.74,1.71,2.82,1.92-.12.18-2.78-1.9-.74,1.72,2.39,1.62-.14.16L52,31.69l-.74,1.72L53,34.59l-.17.14L51.18,33.6l-.74,1.72.84.57-.19.13-.73-.5-.51,1.18-.31.14.63-1.45-1.66-1.12L47.78,36l1.46,1-.24.1-1.31-.89-.63,1.48-.27.05.71-1.66-1.65-1.12-.74,1.71,1.59,1.09-.3.05L45,36.84l-.45,1.06h-.25l.51-1.18-1.65-1.12-.88,2-.22-.05L43,35.46l-1.66-1.13-1.11,2.61L40,36.85l1.13-2.65L39.5,33.08l-1.2,2.81-.1-.07-.09-.06L39.31,33l-1.65-1.12-1.13,2.64-.18-.16,1.12-2.61-1.65-1.13-.91,2.12-.16-.2.88-2.05L34,29.32l-.51,1.18-.14-.25.46-1.06-1.38-.94-.13-.34L33.87,29l.74-1.72L33,26.15l-.71,1.66,0-.08-.06-.28L32.76,26l-1.3-.89c0-.1-.05-.2-.07-.3l1.46,1,.74-1.72L31.93,23l-.62,1.45c0-.13,0-.27-.07-.4l.5-1.18-.73-.5c0-.09,0-.18,0-.27l.84.57.73-1.72L30.91,19.8v-.25l1.74,1.18L33.39,19l-2.33-1.59,0-.23,2.38,1.62.74-1.72-2.79-1.89a2.25,2.25,0,0,0,0-.22l2.82,1.91L35,15.19,32,13.11c0-.07.05-.14.07-.21L35.11,15l.74-1.72-3.13-2.13h0a1.67,1.67,0,0,0,.08-.2l3.13,2.13.74-1.71-3-2.08a1.62,1.62,0,0,1,.1-.18l3,2.06.74-1.72L34.71,7.55l.12-.18,2.75,1.87.73-1.72L36,5.94l.14-.16L38.4,7.33l.73-1.72L37.48,4.48l.16-.14,1.58,1.07L40,3.69l-.73-.49.2-.13L40,3.5l.42-1Z"/><path class="cls-3" d="M52.6,2.23c7.36,5,10,16.85,5.88,26.45-2.14,5-5.7,8.41-9.65,9.81h0c-4.67,1.82-13.37,7-16.95,15.39l-2.11-1.44c3.4-7.94,2.45-19.32,1.13-25.36a24.69,24.69,0,0,1,.94-16.56C35.94.94,45.24-2.78,52.6,2.23ZM34.38,33.88c-.48-.52-1-.92-1,.32a92.75,92.75,0,0,1-1.26,13.42c-.3,1.89.4,2.46,1.46.93A47.12,47.12,0,0,1,42.05,40c1.1-.78.09-1-.56-1.22A13.27,13.27,0,0,1,37.71,37a18.77,18.77,0,0,1-3.33-3.1Zm13.13,3.39-.29.12a11.24,11.24,0,0,1-8.93-1.78,16.21,16.21,0,0,1-5.91-8c-.06-.26-.12-.52-.17-.77,0,0,0,0-.1,0a22.78,22.78,0,0,1,.77-15.59C36.67,2.41,45.24-1,52,3.6S61.22,19.12,57.43,28c-2.15,5-5.86,8.31-9.91,9.35,0,0,0,0,0,0Z"/><path class="cls-3" d="M30,17.92l1.15.78a22.53,22.53,0,0,0,1,8.14c.07,0,.1,0,.1,0,0,.25.11.51.17.77a16.21,16.21,0,0,0,5.91,8,11.24,11.24,0,0,0,8.93,1.78l.29-.12s0,0,0,0a13.3,13.3,0,0,0,5.93-3.42l1.14.78a14.94,14.94,0,0,1-5.76,3.82h0c-4.67,1.82-13.37,7-16.95,15.39l-2.11-1.44c3.4-7.94,2.45-19.32,1.13-25.36A24.41,24.41,0,0,1,30,17.92Zm4.4,16c-.48-.52-1-.92-1,.32a92.75,92.75,0,0,1-1.26,13.42c-.3,1.89.4,2.46,1.46.93A47.12,47.12,0,0,1,42.05,40c1.1-.78.09-1-.56-1.22A13.27,13.27,0,0,1,37.71,37a18.77,18.77,0,0,1-3.33-3.1Z"/><path class="cls-4" d="M20.68,70.29c-.21.51.56,1.56,1.74,2.36s2.29,1,2.51.53l.65-1.51-4.25-2.89-.65,1.51Z"/><path class="cls-4" d="M21.19,71.44l0,.09a5.86,5.86,0,0,0,1.26,1.12,5.11,5.11,0,0,0,1.43.71.2.2,0,0,0,0-.08l.92-2.14-2.7-1.84-.92,2.14Z"/><path class="cls-5" d="M23.85,69.31c-1.17-.8-2.3-1-2.52-.53s.56,1.56,1.74,2.36,2.29,1,2.51.53-.56-1.56-1.73-2.36Z"/><path class="cls-4" d="M21.88,68.72,29,52.11c.08-.18.31-.38.48-.26l2.82,1.91a.56.56,0,0,1,.19.56L25.32,71.06c-.18.4-1.09.21-2-.43s-1.57-1.5-1.4-1.91Z"/><path class="cls-4" d="M22.66,69.25l7.12-16.61c.08-.18.25-.42.35-.35l1.54,1.05c.09.06.11.29,0,.46L24.54,70.53c-.17.4-.74.45-1.26.1a1.29,1.29,0,0,1-.62-1.38Z"/></g></g></svg>