<svg xmlns="http://www.w3.org/2000/svg" viewBox="0 0 73.98 75.25"><defs><style>.cls-1{isolation:isolate;}.cls-2{fill:#dbeccf;}.cls-11,.cls-16,.cls-17,.cls-3,.cls-6{fill:#9d9fa2;}.cls-17,.cls-3,.cls-5{opacity:0.6;}.cls-11,.cls-3,.cls-5,.cls-8{mix-blend-mode:multiply;}.cls-4{fill:#b37141;}.cls-7{fill:#515050;}.cls-8{fill:#e3ae3b;opacity:0.4;}.cls-9{fill:#7d7f81;}.cls-10{fill:#6b6e70;}.cls-12{fill:#7d7f80;}.cls-13{fill:#5b5d5e;}.cls-14{fill:#181a1c;}.cls-15{fill:#46484a;}.cls-16{opacity:0.8;}.cls-16,.cls-17{mix-blend-mode:screen;}</style></defs><g class="cls-1"><g id="Layer_2" data-name="Layer 2"><g id="AW"><circle class="cls-2" cx="38.55" cy="39.81" r="35.43" transform="translate(-16.86 38.92) rotate(-45)"/><path class="cls-3" d="M61.7,58.92a1.19,1.19,0,0,0-.08-.82c-1.83-2.74-4.33-4.86-6.49-7.12C50.86,46.49,46.58,42,42,38A212.81,212.81,0,0,1,23.68,19.35c-.16-.17-2.74-3.05-2.7-3.11l-4,6.05c.53-.81,4.95,4.32,5.29,4.69,2.71,2.92,5.34,5.95,8,9,1,1.21,2.09,2.39,3.11,3.61,0,0,17.13,20.72,23.21,26.2,0,0,.34.52,1.25-.28S61.49,60.26,61.7,58.92Z"/><path class="cls-4" d="M56.7,66.07h0a.44.44,0,0,1-.21-.16c-3.13-2.82-9.28-9.79-13.88-15.14-1-1.17-8.69-10.18-9.32-11.07v0c-.64-.77-1.3-1.53-1.94-2.26l-1.17-1.35c-2.48-2.89-5.15-6-8-9L22,26.87c-2.39-2.69-4-4.19-4.67-4.47-.19-.08-.25,0-.25,0L17,22.21l3.95-6h0l.08.08.1-.1c0,.05.29.41,2.64,3l.05.07A211.81,211.81,0,0,0,42.09,37.88c4.58,4,8.93,8.56,13.13,13,.59.61,1.21,1.23,1.81,1.82A35.08,35.08,0,0,1,61.71,58a1.36,1.36,0,0,1,.1,1c-.23,1.42-3.05,5.92-3.94,6.7C57.28,66.15,56.91,66.15,56.7,66.07Zm-39.23-44c.72.29,2.31,1.81,4.72,4.51l.21.24c2.79,3,5.47,6.11,8,9,.38.45.77.89,1.16,1.34.65.74,1.31,1.5,1.95,2.27.16.2,17.18,20.76,23.21,26.19,0,0,.34.42,1.12-.27a22.8,22.8,0,0,0,3.8-6.45,1,1,0,0,0-.06-.72,35.85,35.85,0,0,0-4.66-5.28c-.61-.6-1.23-1.21-1.82-1.83-4.2-4.4-8.55-9-13.13-13A210.84,210.84,0,0,1,23.6,19.48l-.06-.06c-1.72-1.92-2.37-2.64-2.58-3L17.3,22.05Z"/><g class="cls-5"><path class="cls-6" d="M25.11,28.39a5.62,5.62,0,0,0-1.17-1.07.34.34,0,0,0-.52.23.13.13,0,0,1,0,.06,6.21,6.21,0,0,0,.4,1.07l-.3-.93c-.13-.38.25-.18.36-.12a1.93,1.93,0,0,1,.5.45c.47.59,1,1.06,1.49,1.66A21.51,21.51,0,0,1,27.43,32a.07.07,0,0,1,.06,0,19.67,19.67,0,0,0,1.29,2A25.79,25.79,0,0,0,25.11,28.39Z"/><path class="cls-6" d="M30.84,35.37a29.56,29.56,0,0,0-1.71-3.58,22.39,22.39,0,0,0-2.18-3c-.34-.39-.72-.71-1.06-1.09s-.73-1-1.13-1.42a7.14,7.14,0,0,0-1.05-.94c-.17-.13-.6-.41-.87-.2a.85.85,0,0,0-.28.61,3.83,3.83,0,0,0,.08.69c0,.16,0,.31.05.45a6.11,6.11,0,0,0,.34.82.43.43,0,0,0,0-.05c-.13-.58-.19-1.18-.28-1.77-.14-.85.65-.36.86-.23A11.9,11.9,0,0,1,25.75,28c.64.75,1.33,1.43,2,2.2a24.37,24.37,0,0,1,3.09,5.64s.07,0,.09,0A9.87,9.87,0,0,0,32.11,38C31.66,37.16,31.24,36.28,30.84,35.37Z"/><path class="cls-6" d="M33.91,35.67c-1.39-1.68-2.63-3.55-4-5.31a39.4,39.4,0,0,0-4.24-4.81A11.17,11.17,0,0,0,23.35,24a9.55,9.55,0,0,0-1-.6c-.25-.1-.36.14-.46.47a4,4,0,0,0,0,1.37c0,.28,0,.54,0,.81l.15.32c0-.35-.06-.7-.07-1.07s0-.58,0-.88a.88.88,0,0,1,.3-.73,1,1,0,0,1,.32.19c.64.48,1.37.8,2,1.23a12.16,12.16,0,0,1,2.14,2,40.09,40.09,0,0,1,3.61,4.32,32.62,32.62,0,0,0,3.52,4.46S33.94,35.7,33.91,35.67Z"/><path class="cls-6" d="M34.24,32.47c-.62-.52-1.3-.93-1.92-1.44s-1.27-1.16-1.88-1.78c-1.2-1.22-2.27-2.66-3.39-4-.6-.71-1.25-1.33-1.88-2a23.13,23.13,0,0,0-2-1.89s-.08.11-.06.13a41.27,41.27,0,0,1,3.64,3.92c1.17,1.39,2.25,2.92,3.49,4.18.57.59,1.15,1.15,1.76,1.67s1.31.91,2,1.4,1.43,1.18,2.16,1.75S37.34,35.57,38,36c0,0,.09-.13.06-.16C36.82,34.68,35.54,33.57,34.24,32.47Z"/><path class="cls-6" d="M50,53.7c-.84-.76-1.69-1.53-2.5-2.33-1.62-1.6-3.15-3.32-4.73-5-.77-.81-1.54-1.63-2.27-2.51s-1.36-1.8-2.06-2.67c-.32-.41-.7-.72-1-1.08a11.78,11.78,0,0,1-1-1.3,16.59,16.59,0,0,0-2-2.53s-.08.1-.06.13A22.46,22.46,0,0,1,36.18,39c.32.46.64.92,1,1.34s.7.69,1,1.07c.72.84,1.36,1.8,2.06,2.67a28.53,28.53,0,0,0,2.28,2.49c1.6,1.61,3.14,3.29,4.76,4.86.82.81,1.67,1.57,2.53,2.32s1.54,1.54,2.32,2.3c0,0,.09-.11.06-.13C51.47,55.18,50.78,54.39,50,53.7Z"/><path class="cls-6" d="M44.4,51.69c.17.13.35.24.52.35-1.68-2.2-3.31-4.48-4.91-6.8-.44-.63-.9-1.22-1.35-1.83s-.9-1.3-1.41-1.88a21,21,0,0,1-2.67-3.34s-.07.09,0,.11a18.16,18.16,0,0,0,2.61,3.49c.47.54.86,1.17,1.29,1.76s1,1.31,1.45,2c.89,1.32,1.81,2.61,2.74,3.89a17.11,17.11,0,0,0,1.32,1.7C44.1,51.31,44.25,51.5,44.4,51.69Z"/><path class="cls-6" d="M55.87,54.34a6.23,6.23,0,0,0-.9-.88c-.7-.57-1.35-1.25-2-1.84-1.56-1.3-3.15-2.53-4.7-3.87s-2.93-2.89-4.42-4.29c-.71-.67-1.46-1.27-2.17-1.94a29.59,29.59,0,0,1-2.1-2.34s-.08.11-.06.14a30,30,0,0,0,1.93,2.36c.68.71,1.44,1.31,2.14,2,1.48,1.42,2.87,3,4.4,4.32s3,2.53,4.59,3.76c.71.58,1.38,1.23,2.08,1.83a6.09,6.09,0,0,1,1,.87c.11.14.22.27.34.4a1.91,1.91,0,0,1,.28.4c-.21,0-.47-.21-.6-.28a11.59,11.59,0,0,1-1.42-.68c-.41-.29-.79-.62-1.22-.87s-1-.54-1.53-.82a17.22,17.22,0,0,1-3-1.9c-.92-.8-1.84-1.62-2.73-2.48s-1.51-1.82-2.28-2.72-1.5-1.85-2.24-2.78S39.71,40.82,39,39.9c-.37-.47-.75-.93-1.1-1.41a5.76,5.76,0,0,1-.46-.71,4,4,0,0,1-.32-.52,7.89,7.89,0,0,1,.77.51c.34.22.67.49,1,.72.74.49,1.53.89,2.28,1.35a24.16,24.16,0,0,1,4.44,3.5c1.34,1.31,2.7,2.59,4.06,3.88a41.46,41.46,0,0,1,4,4.16s.05-.07,0-.09a37.81,37.81,0,0,0-4-4.2c-1.36-1.29-2.68-2.65-4-4a24.58,24.58,0,0,0-4.19-3.34c-.75-.47-1.53-.89-2.29-1.35-.4-.25-.79-.52-1.17-.8A3.74,3.74,0,0,0,37,37s-.08.15-.08.18a3,3,0,0,0,.66,1.23c.33.52.73.94,1.09,1.42.75,1,1.52,2,2.29,3s1.54,2,2.35,2.92a38.12,38.12,0,0,0,2.52,3A23.26,23.26,0,0,0,48.47,51c1,.68,2,1.27,3,1.85.5.27,1,.53,1.5.83s.87.71,1.32,1,.85.36,1.25.58c.18.11.49.38.75.14a.38.38,0,0,0,.09-.26C56.37,54.81,56.05,54.56,55.87,54.34Z"/><path class="cls-6" d="M50.7,51.45c-.57-.55-1.17-1.06-1.75-1.58s-1.09-1.06-1.64-1.6C46.24,47.2,45,46.4,44.16,45c0,0-.09.11-.07.14a13.16,13.16,0,0,0,3.07,3.52,22.28,22.28,0,0,0,1.64,1.59,9.19,9.19,0,0,0,1.84,1.41S50.73,51.47,50.7,51.45Z"/><path class="cls-6" d="M48,44l-.66-.54c-.61-.54-1.19-1.13-1.81-1.66-1.16-1-2.36-1.93-3.53-2.93a20.4,20.4,0,0,0-4-2.43,17.22,17.22,0,0,1-2.09-1.25,3.75,3.75,0,0,1-.89-.76,2.42,2.42,0,0,0-.64-.67s-.07.1,0,.12a3.22,3.22,0,0,1,.68.85,3.32,3.32,0,0,0,.69.61,15.73,15.73,0,0,0,2,1.3,24.66,24.66,0,0,1,4.21,2.63c.49.42,1,.91,1.46,1.28.68.48,1.32,1,2,1.53,1.1,1,2.14,2,3.28,2.87C48.39,44.68,48.17,44.35,48,44Z"/><path class="cls-6" d="M33.67,31.23c-1.79-2-3.52-4.17-5.43-6-.43-.41-.78-.91-1.19-1.33s-.93-.89-1.38-1.36-.81-1-1.22-1.45a7.79,7.79,0,0,0-1.1-1.35s-.07.11-.05.12a8.28,8.28,0,0,1,1.05,1.45,14,14,0,0,0,1.19,1.52c.45.48.91.93,1.37,1.38s.77.92,1.19,1.33c.92.89,1.81,1.8,2.67,2.78s1.84,2.12,2.84,3.06C33.64,31.4,33.7,31.25,33.67,31.23Z"/><path class="cls-6" d="M56.44,64.23a.14.14,0,0,1,0-.11,17.31,17.31,0,0,1-1.36-1.35,31,31,0,0,1-2.61-3.51,14.85,14.85,0,0,0-1.33-1.6c-.47-.53-.91-1.09-1.37-1.63-.93-1.1-1.84-2.23-2.73-3.41,0,0-.05.07,0,.1a32,32,0,0,0,2.53,3.46l1.35,1.68c.47.59,1,1.1,1.44,1.76a31.83,31.83,0,0,0,2.61,3.5,13.35,13.35,0,0,0,1.32,1.29,9,9,0,0,0,1.14.92C57.09,64.93,56.74,64.6,56.44,64.23Z"/><path class="cls-6" d="M58.15,63.5c-1-1.1-2.1-2-3-3.25S52.94,58,52,56.69c0,0-.06.09,0,.11.94,1.36,2.06,2.47,3,3.76a12.58,12.58,0,0,0,1.58,1.81c.23.2.45.43.68.66Z"/><path class="cls-6" d="M58.62,60.71a2.38,2.38,0,0,0-.38-.34,12.56,12.56,0,0,1-1.38-1.26c-.76-.71-1.45-1.56-2.24-2.24,0,0,0,.07,0,.09.77.73,1.4,1.66,2.18,2.38s1.46,1.48,2.24,2.13C58.87,61.22,58.74,61,58.62,60.71Z"/><path class="cls-6" d="M59.24,62.76c-.18-.23-.35-.48-.54-.68a.17.17,0,0,1,0-.14l-.28-.22a11.71,11.71,0,0,1-1.27-1.08c-.38-.36-.75-.74-1.1-1.14s-.56-.69-.86-1c0,0-.08.11-.06.14.29.33.52.74.83,1.06s.7.81,1.08,1.18a12.83,12.83,0,0,0,1,.93c.43.33.8.78,1.25,1.07h0Z"/><path class="cls-6" d="M61.05,60.24s0-.07,0-.08a1.55,1.55,0,0,0-.53-.46,7.19,7.19,0,0,1-1-.72c-.45-.4-.9-.81-1.38-1.18-1.09-.86-2.3-1.5-3.4-2.36,0,0-.06.1,0,.12,1.08.9,2.27,1.59,3.36,2.47.87.71,1.7,1.47,2.61,2.1Z"/><path class="cls-6" d="M60.73,58.16c-.53-.64-1.13-1.2-1.68-1.8s-1.29-1.43-1.95-2.11l-.26-.06c.71.78,1.4,1.6,2.1,2.41.42.48.85.94,1.28,1.42a7.26,7.26,0,0,0,.9,1s0,0,0,0A4.21,4.21,0,0,1,60.73,58.16Z"/></g><path class="cls-7" d="M61.62,58.1c-1.83-2.74-4.33-4.86-6.49-7.12C50.86,46.49,46.58,42,42,38A212.81,212.81,0,0,1,23.68,19.35c-.16-.17-2.74-3.05-2.7-3.11l-4,6.05c.53-.81,4.95,4.32,5.29,4.69,2.71,2.92,5.34,5.95,8,9,1,1.21,2.09,2.39,3.11,3.61,0,0,17.13,20.72,23.21,26.2,0,0,.34.52,1.25-.28s3.66-5.25,3.87-6.59A1.19,1.19,0,0,0,61.62,58.1Zm-4.73,4.11C55.4,64.9,46.43,54.4,40,45.24s-17.37-18.8-18.07-20a1.61,1.61,0,0,1,.42-2.06c.5-.63,1.25-1.5,5.46,3.46,2.75,3.26,16.34,17.14,22.37,22.73S58.38,59.51,56.89,62.21Z"/><path class="cls-8" d="M21.28,25.46c-.22-1,.28-1.74.87-2.68.78-1.24,1.39-1.93,2.34-1.53.53.23,1.05.48,1.56.74l-2.37-2.64c-.16-.17-2.74-3.05-2.7-3.11l-4,6.05c.41-.62,3.13,2.29,4.51,3.82A3.14,3.14,0,0,1,21.28,25.46Z"/><path class="cls-8" d="M61.62,58.1a39.41,39.41,0,0,0-5.29-5.91l.18.29A31.6,31.6,0,0,1,59,56.8a6.19,6.19,0,0,1,.14,4.46c-.7,2-2.07,2.67-3.34,2.53a5.91,5.91,0,0,1-1.65-.43c.94,1,1.79,1.8,2.48,2.43,0,0,.34.52,1.25-.28s3.66-5.25,3.87-6.59A1.19,1.19,0,0,0,61.62,58.1Z"/><path class="cls-3" d="M54.33,59.32c-2.47-2.53-5.13-4.76-7.43-7.56-1.16-1.42-2.41-2.73-3.6-4.11s-2.36-3-3.56-4.43c-.78-.94-1.52-1.93-2.27-2.92-1.64-1.73-3.29-3.44-4.87-5.26-2.14-2.46-4.1-5.24-6.66-7,4.57,5.16,9,10.51,13.55,15.75.62.72,1.09,1.46,1.52,2,.57.78,1.25,1.41,1.84,2.16,1.14,1.44,2.4,2.71,3.57,4.1,2.4,2.86,5.18,5,7.73,7.66C54.23,59.84,54.4,59.39,54.33,59.32Z"/><path class="cls-9" d="M9.81,28.47,4.7,23s-.53,1.5-1.19,1.56l5.33,5.67A3.11,3.11,0,0,1,9.81,28.47Z"/><path class="cls-10" d="M8.77,30.41h0L3.42,24.73a.15.15,0,0,1,0-.16.16.16,0,0,1,.12-.12C4.1,24.4,4.6,23,4.6,23a.23.23,0,0,1,.09-.12.08.08,0,0,1,.1,0l5.1,5.42a.18.18,0,0,1,0,.13.33.33,0,0,1-.07.13A2.88,2.88,0,0,0,9,30.24a.24.24,0,0,1-.08.15A.1.1,0,0,1,8.77,30.41Zm-5-5.75,5,5.33a3.31,3.31,0,0,1,.83-1.5l-4.9-5.21A3.24,3.24,0,0,1,3.76,24.66Z"/><path class="cls-11" d="M9.81,28.47,4.7,23s-.53,1.5-1.19,1.56l5.33,5.67A3.11,3.11,0,0,1,9.81,28.47Z"/><path class="cls-6" d="M8.61,30.73c.41-.79.25-.91.25-.91L6.57,27.39l-.68-.72L3.6,24.23s-.12-.18-.65.48S.16,29,.16,29h0c-.3.46.73,2.17,2.29,3.83S5.52,35.44,5.82,35h0S8.19,31.52,8.61,30.73Z"/><path class="cls-12" d="M5.15,35.16a9.66,9.66,0,0,1-2.79-2.23c-1-1.06-2.77-3.28-2.27-4h0c.1-.2.4-.66,1.19-1.89s1.38-2.11,1.6-2.39c.43-.53.65-.59.76-.55s0,0,0,.05L9,29.69s.2.23-.26,1.1S6,34.93,5.89,35.07l0,0C5.71,35.28,5.49,35.29,5.15,35.16ZM3.51,24.36s-.12,0-.5.45C2.48,25.45.26,29,.24,29c-.16.24.51,1.74,2.29,3.63a9.62,9.62,0,0,0,2.74,2.19c.38.15.47,0,.48,0l0,0c.26-.38,2.36-3.46,2.74-4.19s.26-.72.26-.72L3.51,24.36Z"/><path class="cls-6" d="M8.61,30.73c.41-.79.25-.91.25-.91L6.57,27.39l-.68-.72L3.6,24.23s-.12-.18-.65.48S.16,29,.16,29h0c-.3.46.73,2.17,2.29,3.83S5.52,35.44,5.82,35h0S8.19,31.52,8.61,30.73Z"/><path class="cls-13" d="M5.15,35.16a9.66,9.66,0,0,1-2.79-2.23c-1-1.06-2.77-3.28-2.27-4h0c.1-.2.4-.66,1.19-1.89s1.38-2.11,1.6-2.39c.43-.53.65-.59.76-.55s0,0,0,.05L9,29.69s.2.23-.26,1.1S6,34.93,5.89,35.07l0,0C5.71,35.28,5.49,35.29,5.15,35.16ZM3.51,24.36s-.12,0-.5.45C2.48,25.45.26,29,.24,29c-.16.24.51,1.74,2.29,3.63a9.62,9.62,0,0,0,2.74,2.19c.38.15.47,0,.48,0l0,0c.26-.38,2.36-3.46,2.74-4.19s.26-.72.26-.72L3.51,24.36Z"/><path class="cls-3" d="M8.86,29.82,6.57,27.39l-.68-.72L3.6,24.23s-.12-.18-.65.48S.16,29,.16,29h0c-.3.46.73,2.17,2.29,3.83S5.52,35.44,5.82,35h0s2.37-3.47,2.79-4.26S8.86,29.82,8.86,29.82Zm-2.48-.11a4.32,4.32,0,0,1-1.49,2.63C4,33,3.3,32.5,2.68,32A8,8,0,0,1,1.2,30.48a2.22,2.22,0,0,1-.5-.85.47.47,0,0,1,0-.1.17.17,0,0,1,0-.12,2.38,2.38,0,0,1,.65-1.8A18.35,18.35,0,0,1,2.58,26c.28-.28.57-.48.83-.34a4.5,4.5,0,0,1,.84.74,11.72,11.72,0,0,1,1.28,1.35A2.33,2.33,0,0,1,6.38,29.71Z"/><path class="cls-3" d="M8.86,29.82,6.57,27.39l-.43-.46.71,1.18c.3.51.94,1.18.8,2A5.52,5.52,0,0,1,6.54,32.2a4.89,4.89,0,0,1-1.43,1.52,1.59,1.59,0,0,1-1.7-.2,8.59,8.59,0,0,1-1.07-.84l.11.12C4,34.46,5.52,35.44,5.82,35h0s2.37-3.47,2.79-4.26S8.86,29.82,8.86,29.82Z"/><polygon class="cls-14" points="23.14 18.32 23.75 18.98 19.59 25.33 18.92 24.61 23.14 18.32"/><path class="cls-15" d="M19.53,25.48l0,0-.68-.72a.15.15,0,0,1,0-.1.36.36,0,0,1,0-.11l4.22-6.29c.05-.07.12-.09.16,0l.62.65a.12.12,0,0,1,0,.1.15.15,0,0,1,0,.11l-4.15,6.36a.28.28,0,0,1-.09.07Zm-.45-.92.52.56,4-6.09-.47-.5Z"/><path class="cls-6" d="M23.17,18.7a2.07,2.07,0,0,0,.11-.66c-.62-.89-2.84-4.16-3.5-5.43a3.54,3.54,0,0,1-.14-2.71A16.65,16.65,0,0,1,23,4.56c2.05-1.88,8.91-1.3,9.17-2s0-.74,0-.74S27.26.62,24.16.19C20.24-.35,16,5,16,5S5.46,21.13,4.73,22.19a1.38,1.38,0,0,0,.34,2c.11.06,4.23,4.48,4.23,4.48,1,.56,1.14-.72,1.14-.72S12,23.42,13.56,22.8s4.77,1.87,4.77,1.87c.72.61.79.21.79.21Z"/><path class="cls-13" d="M9.39,28.85l-.16-.07,0,0C8.08,27.55,5.13,24.39,5,24.29a1.6,1.6,0,0,1-.66-1.23,1.69,1.69,0,0,1,.32-.95c.71-1,11.14-17,11.25-17.19S20.27-.51,24.2,0c3.07.43,8,1.61,8.06,1.62h0c.07,0,.29.18,0,.92-.13.35-.67.43-2.75.59s-5.26.39-6.48,1.51a16.59,16.59,0,0,0-3.35,5.25,3.4,3.4,0,0,0,.15,2.57c.65,1.26,2.84,4.47,3.49,5.42a.14.14,0,0,1,0,.07,2.09,2.09,0,0,1-.12.73l0,.06-4,6.15a.46.46,0,0,1-.09.15.32.32,0,0,1-.38,0h0a1.75,1.75,0,0,1-.49-.32,14.57,14.57,0,0,0-2.81-1.64A2.63,2.63,0,0,0,13.56,23c-1.39.55-2.87,4.6-3,5a1.46,1.46,0,0,1-.33.8A.69.69,0,0,1,9.39,28.85Zm0-.36c.33.18.58.17.74,0a1.06,1.06,0,0,0,.21-.55s0,0,0-.06c.07-.19,1.64-4.6,3.23-5.24a2.78,2.78,0,0,1,2,.22,13.87,13.87,0,0,1,2.85,1.66,1.92,1.92,0,0,0,.45.3h0a.25.25,0,0,0,.16,0s0,0,0,0l4-6.16a1.83,1.83,0,0,0,.09-.51c-.68-1-2.84-4.16-3.49-5.42a3.75,3.75,0,0,1-.14-2.86A16.85,16.85,0,0,1,23,4.44C24.29,3.26,27.37,3,29.62,2.86a8.29,8.29,0,0,0,2.5-.36c.12-.35.1-.51,0-.54s-5-1.19-8-1.62c-3.82-.53-8,4.71-8.07,4.76S5.52,21.23,4.8,22.28a1.16,1.16,0,0,0-.23.68,1.32,1.32,0,0,0,.58,1C5.25,24.07,8.67,27.73,9.38,28.49Z"/><path class="cls-3" d="M32.2,1.81S27.26.62,24.16.19C20.24-.35,16,5,16,5S5.46,21.13,4.73,22.19a1.38,1.38,0,0,0,.34,2c.11.06,4.23,4.48,4.23,4.48,1,.56,1.14-.72,1.14-.72S12,23.42,13.56,22.8s4.77,1.87,4.77,1.87c.72.61.79.21.79.21l4.05-6.18a2.07,2.07,0,0,0,.11-.66c-.62-.89-2.84-4.16-3.5-5.43a3.54,3.54,0,0,1-.14-2.71A16.65,16.65,0,0,1,23,4.56c2.05-1.88,8.91-1.3,9.17-2S32.2,1.81,32.2,1.81ZM19.22,7a6.46,6.46,0,0,0,.18,7.44c1.26,1.75,1,3.26-.57,5.57s-2.71.41-4.55.44-4.12,4-4.67,4.65S7,23.15,6.32,22.28s.85-2.64.85-2.64l4.16-6.39s2.31-3.67,4.57-6.56S21.28,3.34,19.22,7Z"/><path class="cls-3" d="M19.52,11.9a7.6,7.6,0,0,0,.64,2.4c.53,1.21,1.44,2.19,1.56,3.75A4.74,4.74,0,0,1,21,20.41a21,21,0,0,1-1.06,2c-.25.41-.72,1.16-1.12,1.09a2,2,0,0,1-.61-.28,9.1,9.1,0,0,0-1-.37c-1.14-.41-3.57-1.8-4.79.41-.51.92-.91,1.9-1.39,2.83-.29.57-1.07,1.67-1.44,1.41-1.06-.72-4.09-3.56-4.19-5.32a5.89,5.89,0,0,1,0-1.11c-.38.59-.65,1-.75,1.13a1.38,1.38,0,0,0,.34,2c.11.06,4.23,4.48,4.23,4.48,1,.56,1.14-.72,1.14-.72S12,23.42,13.56,22.8s4.77,1.87,4.77,1.87c.72.61.79.21.79.21l4.05-6.18a2.07,2.07,0,0,0,.11-.66c-.62-.89-2.84-4.16-3.5-5.43A3.61,3.61,0,0,1,19.52,11.9Z"/><path class="cls-3" d="M16.15,5a16.57,16.57,0,0,1,2.26-1.92A9.52,9.52,0,0,1,23.19,1.4a30,30,0,0,1,4.95.46c1.37.18,2.78.21,4.17.33.06-.36-.11-.38-.11-.38S27.26.62,24.16.19C20.24-.35,16,5,16,5l-.36.56A7.28,7.28,0,0,1,16.15,5Z"/><path class="cls-16" d="M2.16,31.4a6.46,6.46,0,0,0,.84.4C2.2,31,1.37,30,1.54,29.45a21.16,21.16,0,0,1,1.68-3S2.94,26,1.69,27.88c0,0-1.06,1.08-.56,2A10.2,10.2,0,0,0,2.16,31.4Z"/><path class="cls-16" d="M8,23s-1.85-1.23-1.23-2.14,9.1-13.63,9.1-13.63S17.79,4.92,19,5.08a6.91,6.91,0,0,0-3,2.77C14.5,10.11,7.65,21,7.65,21S7.05,21.74,8,23Z"/><path class="cls-17" d="M20.9,6.25s1.78-2.87,4-3.31a46.4,46.4,0,0,1,6.88-.37s-6.52-1.17-8.6.19S19.34,8.14,20.9,6.25Z"/></g></g></g></svg>