<svg xmlns="http://www.w3.org/2000/svg" viewBox="0 0 15.51 10.38"><defs><style>.cls-1{fill:#fff;}</style></defs><g id="Layer_2" data-name="Layer 2"><g id="AW"><path class="cls-1" d="M12.58,10.38a1.25,1.25,0,0,1-1.17-1.05l0-.18H4.12l0,.18a1.27,1.27,0,0,1-1.18,1.05A1.27,1.27,0,0,1,1.73,9.33l0-.18H1.09A1.17,1.17,0,0,1,0,7.92V1.24A1.17,1.17,0,0,1,1.09,0H8.83A1.17,1.17,0,0,1,9.92,1.24h0a.48.48,0,0,0,.45.51h1.92a2,2,0,0,1,1.69,1l1.51,2.59a.24.24,0,0,1,0,.09v3a.63.63,0,0,1-.58.66H13.79l0,.18A1.27,1.27,0,0,1,12.58,10.38Zm0-2.45A1,1,0,0,0,11.63,9a1,1,0,0,0,.95,1.07A1,1,0,0,0,13.53,9,1,1,0,0,0,12.58,7.93Zm-9.67,0A1,1,0,0,0,2,9a1,1,0,0,0,1,1.07A1,1,0,0,0,3.86,9,1,1,0,0,0,2.91,7.93Zm9.67-.31a1.26,1.26,0,0,1,1.18,1.06l0,.17h1a.49.49,0,0,0,.46-.51V6.11a.49.49,0,0,0-.46-.51H10.37a.48.48,0,0,0-.45.51V8.34a.48.48,0,0,0,.45.51h1l0-.17A1.25,1.25,0,0,1,12.58,7.62Zm-9.67,0A1.27,1.27,0,0,1,4.09,8.68l0,.17H9.2a.48.48,0,0,0,.45-.51V7.11A.48.48,0,0,0,9.2,6.6H.72a.48.48,0,0,0-.45.51v.81a.88.88,0,0,0,.82.93H1.7l0-.17A1.27,1.27,0,0,1,2.91,7.62ZM1.09.3a.89.89,0,0,0-.82.94V5.79a.48.48,0,0,0,.45.51H9.2a.48.48,0,0,0,.45-.51V1.24A.89.89,0,0,0,8.83.3Zm9.28,5h3.92a.52.52,0,0,0,.38-.8L13.76,3a1.72,1.72,0,0,0-1.47-.9H10.37a.48.48,0,0,0-.45.51V4.79A.48.48,0,0,0,10.37,5.3Z"/><path class="cls-1" d="M10.72,6.6a.15.15,0,0,1,0-.3h.56a.15.15,0,0,1,0,.3Z"/></g></g></svg>