<svg xmlns="http://www.w3.org/2000/svg" viewBox="0 0 15.17 17.74"><defs><style>.cls-1{fill:#6eb151;}</style></defs><g id="Layer_2" data-name="Layer 2"><g id="AW"><path class="cls-1" d="M10.29,8.73a4.68,4.68,0,0,0,2.32-4A4.9,4.9,0,0,0,7.58,0a4.89,4.89,0,0,0-5,4.74,4.66,4.66,0,0,0,2.32,4A7.2,7.2,0,0,0,0,15.41a2.4,2.4,0,0,0,2.47,2.33H12.7a2.4,2.4,0,0,0,2.47-2.33A7.2,7.2,0,0,0,10.29,8.73Zm-6.44-4A3.64,3.64,0,0,1,7.58,1.22a3.63,3.63,0,0,1,3.73,3.52A3.63,3.63,0,0,1,7.58,8.26,3.64,3.64,0,0,1,3.85,4.74ZM12.7,16.52H2.47A1.14,1.14,0,0,1,1.3,15.41,6.12,6.12,0,0,1,7.58,9.48a6.12,6.12,0,0,1,6.29,5.93A1.15,1.15,0,0,1,12.7,16.52Z"/></g></g></svg>