<svg width="30" height="30" viewBox="0 0 30 30" fill="none" xmlns="http://www.w3.org/2000/svg">
<path d="M15.1992 13.5865C15.0742 13.574 14.9242 13.574 14.7867 13.5865C11.8117 13.4865 9.44922 11.049 9.44922 8.04902C9.44922 4.98652 11.9242 2.49902 14.9992 2.49902C18.0617 2.49902 20.5492 4.98652 20.5492 8.04902C20.5367 11.049 18.1742 13.4865 15.1992 13.5865Z" stroke="#AFAFAF" stroke-width="2" stroke-linecap="round" stroke-linejoin="round"/>
<path d="M8.94941 18.2005C5.92441 20.2255 5.92441 23.5255 8.94941 25.538C12.3869 27.838 18.0244 27.838 21.4619 25.538C24.4869 23.513 24.4869 20.213 21.4619 18.2005C18.0369 15.913 12.3994 15.913 8.94941 18.2005Z" stroke="#AFAFAF" stroke-width="2" stroke-linecap="round" stroke-linejoin="round"/>
</svg>
